<svg xmlns="http://www.w3.org/2000/svg" width="70" height="70" viewBox="0 0 70 70"><g transform="translate(-2152.082 -9802.33)"><circle cx="35" cy="35" r="35" transform="translate(2152.082 9802.33)" fill="#edf8f8"/><path d="M4097.276,1648.894v4.694c0,2.591,6.73,4.691,15.041,4.691v-4.691c-8.31,0-15.041-2.105-15.041-4.691Zm26.8,2.924-11.761-2.924v4.694l11.761,2.924c2.051-.8,3.279-1.817,3.279-2.924v-4.694C4127.357,1650,4126.129,1651.015,4124.078,1651.818Zm-11.761-7.614v4.69c-8.306,0-15.041-2.1-15.041-4.693v-4.7c0-2.587,6.73-4.691,15.041-4.691s15.04,2.106,15.04,4.693v4.7c0,1.107-1.228,2.118-3.279,2.925l-11.761-2.926Z" transform="translate(-1924.746 8192.615)"/></g></svg>