<svg xmlns="http://www.w3.org/2000/svg" width="70" height="70" viewBox="0 0 70 70"><g transform="translate(-2350.082 -9654.33)"><circle cx="35" cy="35" r="35" transform="translate(2350.082 9654.33)" fill="#edf8f8"/><g transform="translate(2371.542 9674.104)"><path d="M3790.408,1896.04l-.135-.081a.676.676,0,0,0-1.041.662.919.919,0,0,1-.23.757,1.568,1.568,0,0,1-1.122.487,1.42,1.42,0,0,1-1.352-1.352,6.032,6.032,0,0,1,.311-2.163,7.279,7.279,0,0,0,.365-2.569c0-2.7-.324-4.164-3.6-7.246a.676.676,0,0,0-1.136.622c.784,3.867-1.582,5.948-4.583,8.477-.824.757-1.784,1.528-2.65,2.406-4.083,4.069-4.934,7.652-4.934,9.937,0,4.056,1.5,9.18,8.638,10.815h.163a.676.676,0,0,0,.338-1.271c-2.555-2.366-3.055-3.556-3.055-4.813a5.924,5.924,0,0,1,1.609-3.488,2.8,2.8,0,0,0,.419,1.582,3.273,3.273,0,0,0,2.7,1.23c1.6,0,2.7-1.352,2.7-3.38a3.973,3.973,0,0,0-1.447-2.623,3.45,3.45,0,0,1-1.257-2.109,4.055,4.055,0,0,1,.324-1.568,4.4,4.4,0,0,0,1.352,1.433c.338.243.838.568,1.42.933,2.244,1.352,6.408,4.056,6.408,6.625,0,3.353-1.23,4.38-3.772,6.205a.676.676,0,0,0,.392,1.23h.149c4.907-1.082,9.991-5.408,9.991-10.815S3792.666,1897.514,3790.408,1896.04Z" transform="translate(-3770.305 -1884.341)"/></g></g></svg>