<svg xmlns="http://www.w3.org/2000/svg" width="70" height="70" viewBox="0 0 70 70"><g transform="translate(-2350.082 -9508.407)"><circle cx="35" cy="35" r="35" transform="translate(2350.082 9508.407)" fill="#edf8f8"/><g transform="translate(2366.787 9533.396)"><g transform="translate(0 0)"><path d="M3753.274,1353.051a.67.67,0,0,1-.579-.331l-4.235-7.219-8.146,2a.671.671,0,0,1-.754-.341l-9.484-18.177a.671.671,0,0,1,.594-.981h8.694a.67.67,0,0,1,.578.331l9.168,15.628,10.38-2.547-3.608-5.249a.671.671,0,0,1,.458-1.044l5.532-.79a.672.672,0,0,1,.641.274l3.952,5.532a.67.67,0,0,1-.386,1.041l-4.383,1.076,3.985,5.8a.67.67,0,0,1-.34,1.016l-11.855,3.952A.671.671,0,0,1,3753.274,1353.051Zm-3.455-7.884,3.758,6.406,10.494-3.5-3.767-5.48Zm-18.042-15.825,8.729,16.73,7.246-1.778-8.772-14.952Zm25.823,6.953,3.283,4.776,3.915-.961-3.14-4.4Z" transform="translate(-3730 -1328)"/></g></g></g></svg>