<svg xmlns="http://www.w3.org/2000/svg" width="70" height="70" viewBox="0 0 70 70"><g transform="translate(-2152.082 -9508.407)"><circle cx="35" cy="35" r="35" transform="translate(2152.082 9508.407)" fill="#edf8f8"/><g transform="translate(2173.021 9529.347)"><path d="M3755.728,1009.5v-3.637a.909.909,0,0,0-.263-.646l-5.456-5.456a.91.91,0,0,0-.646-.264h-14.55a2.728,2.728,0,0,0-2.728,2.728v23.643a2.728,2.728,0,0,0,2.728,2.728h6.365v-1.819h-6.365a.909.909,0,0,1-.909-.909v-23.643a.909.909,0,0,1,.909-.909h13.64v3.637a1.819,1.819,0,0,0,1.819,1.819h3.637v2.728Z" transform="translate(-3732.085 -999.501)"/><path d="M3784.861,1095.958h-3.638a.909.909,0,0,0-.909.909v8.184h1.819v-2.728h2.728a1.819,1.819,0,0,0,1.819-1.819v-2.728A1.819,1.819,0,0,0,3784.861,1095.958Zm0,4.547h-2.728v-2.728h2.728Z" transform="translate(-3773.039 -1081.409)"/><path d="M3887.347,1095.958h-3.637a.909.909,0,0,0-.909.909v8.184h1.818v-2.728h2.728a1.819,1.819,0,0,0,1.819-1.819v-2.728A1.819,1.819,0,0,0,3887.347,1095.958Zm0,4.547h-2.728v-2.728h2.728Z" transform="translate(-3860.067 -1081.409)"/><path d="M3834,1099.6h-3.637v-3.637h-1.819v9.094h1.819v-3.637H3834v3.637h1.819v-9.094H3834Z" transform="translate(-3813.993 -1081.409)"/></g></g></svg>