<svg xmlns="http://www.w3.org/2000/svg" width="70" height="70" viewBox="0 0 70 70"><g transform="translate(-2152.082 -9654.33)"><circle cx="35" cy="35" r="35" transform="translate(2152.082 9654.33)" fill="#edf8f8"/><g transform="translate(2173.021 9674.619)"><g transform="translate(0 0)"><path d="M4106.945,1381.015a.575.575,0,0,1-.393-.821,1.171,1.171,0,0,0,.188-.5,7.743,7.743,0,0,0-.258-2.62c-.109-.267-1.813-.29-1.883-.1a6.388,6.388,0,0,0-.363,2.82c.059.514.671,1.052,1.158,1.413a6.342,6.342,0,0,0,5.978,1.013c3.331-1.07,4.332-4.216,2.249-7.018a15.724,15.724,0,0,1-1.715-2.112c-.359-.729-.732-1.914-.39-2.408a2.689,2.689,0,0,1,2.378-.96,25.341,25.341,0,0,1,4.37,2.8c.188.133.23.636.166.93-.891,4.106-1.678,8.242-2.8,12.287a13.192,13.192,0,0,1-2.537,4.333c-.448.571-1.515.656-2.3.962-.111-.63-.071-.819.045-.906a1.576,1.576,0,0,0,.29-2.617,1.935,1.935,0,0,0-2.9.061c-1.416,1.261-.71,3.546,1.311,4.121,2.42.689,4.5-.213,6.324-1.717a16.257,16.257,0,0,0,5.288-8.767c.593-2.28,1.049-4.6,1.491-6.561a23.165,23.165,0,0,0,4.825-1.155c.851-.406,1.389-1.617,1.859-2.569.129-.261-.391-1.061-.8-1.3a1.45,1.45,0,0,0-1.376.2,1.654,1.654,0,0,0-.4,1.461c.7,1.335-.2,1.68-1.1,1.883a19.087,19.087,0,0,1-2.907.2c.4-1.847.633-3.478,1.129-5.024a13.328,13.328,0,0,1,1.8-3.8,2.338,2.338,0,0,1,3.4-.7c-.146.338-.314.545-.311.75.01.678-.147,1.534.2,1.979a1.882,1.882,0,0,0,1.8.352,2.476,2.476,0,0,0,1.142-1.7c.141-1.412-.86-2.179-2.113-2.49-3.161-.786-5.636.538-7.482,2.926a53.4,53.4,0,0,0-3.344,5.45,31.842,31.842,0,0,0-5.584-2.673,4.626,4.626,0,0,0-5.142,2.23c-1.117,1.688-.958,3.547.424,5.387.545.725,1.246,1.332,1.809,2.045a1.9,1.9,0,0,1-1,3.208A6.663,6.663,0,0,1,4106.945,1381.015Z" transform="translate(-4104.202 -1362.514)"/><path d="M4106.222,1380.881a10.856,10.856,0,0,0,3.237.433,1.9,1.9,0,0,0,1-3.208c-.563-.713-1.264-1.32-1.809-2.045-1.382-1.84-1.541-3.7-.424-5.387a4.626,4.626,0,0,1,5.142-2.23,31.842,31.842,0,0,1,5.584,2.673,53.4,53.4,0,0,1,3.344-5.45c1.846-2.387,4.321-3.711,7.482-2.926,1.252.311,2.253,1.078,2.113,2.49a2.476,2.476,0,0,1-1.142,1.7,1.882,1.882,0,0,1-1.8-.352c-.347-.444-.19-1.3-.2-1.979,0-.205.164-.413.311-.75a2.338,2.338,0,0,0-3.4.7,13.328,13.328,0,0,0-1.8,3.8c-.5,1.547-.728,3.177-1.129,5.024a19.087,19.087,0,0,0,2.907-.2c.9-.2,1.8-.548,1.1-1.883a1.654,1.654,0,0,1,.4-1.461,1.45,1.45,0,0,1,1.376-.2c.407.238.927,1.038.8,1.3-.471.952-1.009,2.162-1.859,2.569a23.165,23.165,0,0,1-4.825,1.155c-.442,1.965-.9,4.281-1.491,6.561a16.257,16.257,0,0,1-5.288,8.767c-1.824,1.5-3.9,2.405-6.324,1.717-2.021-.575-2.727-2.859-1.311-4.121a1.935,1.935,0,0,1,2.9-.061,1.576,1.576,0,0,1-.29,2.617.245.245,0,0,0-.088.134.491.491,0,0,0,.618.588,3.332,3.332,0,0,0,1.725-.777,13.192,13.192,0,0,0,2.537-4.333c1.117-4.045,1.9-8.181,2.8-12.287.064-.294.021-.8-.166-.93a25.341,25.341,0,0,0-4.37-2.8,2.689,2.689,0,0,0-2.378.96c-.342.493.031,1.679.39,2.408a15.724,15.724,0,0,0,1.715,2.112c2.083,2.8,1.082,5.948-2.249,7.018a6.342,6.342,0,0,1-5.978-1.013c-.487-.361-1.1-.9-1.158-1.413a6.388,6.388,0,0,1,.363-2.82c.07-.193,1.773-.17,1.883.1a7.743,7.743,0,0,1,.258,2.62C4106.746,1379.9,4106.572,1380.1,4106.222,1380.881Z" transform="translate(-4104.202 -1362.514)"/></g></g></g></svg>