<svg xmlns="http://www.w3.org/2000/svg" width="70" height="70" viewBox="0 0 70 70"><g transform="translate(-2613.621 -9508.407)"><circle cx="35" cy="35" r="35" transform="translate(2613.621 9508.407)" fill="#edf8f8"/><g transform="translate(2627.838 9536.213)"><path d="M4068.594,1939.66a1.62,1.62,0,1,0-2.784-1.615h0s-1.062,1.51-1.841,6c-.338,1.964-.7,4.008-.7,4.008-.962-1.964-1.6-6.292-1.964-7.093-1.683-1.723-2.725.561-2.725.561l-1.369,2.558-2.76,5.016-1.828-9.987h0a1.581,1.581,0,0,0-3.14.269,1.518,1.518,0,0,0,.055.391c.235,1.665,1.191,8.276,2.03,11.171.924,3.2,1.924,6.226,3.813,3.406l0,.007.056-.1c.058-.089.114-.165.174-.267.112-.19.2-.37.285-.548.834-1.495,2.489-4.516,3.442-6.666,0,0,1.443,4.889,3.728,7.374s3,.481,3.166,0c.04-.842.229-11.007,2.36-14.48C4068.6,1939.66,4068.6,1939.66,4068.594,1939.66Z" transform="translate(-4049.484 -1937.07)"/><path d="M4177.44,1949.833l0,0s-.047.013-.115.035l-.042.013-.042.015a2.512,2.512,0,0,0-.564.253v0c-1.25.66-3.646,2.589-4.086,7.818.11,3.837,2.2,5.239,3.488,5.742a3.048,3.048,0,0,0,.514.167,3.626,3.626,0,0,0,.487.1v-.017c1.108.134,2.943-.08,4.568-2.348,2.525-3.527,2.285-7.936.421-10.24A4.41,4.41,0,0,0,4177.44,1949.833Zm.175,10.833a.947.947,0,0,1-.673-.2,4.077,4.077,0,0,1-1.105-3.9,4.361,4.361,0,0,1,2.4-3.43,1.122,1.122,0,0,1,1.09.139,2.872,2.872,0,0,1,.917,2.329C4180.356,1958.087,4179.4,1960.338,4177.615,1960.666Z" transform="translate(-4153.672 -1947.746)"/><path d="M4258.441,1951.37a4.407,4.407,0,0,0-4.626-1.539l0,0s-.047.013-.114.035l-.042.013-.042.015a2.526,2.526,0,0,0-.565.253s0,0,0,0c-1.249.661-3.645,2.59-4.086,7.818.111,3.837,2.2,5.24,3.486,5.742a3.12,3.12,0,0,0,.515.166,3.637,3.637,0,0,0,.488.1v-.015c1.108.134,2.943-.08,4.568-2.348C4260.546,1958.082,4260.306,1953.674,4258.441,1951.37Zm-4.452,9.294a.949.949,0,0,1-.675-.2,4.08,4.08,0,0,1-1.105-3.9,4.364,4.364,0,0,1,2.4-3.43,1.12,1.12,0,0,1,1.089.139,2.872,2.872,0,0,1,.918,2.329C4256.731,1958.085,4255.77,1960.336,4253.989,1960.664Z" transform="translate(-4218.311 -1947.744)"/></g></g></svg>