<svg xmlns="http://www.w3.org/2000/svg" width="70" height="70" viewBox="0 0 70 70"><g transform="translate(-2350.082 -9802.241)"><circle cx="35" cy="35" r="35" transform="translate(2350.082 9802.241)" fill="#edf8f8"/><g transform="translate(2369.911 9823.766)"><path d="M3769.363,1599.606a3.975,3.975,0,0,0-4.209-.711,3.894,3.894,0,0,0-2.215,3.813,7.658,7.658,0,0,0,1.166,3.183c.839,1.7,1.8,3.626,1.481,5.713l-3.439,9.444-6.075-17.185h1.388l3.288,9.327a1.169,1.169,0,0,0,2.2-.781l-3.02-8.546h.921a1.166,1.166,0,0,0,0-2.332h-7.718a1.166,1.166,0,0,0,0,2.332h.466l1.551,4.36-4.582,12.825-6.063-17.185h1.376l3.3,9.327a1.163,1.163,0,1,0,2.193-.775l0-.006-3.02-8.546h.933a1.166,1.166,0,0,0,0-2.332h-7.718a1.166,1.166,0,0,0,0,2.332h.466l7.438,21.068a1.166,1.166,0,0,0,1.1.781h0a1.165,1.165,0,0,0,1.1-.77l4.71-13.221,4.664,13.2a1.166,1.166,0,0,0,1.1.781h0a1.165,1.165,0,0,0,1.1-.769l4.512-12.627v-.058l1.9-5.328.711-2.134A4.663,4.663,0,0,0,3769.363,1599.606Zm-1.166,4.442-1.049,3.008c-.326-.816-.688-1.551-1.014-2.215a7.33,7.33,0,0,1-.863-2.145,1.714,1.714,0,0,1,.782-1.679,1.352,1.352,0,0,1,.571-.116,1.737,1.737,0,0,1,1.166.431,2.482,2.482,0,0,1,.373,2.716Z" transform="translate(-3740.402 -1598.582)"/></g></g></svg>