<svg xmlns="http://www.w3.org/2000/svg" width="70" height="70" viewBox="0 0 70 70"><g transform="translate(-1221.2 -9802.33)"><circle cx="35" cy="35" r="35" transform="translate(1221.2 9802.33)" fill="#edf8f8"/><g transform="translate(1244.2 9822.33)"><path d="M3009.627,1306.09h-16.815a3.686,3.686,0,0,1-3.682-3.682v-22.171a3.686,3.686,0,0,1,3.682-3.681h11.028a1.1,1.1,0,0,1,.78.323l8.366,8.367a1.1,1.1,0,0,1,.323.779v16.384A3.686,3.686,0,0,1,3009.627,1306.09Zm-16.815-27.33a1.479,1.479,0,0,0-1.478,1.477v22.171a1.479,1.479,0,0,0,1.478,1.477h16.815a1.479,1.479,0,0,0,1.478-1.477V1286.48l-7.721-7.721Z" transform="translate(-2989.131 -1276.555)"/><path d="M3074.824,1287.126h-5.787a3.686,3.686,0,0,1-3.682-3.682v-5.787a1.1,1.1,0,0,1,2.2,0v5.787a1.479,1.479,0,0,0,1.478,1.478h5.787a1.1,1.1,0,0,1,0,2.2Z" transform="translate(-3051.748 -1276.555)"/><path d="M3016.767,1365.6c-.555,0-.875.312-.875.973v2.577c0,.661.32.973.881.973.778,0,.827-.594.856-.973.029-.36.36-.457.749-.457.525,0,.768.136.768.719,0,1.294-1.051,2.033-2.441,2.033a2.1,2.1,0,0,1-2.334-2.3v-2.577a2.1,2.1,0,0,1,2.334-2.3c1.39,0,2.441.7,2.441,1.935,0,.584-.243.72-.758.72-.408,0-.739-.107-.759-.457A.781.781,0,0,0,3016.767,1365.6Z" transform="translate(-3009.866 -1348.615)"/><path d="M3046.793,1369.226c0-1.176-3.086-.973-3.086-3.248,0-1.459,1.274-2.013,2.489-2.013.514,0,1.935.1,1.935.856,0,.262-.175.8-.6.8-.35,0-.535-.367-1.333-.367-.691,0-.973.282-.973.583,0,.973,3.085.788,3.085,3.238a2.148,2.148,0,0,1-2.431,2.159c-1.274,0-2.344-.622-2.344-1.264,0-.331.294-.817.661-.817.458,0,.749.72,1.654.72C3046.3,1369.865,3046.793,1369.69,3046.793,1369.226Z" transform="translate(-3033.823 -1348.361)"/><path d="M3075.823,1369.226c0-1.176-3.086-.973-3.086-3.248,0-1.459,1.274-2.013,2.489-2.013.514,0,1.935.1,1.935.856,0,.262-.175.8-.6.8-.351,0-.535-.367-1.333-.367-.69,0-.972.282-.972.583,0,.973,3.085.788,3.085,3.238a2.148,2.148,0,0,1-2.431,2.159c-1.274,0-2.344-.622-2.344-1.264,0-.331.294-.817.661-.817.458,0,.749.72,1.654.72C3075.327,1369.865,3075.823,1369.69,3075.823,1369.226Z" transform="translate(-3057.671 -1348.361)"/></g></g></svg>