<svg xmlns="http://www.w3.org/2000/svg" width="70" height="70" viewBox="0 0 70 70"><g transform="translate(-1419.2 -9802.241)"><circle cx="35" cy="35" r="35" transform="translate(1419.2 9802.241)" fill="#edf8f8"/><g transform="translate(1441.715 9819.293)"><g transform="translate(0 9.833)"><path d="M3007.175,1087.423a3.011,3.011,0,0,1-1.561-.468l-7.179-4.214a2.642,2.642,0,0,1-1.4-2.185l-2.341-15.607a3.671,3.671,0,0,1,.781-2.5,3.318,3.318,0,0,1,2.341-1.092h18.884a2.362,2.362,0,0,1,2.185,1.092,3.67,3.67,0,0,1,.78,2.5l-2.185,15.763a3.033,3.033,0,0,1-1.4,2.185l-7.335,4.058A3.008,3.008,0,0,1,3007.175,1087.423Zm-9.521-24.347a1.686,1.686,0,0,0-1.092.468,2.894,2.894,0,0,0-.312,1.093l2.185,15.763c0,.468.312.78.78,1.093l7.179,4.214a1.17,1.17,0,0,0,1.4,0l7.179-4.214a1.989,1.989,0,0,0,.78-1.093l2.341-15.763a1.317,1.317,0,0,0-.312-1.093,1.417,1.417,0,0,0-1.093-.468Z" transform="translate(-2994.689 -1061.36)"/><g transform="translate(5.463 5.15)"><path d="M3020.067,1091c-.312,0-.781-.312-.781-.624l-.78-5.619a.938.938,0,0,1,.156-.624.811.811,0,0,1,.624-.312h12.486a.78.78,0,1,1,0,1.561h-11.705l.624,4.682c.156.468-.156.78-.624.936Z" transform="translate(-3018.506 -1083.816)"/></g><g transform="translate(6.867 10.728)"><path d="M3030.249,1117.384c-.156,0-.312,0-.312-.156l-4.838-2.809a.81.81,0,0,1-.312-.624l-.156-1.561a.8.8,0,0,1,1.561-.312v1.4l4.058,2.341,4.058-2.341.625-4.526a.8.8,0,0,1,1.561.312l-.625,4.838a.812.812,0,0,1-.312.624l-4.838,2.809Z" transform="translate(-3024.63 -1108.136)"/></g><g transform="translate(6.243 10.769)"><path d="M3033.613,1109.874h-10.925a.78.78,0,0,1,0-1.561h11.081a.737.737,0,0,1,.781.78A.874.874,0,0,1,3033.613,1109.874Z" transform="translate(-3021.908 -1108.313)"/></g></g><g transform="translate(0.936 0)"><path d="M3002.83,1023.483h-3.278a.737.737,0,0,1-.78-.781v-3.433a.78.78,0,1,1,1.561,0v2.653h1.873v-2.653a.737.737,0,0,1,.781-.781c.468,0,.624.312.624.781v3.433A.737.737,0,0,1,3002.83,1023.483Z" transform="translate(-2998.772 -1018.489)"/><g transform="translate(0 3.434)"><path d="M3002.83,1038.454a1,1,0,0,1-.781-.78v-2.653h-1.717v2.653a.737.737,0,0,1-.78.78.836.836,0,0,1-.78-.78v-3.434a.737.737,0,0,1,.78-.78h3.434a.737.737,0,0,1,.78.78v3.434C3003.61,1037.986,3003.3,1038.454,3002.83,1038.454Z" transform="translate(-2998.772 -1033.46)"/></g><g transform="translate(5.463)"><g transform="translate(4.214 4.214)"><path d="M3040.962,1036.862" transform="translate(-3040.962 -1036.862)" fill="none" stroke="#000" stroke-linecap="round" stroke-linejoin="round" stroke-width="1"/></g><path d="M3026.8,1020.05h-3.433a.78.78,0,0,1,0-1.561h3.433a.78.78,0,1,1,0,1.561Z" transform="translate(-3022.589 -1018.489)"/><g transform="translate(1.717)"><path d="M3030.855,1023.483a.737.737,0,0,1-.781-.781v-3.433a.781.781,0,1,1,1.561,0v3.433A.737.737,0,0,1,3030.855,1023.483Z" transform="translate(-3030.074 -1018.489)"/></g><g transform="translate(1.717 3.434)"><path d="M3030.855,1038.454a.737.737,0,0,1-.781-.78v-3.434a.781.781,0,0,1,1.561,0v3.434A.836.836,0,0,1,3030.855,1038.454Z" transform="translate(-3030.074 -1033.46)"/></g></g><g transform="translate(18.104)"><g transform="translate(4.214 4.214)"><path d="M3096.081,1036.862" transform="translate(-3096.081 -1036.862)" fill="none" stroke="#000" stroke-linecap="round" stroke-linejoin="round" stroke-width="1"/></g><g transform="translate(0.156)"><path d="M3079.169,1023.483a.737.737,0,0,1-.781-.781v-3.433a.781.781,0,1,1,1.561,0v3.433A.836.836,0,0,1,3079.169,1023.483Z" transform="translate(-3078.388 -1018.489)"/></g><g transform="translate(0 3.434)"><path d="M3081.922,1038.454h-3.434a.737.737,0,0,1-.78-.78v-3.434a.78.78,0,0,1,1.561,0v2.653h2.653a.78.78,0,0,1,0,1.561Z" transform="translate(-3077.708 -1033.46)"/></g></g><g transform="translate(10.925)"><g transform="translate(4.214 4.214)"><path d="M3064.779,1036.862" transform="translate(-3064.779 -1036.862)" fill="none" stroke="#000" stroke-linecap="round" stroke-linejoin="round" stroke-width="1"/></g><path d="M3047.187,1023.483a.737.737,0,0,1-.78-.781v-3.433a.737.737,0,0,1,.78-.781h7.179a.737.737,0,0,1,.781.781.714.714,0,0,1-.624.78h-6.4v2.653A.989.989,0,0,1,3047.187,1023.483Z" transform="translate(-3046.406 -1018.489)"/><g transform="translate(4.214 4.214)"><path d="M3064.779,1036.862" transform="translate(-3064.779 -1036.862)" fill="none" stroke="#000" stroke-linecap="round" stroke-linejoin="round" stroke-width="1"/></g><g transform="translate(0 3.434)"><path d="M3047.187,1038.454a.737.737,0,0,1-.78-.78v-3.434a.78.78,0,0,1,1.561,0v3.434A.836.836,0,0,1,3047.187,1038.454Z" transform="translate(-3046.406 -1033.46)"/></g><g transform="translate(2.497 4.214)"><path d="M3057.293,1036.862" transform="translate(-3057.293 -1036.862)" fill="none" stroke="#000" stroke-linecap="round" stroke-linejoin="round" stroke-width="1"/></g><g transform="translate(3.59)"><path d="M3062.837,1023.483a.737.737,0,0,1-.78-.781v-3.433a.78.78,0,1,1,1.561,0v3.433A.737.737,0,0,1,3062.837,1023.483Z" transform="translate(-3062.057 -1018.489)"/></g><g transform="translate(3.59 3.434)"><path d="M3062.837,1038.454a.737.737,0,0,1-.78-.78v-3.434a.78.78,0,1,1,1.561,0v3.434A.836.836,0,0,1,3062.837,1038.454Z" transform="translate(-3062.057 -1033.46)"/></g></g></g></g></g></svg>