<svg xmlns="http://www.w3.org/2000/svg" width="70" height="70" viewBox="0 0 70 70"><g transform="translate(-1419.2 -9654.33)"><circle cx="35" cy="35" r="35" transform="translate(1419.2 9654.33)" fill="#edf8f8"/><g transform="translate(1439.372 9672.604)"><g transform="translate(0 0)"><path d="M2746.007,1042.971a2.6,2.6,0,0,1-1.287-.345l-4.1-2.423c-.611-.345-.312-.465-.113-.531a8.058,8.058,0,0,0,1.852-.843.3.3,0,0,1,.305.026l3.146,1.865a.385.385,0,0,0,.379,0l12.26-7.076a.393.393,0,0,0,.186-.332v-14.152a.4.4,0,0,0-.192-.338l-12.253-7.069a.385.385,0,0,0-.379,0l-12.246,7.076a.388.388,0,0,0-.192.339v14.145a.367.367,0,0,0,.192.325l3.359,1.938c1.825.909,2.94-.159,2.94-1.241v-13.966a.351.351,0,0,1,.359-.352h1.553a.355.355,0,0,1,.358.352v13.973c0,2.429-1.327,3.823-3.631,3.823a5.212,5.212,0,0,1-2.821-.77l-3.213-1.852a2.581,2.581,0,0,1-1.288-2.237v-14.145a2.589,2.589,0,0,1,1.288-2.237l12.247-7.076a2.688,2.688,0,0,1,2.575,0l12.26,7.082a2.581,2.581,0,0,1,1.287,2.237v14.145a2.6,2.6,0,0,1-1.287,2.237l-12.26,7.076A2.583,2.583,0,0,1,2746.007,1042.971Zm9.9-13.946c0-2.648-1.792-3.352-5.556-3.85-3.81-.5-4.2-.764-4.2-1.653,0-.737.325-1.719,3.146-1.719,2.516,0,3.445.544,3.83,2.244a.355.355,0,0,0,.345.279h1.593a.347.347,0,0,0,.259-.113.368.368,0,0,0,.093-.272c-.245-2.927-2.19-4.288-6.12-4.288-3.5,0-5.582,1.473-5.582,3.949,0,2.682,2.077,3.425,5.43,3.757,4.015.392,4.328.983,4.328,1.772,0,1.368-1.1,1.951-3.684,1.951-3.246,0-3.956-.816-4.2-2.429a.351.351,0,0,0-.352-.3h-1.586a.35.35,0,0,0-.352.352c0,2.064,1.122,4.527,6.492,4.527,3.876-.007,6.106-1.54,6.106-4.208Z" transform="translate(-2731.185 -1009.52)"/></g></g></g></svg>