<svg xmlns="http://www.w3.org/2000/svg" width="70" height="70" viewBox="0 0 70 70"><g transform="translate(-1221.2 -9508.407)"><circle cx="35" cy="35" r="35" transform="translate(1221.2 9508.407)" fill="#edf8f8"/><g transform="translate(1237.804 9527.039)"><circle cx="3.288" cy="3.288" r="3.288" transform="translate(15.115 13.045)"/><g transform="translate(0 8.867)"><path d="M2995.2,1623.764a37.211,37.211,0,0,1-11.67-1.578,14.823,14.823,0,0,1-4.807-2.574,4.656,4.656,0,0,1-1.926-3.379c0-2.174,2.384-4.3,6.386-5.691a41.361,41.361,0,0,1,23.864-.033,15.066,15.066,0,0,1,4.65,2.449,4.466,4.466,0,0,1,1.893,3.274c0,2.26-2.666,4.545-6.962,5.966A37.781,37.781,0,0,1,2995.2,1623.764Zm0-13.426a36.76,36.76,0,0,0-11.494,1.683c-3.68,1.283-5.331,3.039-5.331,4.211,0,1.218,1.775,3.137,5.665,4.467a41.7,41.7,0,0,0,22.1.006c4.041-1.343,5.888-3.261,5.888-4.473a3.051,3.051,0,0,0-1.33-2.069,13.473,13.473,0,0,0-4.152-2.174A36.243,36.243,0,0,0,2995.2,1610.339Z" transform="translate(-2976.794 -1608.767)"/></g><g transform="translate(7.116 0)"><path d="M3013.482,1600.541a3.452,3.452,0,0,1-1.755-.432c-1.88-1.087-2.535-4.218-1.742-8.376a41.442,41.442,0,0,1,11.893-20.689,14.958,14.958,0,0,1,4.447-2.8,4.463,4.463,0,0,1,3.779-.006c1.958,1.126,2.606,4.584,1.689,9.011a37.931,37.931,0,0,1-4.355,10.688,37.349,37.349,0,0,1-7.2,9.319,14.836,14.836,0,0,1-4.63,2.875A6.379,6.379,0,0,1,3013.482,1600.541Zm1.644-19.706.681.393a36.59,36.59,0,0,0-4.283,10.8c-.727,3.831-.026,6.136.982,6.719a1.941,1.941,0,0,0,.976.223c1.3,0,3.353-.825,5.724-2.895a35.807,35.807,0,0,0,6.87-8.92,36.257,36.257,0,0,0,4.178-10.217c.858-4.172.118-6.726-.937-7.335a3.062,3.062,0,0,0-2.456.118,13.37,13.37,0,0,0-3.956,2.515,36.108,36.108,0,0,0-7.1,9Z" transform="translate(-3009.655 -1567.823)"/></g><g transform="translate(7.124 0.032)"><path d="M3028.431,1600.675c-1.781,0-4.041-1.074-6.4-3.1a37.75,37.75,0,0,1-7.551-9.509h0a37.6,37.6,0,0,1-4.434-11.133,15.023,15.023,0,0,1-.209-5.252,4.454,4.454,0,0,1,1.886-3.281c1.952-1.133,5.272.033,8.651,3.039a37.812,37.812,0,0,1,7.08,9.11,37.207,37.207,0,0,1,4.479,10.891,14.971,14.971,0,0,1,.184,5.449,4.655,4.655,0,0,1-1.965,3.36A3.362,3.362,0,0,1,3028.431,1600.675Zm-12.587-13.4a36.612,36.612,0,0,0,7.217,9.1c2.954,2.541,5.3,3.091,6.313,2.5,1.054-.609,1.827-3.1,1.028-7.139a35.855,35.855,0,0,0-4.3-10.406,36.26,36.26,0,0,0-6.765-8.723c-3.182-2.829-5.763-3.464-6.817-2.855a3.054,3.054,0,0,0-1.126,2.187,13.4,13.4,0,0,0,.2,4.683,36.061,36.061,0,0,0,4.25,10.649Z" transform="translate(-3009.693 -1567.969)"/></g></g></g></svg>