<svg xmlns="http://www.w3.org/2000/svg" width="70" height="70" viewBox="0 0 70 70"><g transform="translate(-1686.182 -9508.407)"><circle cx="35" cy="35" r="35" transform="translate(1686.182 9508.407)" fill="#edf8f8"/><g transform="translate(1703.282 9534.374)"><g transform="translate(0)"><path d="M3008.946,1848.94a1.307,1.307,0,0,0-.02-1.6c.161,0,.267,0,.373,0a20.434,20.434,0,0,0,3.934-.324,4.693,4.693,0,0,0,.777-.227,1.05,1.05,0,0,0,.453-1.626,2.855,2.855,0,0,0-.866-.72,9.038,9.038,0,0,0-4.985-.943c-.318.024-.636.06-1,.095.1-.424.2-.812.29-1.2a2.277,2.277,0,0,0-.936-2.605,4.818,4.818,0,0,0-1.261-.566,3.767,3.767,0,0,0-2.651.141c-.138.061-.284.106-.428.157a.6.6,0,0,1-.108.011c-.06-.292-.11-.587-.182-.877a9.914,9.914,0,0,0-.309-1.1,3.962,3.962,0,0,0-2.944-2.5,6.079,6.079,0,0,0-1.365-.19,2.542,2.542,0,0,0-1.488.551,7.935,7.935,0,0,0-2.227,2.531c-.181.3-.36.609-.555.94-.108-.071-.205-.132-.3-.2a8.252,8.252,0,0,0-2.546-1.279,3.344,3.344,0,0,0-3.207.555,3.221,3.221,0,0,0-1.164,3.861c.109.315.276.611.437.958H2985.6a6.485,6.485,0,0,0-2.48.438,1.785,1.785,0,0,0-.6.357,1.41,1.41,0,0,0-.393.652,2.27,2.27,0,0,0,1.51,2.732,5.818,5.818,0,0,0,1.883.36c.158.008.318,0,.545,0a1.313,1.313,0,0,0-.029,1.608c-.162,0-.285.005-.407,0a6.974,6.974,0,0,1-3.239-.806,3.631,3.631,0,0,1-1.889-3.054,3.109,3.109,0,0,1,.587-2.322,3.846,3.846,0,0,1,1.93-1.193,10.616,10.616,0,0,1,1.185-.263c.154-.028.209-.07.2-.239a5.157,5.157,0,0,1,2.412-4.639,4.741,4.741,0,0,1,3.715-.66,7.56,7.56,0,0,1,2.163.778c.181.1.27.078.384-.094a8.879,8.879,0,0,1,1.59-1.833,4.877,4.877,0,0,1,4.948-1.08,5.63,5.63,0,0,1,4,3.75c.071.22.2.225.385.209a5.825,5.825,0,0,1,3.73.878,3.727,3.727,0,0,1,1.849,3.268c0,.232.125.24.285.247a11.815,11.815,0,0,1,3.036.533,6.448,6.448,0,0,1,2.322,1.208,2.81,2.81,0,0,1,.559,3.794,2.272,2.272,0,0,1-1.139.851,8.417,8.417,0,0,1-2.445.519c-.968.078-1.94.109-2.91.159C3009.2,1848.944,3009.109,1848.94,3008.946,1848.94Z" transform="translate(-2980.48 -1833.262)"/><path d="M3014.155,1890.554c-.386-.122-.727-.254-1.078-.333a3.26,3.26,0,0,0-.779-.056.449.449,0,0,0-.464.326.428.428,0,0,0,.259.5c.317.176.645.332.967.5.27.14.546.27.8.428a1.988,1.988,0,0,1,.132,3.161,2.8,2.8,0,0,1-1.568.578,4.956,4.956,0,0,1-2.191-.273.374.374,0,0,1-.294-.422c.022-.429.006-.859.006-1.328l.28.116a4.7,4.7,0,0,0,1.786.43,1.565,1.565,0,0,0,.545-.082.429.429,0,0,0,.128-.767,2.185,2.185,0,0,0-.431-.263c-.37-.185-.752-.345-1.117-.54a1.978,1.978,0,0,1-1.086-2.374,1.824,1.824,0,0,1,1.469-1.35,4.651,4.651,0,0,1,3,.29c.064.027.145.16.126.21C3014.495,1889.724,3014.323,1890.136,3014.155,1890.554Z" transform="translate(-3004.067 -1877.624)"/><path d="M3097.14,1893.7c.526.158,1,.326,1.492.439a3.369,3.369,0,0,0,.877.051.526.526,0,0,0,.537-.387.5.5,0,0,0-.324-.571c-.42-.216-.852-.409-1.275-.622a2.065,2.065,0,0,1-1.177-1.256,1.95,1.95,0,0,1,1.661-2.586,4.994,4.994,0,0,1,2.756.325c.156.063.208.135.135.3-.167.386-.316.78-.482,1.194a3.951,3.951,0,0,0-.491-.18c-.409-.091-.822-.172-1.236-.237a.656.656,0,0,0-.342.067.376.376,0,0,0-.1.671,5.041,5.041,0,0,0,.741.432c.329.172.672.318,1,.5a1.806,1.806,0,0,1,1,1.749,1.967,1.967,0,0,1-1.166,1.792,3.376,3.376,0,0,1-1.928.3,11.529,11.529,0,0,1-1.472-.327.3.3,0,0,1-.188-.2C3097.132,1894.681,3097.14,1894.2,3097.14,1893.7Z" transform="translate(-3073.874 -1877.648)"/><path d="M3037.731,1897.032a3.317,3.317,0,0,1,1.4-.415,7.337,7.337,0,0,1,1.612.02,1.616,1.616,0,0,1,1.425,1.681c.02.81-.006,1.622-.011,2.433,0,.312-.01.624,0,.936,0,.2-.086.25-.309.225a2.454,2.454,0,0,0-.623,0c-.222.032-.343-.025-.417-.21a2.244,2.244,0,0,0-.327-.539,1.563,1.563,0,0,1-.158.285,2.159,2.159,0,0,1-2.305.4,1.193,1.193,0,0,1-.154-.088,1.691,1.691,0,0,1-.651-1.66,1.277,1.277,0,0,1,.888-1.214,11.246,11.246,0,0,1,1.48-.3c.131-.024.272,0,.4-.016a2.716,2.716,0,0,0,.363-.1c-.061-.167-.078-.38-.194-.489a.658.658,0,0,0-.49-.13c-.464.071-.92.19-1.433.3Zm2.635,3.108a.713.713,0,0,0-.025-.491c-.017-.039-.034-.067-.052-.067a1.47,1.47,0,0,0-1.038.208.58.58,0,0,0-.162.665.484.484,0,0,0,.546.27A.785.785,0,0,0,3040.365,1900.14Z" transform="translate(-3025.891 -1883.955)"/><path d="M3070.306,1901.216a1.837,1.837,0,0,0-.139.126,2.056,2.056,0,0,1-2.1.614,1.3,1.3,0,0,1-1.038-1,1.575,1.575,0,0,1,1.139-2.186,11.855,11.855,0,0,1,1.653-.193c.274-.027.327-.088.246-.348a.459.459,0,0,0-.483-.371,11,11,0,0,0-1.139.191,3.463,3.463,0,0,0-.458.163l-.516-1.179a3.447,3.447,0,0,1,1.484-.424,6.974,6.974,0,0,1,1.584.043,1.6,1.6,0,0,1,1.365,1.673c.014,1.123,0,2.246.01,3.369,0,.2-.078.244-.295.222a3.708,3.708,0,0,0-.708,0,.311.311,0,0,1-.363-.217C3070.482,1901.548,3070.4,1901.4,3070.306,1901.216Zm-.228-1.006a.741.741,0,0,0-.011-.553c-.018-.042-.037-.072-.057-.073a1.444,1.444,0,0,0-1.018.2.6.6,0,0,0-.167.668.482.482,0,0,0,.546.271A.777.777,0,0,0,3070.078,1900.21Z" transform="translate(-3049.688 -1883.956)"/></g></g></g></svg>