<svg xmlns="http://www.w3.org/2000/svg" width="70" height="70" viewBox="0 0 70 70"><g transform="translate(-1419.2 -9508.407)"><circle cx="35" cy="35" r="35" transform="translate(1419.2 9508.407)" fill="#edf8f8"/><path d="M2777.531,1858.318l.033-.064a1.041,1.041,0,0,0,.075-.166l0-.007a1.64,1.64,0,0,0,.076-.859v.01a2.535,2.535,0,0,0-.332-.882l.007.011-7.526-13.237-1.149-2.01-1.142,2.01-7.521,13.237a2.624,2.624,0,0,0-.289.855v.015a1.779,1.779,0,0,0,.113,1.009l0-.011a1.143,1.143,0,0,0,.071.144l0-.006a1.86,1.86,0,0,0,1.769.852h14.009a2.144,2.144,0,0,0,1.811-.9Zm-8.813-13.185,6.877,12.1h-13.751Zm14.506,11.229-9.93-17.493a2.088,2.088,0,0,0-1.673-1.114,1.85,1.85,0,0,0-1.616,1.111l-1.284,2.25,1.142,2.01,1.769-3.131,9.823,17.239h-3.737a1.676,1.676,0,0,1-.082.86l0-.011a1.064,1.064,0,0,1-.081.178l0-.006-.033.064a2.137,2.137,0,0,1-1.8.9h5.844a2.134,2.134,0,0,0,1.8-.9,1.857,1.857,0,0,0-.151-1.956Zm-23.271,2.005a1.3,1.3,0,0,1-.063-.13l0-.009a1.74,1.74,0,0,1-.119-1.008v.01h-8.026l11.93-20.992,3.916,6.884,1.135-2.01-3.414-6.014a2.085,2.085,0,0,0-1.666-1.1,1.854,1.854,0,0,0-1.616,1.114l-12.084,21.247a2.138,2.138,0,0,0-.106,2.005,1.858,1.858,0,0,0,1.769.852h10.121a1.854,1.854,0,0,1-1.769-.852Z" transform="translate(-1312.401 7695.798)"/></g></svg>