<svg xmlns="http://www.w3.org/2000/svg" width="356.052" height="236.391" viewBox="0 0 356.052 236.391"><g transform="translate(-28.908 -165.681)"><g transform="translate(46.962 174.938)"><g transform="translate(115.296 120.192)"><g transform="translate(3.81 0)"><rect width="89.84" height="98.666" transform="translate(0 6.554) rotate(-4.183)" fill="#263238"/></g><g transform="translate(11.117 20.624)"><path d="M283.365,360.6l-1.316-29.089-78.261,7.341,2.987,30.22Z" transform="translate(-203.788 -331.514)" fill="#455a64"/></g><g transform="translate(0 87.511)"><path d="M297.4,425.159,197.1,431.9a6.347,6.347,0,0,1-6.757-5.907h0a6.347,6.347,0,0,1,5.906-6.757l100.3-6.739a6.345,6.345,0,0,1,6.757,5.906h0A6.345,6.345,0,0,1,297.4,425.159Z" transform="translate(-190.33 -412.482)" fill="#455a64"/></g></g><rect width="333.795" height="151.205" fill="#ebebeb"/><g transform="translate(0 151.205)"><path d="M50.763,344.09l8.626,4.5,316.9-.3,8.264-4.2Z" transform="translate(-50.763 -344.09)" fill="#e0e0e0"/></g></g><g transform="translate(129.978 210.047)"><g transform="translate(6.931)"><path d="M160.24,305.385l-.595-101.831H316.117V306.437Z" transform="translate(-159.646 -203.555)" fill="#455a64"/><g transform="translate(4.419 4.213)"><g transform="translate(0.344 11.451)"><path d="M193.531,289.3c6.055-.315,12.215,1.11,18.264,1.807l-3.246-.86a19.51,19.51,0,0,1,21.7-21.092c4.3.5,8.537,2.437,12.81,1.717,7.835-1.319,11.862-10.645,19.3-13.439,9.509-3.572,20.585,4.776,29.961.87,3.8-1.584,6.561-4.936,10.089-7.055,3.021-1.815,7.4-2.341,9.945-.253V229.111c-2.507,4.846-8.674,7.2-14.23,6.74-5.9-.489-11.261-3.441-16.382-6.384s-10.39-6.008-16.258-6.762c-8.346-1.071-16.44,2.657-24.536,4.938-7.309,2.059-15.183,2.949-22.477.838-.242-.07-.482-.163-.722-.245a12.378,12.378,0,0,1-3.044,2.164c-6.208,3.009-14.494-1.025-20.164,2.906-3.4,2.355-4.578,6.77-7.072,10.066-4.6,6.082-15.687,7.837-22.058,3.575v50.311l.022,6.51,3.34,0A32.255,32.255,0,0,1,193.531,289.3Zm95.848-44.873a3.331,3.331,0,0,1,1.271-.609c.06-.018.116-.05.178-.065l-.067.031a3.78,3.78,0,1,1-1.015.472Z" transform="translate(-165.412 -222.516)" fill="#fafafa"/></g><g transform="translate(43.411 38.576)"><path d="M321.422,256.7c-2.547-2.088-6.924-1.562-9.945.253-3.528,2.119-6.29,5.471-10.089,7.055-9.376,3.907-20.452-4.442-29.961-.87-7.437,2.794-11.465,12.12-19.3,13.439-4.273.72-8.506-1.214-12.81-1.717a19.51,19.51,0,0,0-21.7,21.092l3.246.86c4.717.544,9.366.644,13.846-.871,12.907-4.363,19.933-20.8,33.468-22.359,7.5-.867,15,3.309,22.445,2.04,6.042-1.029,10.852-5.411,15.844-8.967,4.907-3.5,9.807-6.822,15.38-4.779V257.1A4.981,4.981,0,0,0,321.422,256.7Z" transform="translate(-217.544 -255.352)" fill="#1cb9ff"/></g><g transform="translate(3.707 44.479)"><path d="M298.106,267.9c-4.991,3.556-9.8,7.938-15.844,8.967-7.447,1.268-14.941-2.907-22.445-2.04-13.535,1.563-20.561,18-33.468,22.359-4.48,1.514-9.129,1.414-13.846.871-6.049-.7-12.209-2.121-18.264-1.807a32.255,32.255,0,0,0-24.757,14.474l3.284,0a24.54,24.54,0,0,1,11.893-6.672,24.058,24.058,0,0,1,19.407,3.741c1.269.906,2.464,1.945,3.665,2.967l24.631.026c1.088-.615,2.179-1.225,3.293-1.791,4.461-2.266,9.555-3.836,14.45-2.8a12.618,12.618,0,0,1,7.544,4.616l26.373.028a7.242,7.242,0,0,1,4.26-3.752c1.988-.607,4.284-.378,5.985-1.575,1.98-1.394,2.351-4.1,3.159-6.388a14.7,14.7,0,0,1,16.061-9.194V263.121C307.913,261.078,303.013,264.405,298.106,267.9ZM274.8,305.529a8.3,8.3,0,0,1-8.258-14.357l-.655.3a7.513,7.513,0,0,1,2.439-1.271,7.176,7.176,0,0,1,.859-.263l-.148.069a8.314,8.314,0,0,1,5.763,15.517Zm29.257-29.915a2.218,2.218,0,0,1-2.164-3.869l-.224.1a2.034,2.034,0,0,1,.775-.371c.037-.012.071-.031.108-.04l-.04.019a2.227,2.227,0,0,1,1.545,4.156Z" transform="translate(-169.482 -262.497)" fill="#50b9e8"/></g><g transform="translate(118.245 71.695)"><path d="M321.537,304.859c-.808,2.283-1.179,4.994-3.159,6.388-1.7,1.2-4,.967-5.985,1.575a7.242,7.242,0,0,0-4.26,3.752l29.465.031V295.665A14.7,14.7,0,0,0,321.537,304.859Z" transform="translate(-308.133 -295.443)" fill="#50b9e8"/></g><g transform="translate(6.99 85.383)"><path d="M185.35,312.667a24.541,24.541,0,0,0-11.893,6.672l34.964.036c-1.2-1.023-2.4-2.061-3.665-2.967A24.058,24.058,0,0,0,185.35,312.667Z" transform="translate(-173.457 -312.012)" fill="#50b9e8"/></g><g transform="translate(66.586 87.855)"><path d="M263.341,315.331c-4.895-1.038-9.989.533-14.45,2.8-1.114.566-2.2,1.176-3.293,1.791l25.287.026A12.618,12.618,0,0,0,263.341,315.331Z" transform="translate(-245.598 -315.005)" fill="#e8505b"/></g><g transform="translate(52.595 0.008)"><path d="M250.189,216.019c-4.4.326-9.108-.431-13.023,1.609-3.505,1.827-5.636,5.544-8.5,8.229.241.083.48.174.723.245,7.294,2.111,15.168,1.222,22.476-.838,8.1-2.282,16.19-6.01,24.536-4.938,5.869.753,11.137,3.817,16.258,6.761s10.486,5.9,16.382,6.384c5.555.461,11.722-1.893,14.229-6.739V208.694h0l-63.241-.03C259.714,213.019,254.563,215.694,250.189,216.019Z" transform="translate(-228.662 -208.664)" fill="#50e88d"/></g><g transform="translate(122.971 32.628)"><path d="M314.042,253.013a3.674,3.674,0,1,0,2.534-4.773l.067-.031c-.062.015-.117.047-.178.065a3.331,3.331,0,0,0-1.271.609l.367-.171A3.835,3.835,0,0,0,314.042,253.013Z" transform="translate(-313.854 -248.151)" fill="#61ceff"/></g><g transform="translate(97.052 71.795)"><path d="M288.683,295.763l.148-.069a7.177,7.177,0,0,0-.859.263,7.511,7.511,0,0,0-2.439,1.271l.655-.3a8.231,8.231,0,1,0,2.5-1.16Z" transform="translate(-282.478 -295.563)" fill="#50b9e8"/></g><g transform="translate(97.052 71.795)" opacity="0.3"><path d="M288.683,295.763l.148-.069a7.177,7.177,0,0,0-.859.263,7.511,7.511,0,0,0-2.439,1.271l.655-.3a8.231,8.231,0,1,0,2.5-1.16Z" transform="translate(-282.478 -295.563)" fill="#fff"/></g><g transform="translate(135.072 53.386)"><path d="M332.608,274.279a2.35,2.35,0,0,0-2.446-.946l.041-.019c-.037.009-.071.028-.108.04a2.033,2.033,0,0,0-.775.371l.224-.1a2.221,2.221,0,1,0,3.065.658Z" transform="translate(-328.502 -273.279)" fill="#50b9e8"/></g><g transform="translate(0.05)"><path d="M187.408,240.961c2.494-3.3,3.676-7.711,7.072-10.066,5.67-3.931,13.956.1,20.164-2.906a12.378,12.378,0,0,0,3.044-2.164c2.868-2.684,5-6.4,8.5-8.229,3.915-2.04,8.619-1.283,13.022-1.609,4.375-.324,9.437-2.97,9.75-7.325,0-.027,0,.028,0,0h-83.91l.122,35.769c.055.038.117.068.173.1C171.722,248.8,182.807,247.043,187.408,240.961Z" transform="translate(-165.055 -208.655)" fill="#50e88d"/></g><g transform="translate(43.411 38.576)" opacity="0.3"><path d="M321.422,256.7c-2.547-2.088-6.924-1.562-9.945.253-3.528,2.119-6.29,5.471-10.089,7.055-9.376,3.907-20.452-4.442-29.961-.87-7.437,2.794-11.465,12.12-19.3,13.439-4.273.72-8.506-1.214-12.81-1.717a19.51,19.51,0,0,0-21.7,21.092l3.246.86c4.717.544,9.366.644,13.846-.871,12.907-4.363,19.933-20.8,33.468-22.359,7.5-.867,15,3.309,22.445,2.04,6.042-1.029,10.852-5.411,15.844-8.967,4.907-3.5,9.807-6.822,15.38-4.779V257.1A4.981,4.981,0,0,0,321.422,256.7Z" transform="translate(-217.544 -255.352)" fill="#fff"/></g><g transform="translate(0 0.008)" opacity="0.3"><path d="M225.488,208.664H165.055l.122,35.769c.055.038.117.068.173.1,6.372,4.262,17.457,2.506,22.058-3.575,2.494-3.3,3.676-7.711,7.072-10.066,5.67-3.931,13.956.1,20.164-2.906a12.378,12.378,0,0,0,3.044-2.164c2.868-2.684,5-6.4,8.5-8.229,3.915-2.04,8.619-1.283,13.022-1.609,4.375-.324,9.437-2.97,9.75-7.325" transform="translate(-165.055 -208.664)" fill="#fff"/></g></g><g transform="translate(39.692 23.58)"><g transform="translate(0.946 1.297)"><path d="M279.425,256.365l-5.8-22.613.07.041-64.723,16.47h0l.062-.1,5.745,22.628-.1-.06,64.754-16.362-64.714,16.524-.08.021-.021-.081c-1.808-7.115-3.748-14.748-5.75-22.626l-.021-.083.084-.021h0l64.737-16.414.056-.014.014.056Z" transform="translate(-208.839 -233.668)" fill="#263238"/></g><g transform="translate(70.423 22.714)"><rect width="1.729" height="1.729" transform="matrix(0.969, -0.246, 0.246, 0.969, 0, 0.426)" fill="#455a64"/></g><g transform="translate(5.747 39.386)"><rect width="1.729" height="1.729" transform="matrix(0.969, -0.246, 0.246, 0.969, 0, 0.426)" fill="#455a64"/></g><g transform="translate(64.654 0)"><rect width="1.729" height="1.729" transform="matrix(0.969, -0.246, 0.246, 0.969, 0, 0.426)" fill="#455a64"/></g><g transform="translate(32.024 8.288)"><rect width="1.729" height="1.729" transform="matrix(0.969, -0.246, 0.246, 0.969, 0, 0.426)" fill="#455a64"/></g><g transform="translate(37.793 31.002)"><rect width="1.729" height="1.729" transform="matrix(0.969, -0.246, 0.246, 0.969, 0, 0.426)" fill="#455a64"/></g><g transform="translate(2.777 27.692)"><rect width="1.729" height="1.729" transform="matrix(0.969, -0.246, 0.246, 0.969, 0, 0.426)" fill="#455a64"/></g><g transform="translate(67.511 11.249)"><rect width="1.729" height="1.729" transform="translate(0 0.426) rotate(-14.25)" fill="#455a64"/></g><g transform="translate(0 16.759)"><rect width="1.729" height="1.729" transform="translate(0 0.426) rotate(-14.253)" fill="#455a64"/></g><g transform="translate(11.728 9.782)"><path d="M227.112,255.187l-4.66,1.184-.561-2.209,11.93-3.03.561,2.209-4.66,1.184,3.01,11.85-2.61.663Z" transform="translate(-221.891 -245.191)" fill="#263238"/><path d="M249.784,258.274l-8.415,2.137A3.348,3.348,0,0,0,245.5,262.1a3.959,3.959,0,0,0,2.615-1.9l1.738,1.205a5.605,5.605,0,0,1-3.874,2.844c-3.6.914-6.512-.8-7.323-4a5.5,5.5,0,0,1,4.151-6.89,5.4,5.4,0,0,1,6.83,4.165C249.684,257.721,249.742,258.027,249.784,258.274Zm-8.86.475,6.087-1.546a3.013,3.013,0,0,0-3.7-1.841A3.059,3.059,0,0,0,240.924,258.749Z" transform="translate(-224.772 -245.542)" fill="#263238"/><path d="M262.159,259.709l-3.7-3.018-1.828,4.42-2.771.7,2.8-6.5-5.339-4.267,2.792-.709,3.522,2.846L259.375,249l2.712-.689-2.686,6.263,5.591,4.417Z" transform="translate(-227.009 -244.7)" fill="#263238"/><path d="M275.539,255.539a4.061,4.061,0,0,1-2.226,1.336c-2.349.6-4.012-.307-4.614-2.677l-1.311-5.162-1.768.449-.511-2.008,1.769-.449-.623-2.45,2.51-.639.623,2.45,2.871-.729.51,2.008-2.872.729,1.3,5.1a1.435,1.435,0,0,0,1.894,1.229,2.324,2.324,0,0,0,1.294-.8Z" transform="translate(-229.407 -243.94)" fill="#263238"/></g><g transform="translate(5.496 18.868)"><path d="M279.081,254.939c.012.046-14.472,3.765-32.344,8.3s-32.378,8.184-32.39,8.138,14.468-3.764,32.348-8.3S279.07,254.893,279.081,254.939Z" transform="translate(-214.347 -254.938)" fill="#263238"/></g></g><g transform="translate(156.471 17.258)"><path d="M437.565,250.183a6.205,6.205,0,0,0,1.3-1.013,6.542,6.542,0,0,0,1.6-4.332,7.407,7.407,0,0,0-.648-3.309,7.11,7.11,0,0,0-2.639-2.98,10.173,10.173,0,0,0-9.466-.482c-3.437,1.371-6.509,4.1-9.891,6.827a29.454,29.454,0,0,1-5.667,3.711,17.467,17.467,0,0,1-7.005,1.581,18.5,18.5,0,0,1-13.814-6.039,16.546,16.546,0,0,1-3.868-7.166,11.11,11.11,0,0,1,.948-8.264,9.221,9.221,0,0,1,2.942-3.1,6.874,6.874,0,0,1,4.055-1.169,5.981,5.981,0,0,1,3.782,1.729,8.244,8.244,0,0,1,2,3.569,10.242,10.242,0,0,1-.832,7.757,10.828,10.828,0,0,1-5.859,4.683,14.427,14.427,0,0,1-7.156.542,23.386,23.386,0,0,1-6.4-2.221c-3.914-1.97-7.188-4.4-10.38-6.254a26.715,26.715,0,0,0-9.171-3.686,13.939,13.939,0,0,0-7.361.739,10.858,10.858,0,0,0-3.912,2.608l-.481.532-.316.411c-.17.221-.267.329-.267.329s.072-.124.23-.354l.3-.427.468-.549a10.705,10.705,0,0,1,3.912-2.7,14.03,14.03,0,0,1,7.462-.822,26.806,26.806,0,0,1,9.287,3.661c3.218,1.847,6.5,4.261,10.386,6.2a23.086,23.086,0,0,0,6.308,2.168,14.068,14.068,0,0,0,6.961-.544,10.431,10.431,0,0,0,5.635-4.515,9.844,9.844,0,0,0,.782-7.435,7.828,7.828,0,0,0-1.9-3.385,5.558,5.558,0,0,0-3.505-1.6,6.444,6.444,0,0,0-3.8,1.1,8.783,8.783,0,0,0-2.8,2.953,10.69,10.69,0,0,0-.9,7.945,16.138,16.138,0,0,0,3.765,6.984,18.112,18.112,0,0,0,13.5,5.925,17.092,17.092,0,0,0,6.849-1.527,29.2,29.2,0,0,0,5.606-3.648c3.377-2.7,6.489-5.448,10-6.829a10.425,10.425,0,0,1,9.711.563,7.306,7.306,0,0,1,2.694,3.1,7.549,7.549,0,0,1,.63,3.4,6.561,6.561,0,0,1-1.706,4.387,3.149,3.149,0,0,1-.544.477,2.081,2.081,0,0,1-.437.286C437.7,250.126,437.565,250.183,437.565,250.183Z" transform="translate(-349.056 -224.446)" fill="#263238"/></g><g transform="translate(122.664 75.849)" opacity="0.3"><path d="M321.537,304.859c-.808,2.283-1.179,4.994-3.159,6.388-1.7,1.2-4,.967-5.985,1.575a7.242,7.242,0,0,0-4.26,3.752l29.465.031V295.665A14.7,14.7,0,0,0,321.537,304.859Z" transform="translate(-308.133 -295.443)"/></g><g transform="translate(139.491 57.599)" opacity="0.3"><path d="M332.608,274.279a2.35,2.35,0,0,0-2.446-.946l.041-.019c-.037.009-.071.028-.108.04a2.033,2.033,0,0,0-.775.371l.224-.1a2.221,2.221,0,1,0,3.065.658Z" transform="translate(-328.502 -273.279)"/></g><g transform="translate(11.409 89.596)" opacity="0.3"><path d="M185.35,312.667a24.541,24.541,0,0,0-11.893,6.672l34.964.036c-1.2-1.023-2.4-2.061-3.665-2.967A24.058,24.058,0,0,0,185.35,312.667Z" transform="translate(-173.457 -312.012)"/></g><g transform="translate(71.005 92.068)" opacity="0.3"><path d="M263.341,315.331c-4.895-1.038-9.989.533-14.45,2.8-1.114.566-2.2,1.176-3.293,1.791l25.287.026A12.618,12.618,0,0,0,263.341,315.331Z" transform="translate(-245.598 -315.005)"/></g></g><g transform="translate(48.646 124.644)"><path d="M211.156,367.2c2.271-4.076,7.509-5.506,12.172-5.346s9.261,1.5,13.922,1.285c10.653-.5,19.886-9,30.546-8.69,6.4.183,12.65,3.579,18.943,2.394,1.52-.287,3.321-.763,4.437.309a2.812,2.812,0,0,1,.1,3.5,7.57,7.57,0,0,1-3.007,2.27c-16.271,8.219-35.1,9.021-53.191,11.293-4.629.582-9.337,1.268-13.93.459s-9.155-3.413-11-7.7" transform="translate(-210.142 -354.438)" fill="#e8505b"/><g opacity="0.5"><path d="M211.156,367.2c2.271-4.076,7.509-5.506,12.172-5.346s9.261,1.5,13.922,1.285c10.653-.5,19.886-9,30.546-8.69,6.4.183,12.65,3.579,18.943,2.394,1.52-.287,3.321-.763,4.437.309a2.812,2.812,0,0,1,.1,3.5,7.57,7.57,0,0,1-3.007,2.27c-16.271,8.219-35.1,9.021-53.191,11.293-4.629.582-9.337,1.268-13.93.459s-9.155-3.413-11-7.7" transform="translate(-210.142 -354.438)"/></g></g><g transform="translate(0 44.981)"><g transform="translate(117.581)"><g transform="translate(3.938)"><path d="M355.182,323.936l-29.5-52.023-2.4-4.649a7,7,0,0,0-5.639-3.759l-4.762-.394s.351-5.518-2.225-5.081c-1.66.281-7.666,5.442-6.5,6.961s4.579-2.4,4.579-2.4l1.3,9.651s-9.047-5.264-10.5-4.956a1.362,1.362,0,0,0-.366,2.595,25.461,25.461,0,0,1,10.386,11.142l-.025.014,20.9,46.664-7.142,5.705,8.48,22.18,17.868-12.227A13.856,13.856,0,0,0,355.182,323.936Z" transform="translate(-298.356 -258.005)" fill="#ffbe9d"/></g><g transform="translate(0 3.999)"><g transform="translate(0 0)"><rect width="0.971" height="0.173" transform="matrix(0.887, 0.462, -0.462, 0.887, 0.08, 0)" fill="#263238"/></g><g transform="translate(0.585 0.286)"><path d="M294.558,263.192l3.708.1,21.1,11.607a1.59,1.59,0,0,1,.639,2.139h0a1.591,1.591,0,0,1-2.154.658l-20.941-11.19-2.545-2.895A.254.254,0,0,1,294.558,263.192Z" transform="translate(-294.297 -263.192)" fill="#263238"/></g><g transform="translate(21.192 10.369)"><path d="M321.593,275.861l-1.5,2.872-.855-.445,1.506-2.89Z" transform="translate(-319.242 -275.397)" fill="#455a64"/></g></g></g><g transform="translate(0 8.241)"><path d="M207.588,275.631c-1.482-.15-7.077,4.838-7.077,4.838l-2.766-9.972s3.708.334,4.7-1.3-9.059-1.478-9.289-.37.581,4.116.581,4.116l-3.81.734a7.482,7.482,0,0,0-6.015,6.477l-.622,5.324.107.044-29.475,49.239a18.8,18.8,0,0,0,3.809,23.854l29.528,20.977,11.018-24.02-21.828-14.339,25-48.243s5.632-14.12,6.776-14.818A1.356,1.356,0,0,0,207.588,275.631Z" transform="translate(-151.255 -267.981)" fill="#ffbe9d"/></g><g transform="translate(24.645 71.507)"><path d="M315.862,372l-.347-3.429a14.963,14.963,0,0,0-5.676-10.287h0a14.963,14.963,0,0,1-5.744-12.294l.048-1.423-15.093,9.272a32.386,32.386,0,0,0-4.494,3.659l-.033-.073s-32.249.53-79.029,7.37l-17.728-6.413,1.529,1.2c.839,4.709-.727,8.871-4.039,12.322h0a14.963,14.963,0,0,0-4.155,10.989l.145,3.444s10.579,6.9,18.285,9.493c.095.032.19.055.285.084a92.052,92.052,0,0,0,41.118,7.854c28.8-1.175,52.478-16.51,55.586-18.6C303.817,381.383,315.862,372,315.862,372Z" transform="translate(-181.088 -344.566)" fill="#f31e00"/></g><g transform="translate(43.437 82.204)"><g transform="translate(0 9.531)"><path d="M209.45,369.052a1.445,1.445,0,0,1,.316.246c.2.169.48.435.836.782a22.714,22.714,0,0,1,2.7,3.236,19.625,19.625,0,0,1,2.689,5.651,17.888,17.888,0,0,1,.636,7.631,13.632,13.632,0,0,1-1.161,3.825,24.165,24.165,0,0,1-1.9,3.185,16.642,16.642,0,0,1-4.407,4.439,14.351,14.351,0,0,1-3.817,1.8,11.037,11.037,0,0,1-1.109.291,1.42,1.42,0,0,1-.4.063c-.011-.042.524-.172,1.451-.512a15.605,15.605,0,0,0,3.7-1.89,16.826,16.826,0,0,0,4.254-4.415,24.646,24.646,0,0,0,1.848-3.138,13.381,13.381,0,0,0,1.117-3.709,17.836,17.836,0,0,0-.592-7.457,20.035,20.035,0,0,0-2.56-5.591,26.48,26.48,0,0,0-2.57-3.289A14.449,14.449,0,0,1,209.45,369.052Z" transform="translate(-203.837 -369.051)" fill="#263238"/></g><g transform="translate(0.023 28.075)" opacity="0.2"><path d="M291.752,398.428c2.333-1.669,1.174-5.06-1.42-6.284s-5.654-.484-8.38.406c-8.8,2.874-17.117,7.091-25.906,10s-18.4,4.471-27.283,1.864c-6.187-1.816-10.351-5.882-16.757-5.154-2.913.331-3.829,4.037-8.141,4.935a94.479,94.479,0,0,0,19.369,6.083A89.9,89.9,0,0,0,247.4,411.79a107.676,107.676,0,0,0,24.423-4.9A122.03,122.03,0,0,0,291.752,398.428Z" transform="translate(-203.865 -391.5)"/></g><g transform="translate(5.487 9.095)" opacity="0.2"><path d="M217.585,381.089s.764-7.829-3.955-12.565l-3.152.473S214.625,371.983,217.585,381.089Z" transform="translate(-210.479 -368.524)"/></g><g transform="translate(23.743)"><g transform="translate(3.829)"><path d="M237.224,358.381c-.163.429,1.6,18.531,1.6,18.531s9.179,12.81,23.611.34l1.741-19.738Z" transform="translate(-237.213 -357.514)" fill="#ffbe9d"/></g><g transform="translate(0 6.653)" opacity="0.2"><path d="M238.015,378.313s-4.254-7.063-5.437-12.319l3.5-.427.855.981Z" transform="translate(-232.578 -365.567)"/></g></g><g transform="translate(81.642 2.306)"><path d="M326.02,382.522a1.637,1.637,0,0,1-.351.248c-.238.15-.595.362-1.066.615a16.833,16.833,0,0,1-4.229,1.631,10.784,10.784,0,0,1-3.142.254,14.861,14.861,0,0,1-3.538-.745,15.713,15.713,0,0,1-6.789-4.617,15.033,15.033,0,0,1-2.309-3.617,25.768,25.768,0,0,1-1.286-3.771,17.154,17.154,0,0,1-.5-6.7,10.13,10.13,0,0,1,1.589-4.236,6.83,6.83,0,0,1,.759-.973c.189-.209.292-.314.3-.3a1.7,1.7,0,0,1-.237.359,9.035,9.035,0,0,0-.685,1.008,10.491,10.491,0,0,0-1.43,4.188,17.325,17.325,0,0,0,.586,6.558,26.135,26.135,0,0,0,1.286,3.7,14.847,14.847,0,0,0,2.25,3.509c3.77,4.393,9.442,5.975,13.08,5.092a18.33,18.33,0,0,0,4.216-1.483C325.485,382.775,326,382.492,326.02,382.522Z" transform="translate(-302.665 -360.305)" fill="#263238"/></g><g transform="translate(11.534 19.951)"><path d="M290.7,381.666a.7.7,0,0,1-.163.107l-.5.279-1.931,1.038c-.838.451-1.867,1-3.1,1.554s-2.6,1.269-4.189,1.888c-1.572.653-3.29,1.381-5.188,2.026-1.873.715-3.922,1.332-6.076,1.991a110.615,110.615,0,0,1-14.315,3.094A114.6,114.6,0,0,1,240.63,394.7l-3.291-.03c-1.066,0-2.1-.092-3.1-.131-2-.072-3.859-.262-5.554-.42-1.7-.129-3.218-.387-4.56-.553s-2.489-.369-3.425-.541l-2.154-.4-.558-.113a.636.636,0,0,1-.188-.054.687.687,0,0,1,.195.01l.566.072,2.166.317c.939.146,2.088.327,3.43.468s2.862.38,4.558.488c1.693.14,3.545.311,5.542.367,1,.031,2.028.114,3.091.109l3.28.012a118.632,118.632,0,0,0,14.552-1.081,114.392,114.392,0,0,0,14.266-3.049c2.149-.647,4.195-1.249,6.067-1.946,1.9-.629,3.614-1.338,5.19-1.971,1.589-.6,2.966-1.288,4.2-1.825s2.278-1.058,3.127-1.486l1.965-.965.516-.242A.643.643,0,0,1,290.7,381.666Z" transform="translate(-217.799 -381.665)" fill="#263238"/></g><g transform="translate(36.922 1.241)" opacity="0.2"><path d="M248.909,382.243A5.77,5.77,0,0,0,254.4,390.1a6.657,6.657,0,0,1,2.55.093c.967.377,1.5,1.38,2.14,2.2a7.638,7.638,0,0,0,13.659-4.355,2.685,2.685,0,0,1,.39-1.689c.829-.957,2.316-.028,3.438.557,2.851,1.486,6.683,0,8.255-2.8a8.9,8.9,0,0,0-.73-9.127,14.387,14.387,0,0,0-7.813-5.333c-1.973-.6-4.128-.964-5.671-2.333-2.226-1.974-2.429-5.318-2.472-8.292" transform="translate(-248.532 -359.016)"/></g></g><g transform="translate(63.675 38.35)"><path d="M268.887,316.567c2.02,4.425,3.071,6.981,3.38,11.7a35.327,35.327,0,0,1-6.074,22.876h0c-3.439,5.237-13.729,11.769-16.776,12.648s-15.17-6.665-17.621-15.153S226.2,335,230.37,320.17c4.275-15.2,24.753-15.742,24.753-15.742s13.753.009,16.269,7.978S268.887,316.567,268.887,316.567Z" transform="translate(-228.335 -304.428)" fill="#263238"/><g transform="translate(21.396 27.856)"><g transform="translate(0 0)"><path d="M257.292,362.8a1.181,1.181,0,0,1-.248-.116,2.054,2.054,0,0,1-.285-.171,3.024,3.024,0,0,1-.366-.27,5.626,5.626,0,0,1-1.649-2.356,7.511,7.511,0,0,1-.468-1.948,9.338,9.338,0,0,1,.072-2.3,23.7,23.7,0,0,1,1.508-5.011,23.49,23.49,0,0,0,1.494-4.962,9.171,9.171,0,0,0,.072-2.244,7.435,7.435,0,0,0-.452-1.9,5.7,5.7,0,0,0-1.586-2.319c-.514-.434-.864-.587-.85-.612a1.166,1.166,0,0,1,.251.111,2.019,2.019,0,0,1,.288.166,3.055,3.055,0,0,1,.371.263,5.578,5.578,0,0,1,1.686,2.329,7.43,7.43,0,0,1,.493,1.941,9.189,9.189,0,0,1-.051,2.3,22.912,22.912,0,0,1-1.489,5.018,24.342,24.342,0,0,0-1.513,4.957,9.282,9.282,0,0,0-.093,2.244,7.478,7.478,0,0,0,.428,1.906,5.743,5.743,0,0,0,1.549,2.345C256.96,362.615,257.306,362.775,257.292,362.8Z" transform="translate(-254.236 -338.593)" fill="#fafafa"/></g></g><g transform="translate(22.224 27.377)"><g transform="translate(0 0)"><path d="M265.266,360.385a1.2,1.2,0,0,1-.29.065,4.583,4.583,0,0,1-.852.039,5,5,0,0,1-4.735-5.27,9.079,9.079,0,0,1,.654-2.675,28.743,28.743,0,0,0,.975-2.75,12.048,12.048,0,0,0,.224-5.552,9.559,9.559,0,0,0-1.917-4.106,8.73,8.73,0,0,0-2.314-2.027c-.63-.373-1.014-.515-1-.538a1.312,1.312,0,0,1,.281.094,5.933,5.933,0,0,1,.77.362,8.352,8.352,0,0,1,2.4,2,9.572,9.572,0,0,1,2,4.169,12.11,12.11,0,0,1-.209,5.662,27.905,27.905,0,0,1-.987,2.771,8.98,8.98,0,0,0-.653,2.6,4.928,4.928,0,0,0,1.715,4.02,5.046,5.046,0,0,0,2.8,1.143A9.033,9.033,0,0,0,265.266,360.385Z" transform="translate(-256.007 -337.568)" fill="#455a64"/></g></g><g transform="translate(14.074 26.915)"><path d="M249.856,367.859c-.009.01-.105-.063-.28-.214a9.6,9.6,0,0,1-.72-.7,13.176,13.176,0,0,1-2.108-3.048,12.456,12.456,0,0,1-1.375-5.324,7.176,7.176,0,0,1,.675-3.217,13.034,13.034,0,0,1,2.1-2.807,7.858,7.858,0,0,0,1.819-2.818,5.319,5.319,0,0,0-.1-3.069c-.576-1.935-1.6-3.571-1.784-5.175a4.921,4.921,0,0,1,.634-3.623,2.624,2.624,0,0,1,.74-.7,1.14,1.14,0,0,1,.32-.151,4.056,4.056,0,0,0-.932.938,4.9,4.9,0,0,0-.481,3.489c.208,1.53,1.235,3.113,1.858,5.114a5.653,5.653,0,0,1,.125,3.289,8.153,8.153,0,0,1-1.894,2.971,12.921,12.921,0,0,0-2.053,2.713,6.883,6.883,0,0,0-.659,3.044,12.5,12.5,0,0,0,1.26,5.2,14.494,14.494,0,0,0,1.97,3.07C249.531,367.5,249.879,367.834,249.856,367.859Z" transform="translate(-245.372 -337.009)" fill="#455a64"/></g><g transform="translate(24.937 26.48)"><path d="M269.936,361.4a6.577,6.577,0,0,1,.053-1.181c.056-.757.133-1.852.166-3.205a28.4,28.4,0,0,0-1.482-10.372,17.253,17.253,0,0,0-6.239-8.239,18.067,18.067,0,0,0-3.912-1.911.852.852,0,0,1,.3.043,7.28,7.28,0,0,1,.851.223,12.011,12.011,0,0,1,2.924,1.392,16.9,16.9,0,0,1,6.473,8.343,26.832,26.832,0,0,1,1.383,10.532c-.073,1.362-.2,2.458-.3,3.212A5.851,5.851,0,0,1,269.936,361.4Z" transform="translate(-258.522 -336.483)" fill="#455a64"/></g><g transform="translate(23.004 18.398)"><path d="M262.023,336.4a10.888,10.888,0,0,1,.029-1.941,10.121,10.121,0,0,0-.681-4.495,5.111,5.111,0,0,0-3.3-2.857,11.916,11.916,0,0,0-1.889-.254,3.286,3.286,0,0,1,1.963-.042,5.141,5.141,0,0,1,3.617,2.975,9.279,9.279,0,0,1,.594,4.691A7.336,7.336,0,0,1,262.023,336.4Z" transform="translate(-256.182 -326.7)" fill="#455a64"/></g><g transform="translate(22.474 11.493)"><path d="M263.247,319.591a8.068,8.068,0,0,1-1.137-.429,6.551,6.551,0,0,0-5.521.482,8.009,8.009,0,0,1-1.045.62c-.037-.035.249-.427.883-.877a5.855,5.855,0,0,1,5.8-.506C262.928,319.213,263.277,319.55,263.247,319.591Z" transform="translate(-255.541 -318.34)" fill="#f5f5f5"/></g><g transform="translate(22.823 7.874)"><path d="M273.282,318.8a19.7,19.7,0,0,0-2.112-2.1,10.247,10.247,0,0,0-13.148.168,19.84,19.84,0,0,0-2.057,2.156,2.529,2.529,0,0,1,.392-.714,9.032,9.032,0,0,1,1.466-1.672,10.16,10.16,0,0,1,13.54-.173,9.057,9.057,0,0,1,1.509,1.633A2.55,2.55,0,0,1,273.282,318.8Z" transform="translate(-255.963 -313.959)" fill="#455a64"/></g><g transform="translate(22.573 1.076)"><path d="M268.572,305.757c.008.077-1.064.137-2.7.627a14.356,14.356,0,0,0-9.375,8.707c-.61,1.592-.748,2.656-.825,2.642a2.316,2.316,0,0,1,.05-.752,11.7,11.7,0,0,1,.49-1.993,13.667,13.667,0,0,1,9.579-8.9,11.557,11.557,0,0,1,2.025-.341A2.285,2.285,0,0,1,268.572,305.757Z" transform="translate(-255.66 -305.731)" fill="#f5f5f5"/></g><g transform="translate(19.991 1.011)"><path d="M255.084,305.654c.055.049-.454.59-1.014,1.62a8.82,8.82,0,0,0,.083,8.7c.579,1.019,1.1,1.551,1.044,1.6a4.38,4.38,0,0,1-1.3-1.442,8.368,8.368,0,0,1-.085-9.008A4.371,4.371,0,0,1,255.084,305.654Z" transform="translate(-252.535 -305.652)" fill="#455a64"/></g><g transform="translate(11.107 4.088)"><path d="M241.816,309.377a13.842,13.842,0,0,0,.635,2.127,9.193,9.193,0,0,0,3.513,3.9,19.291,19.291,0,0,0,4.954,2.043,14.5,14.5,0,0,1,2.156.657,9.854,9.854,0,0,1-2.231-.362,16.573,16.573,0,0,1-5.109-1.974,8.806,8.806,0,0,1-3.564-4.143,5.683,5.683,0,0,1-.38-1.632A1.467,1.467,0,0,1,241.816,309.377Z" transform="translate(-241.78 -309.377)" fill="#455a64"/></g><g transform="translate(6.962 14.78)"><path d="M247.233,347.744a1.515,1.515,0,0,1-.4-.1,10.809,10.809,0,0,1-1.125-.4A15.13,15.13,0,0,1,241.938,345a14.6,14.6,0,0,1-4-5.129,13.146,13.146,0,0,1-.957-7.876,12,12,0,0,1,3.861-6.918,11.666,11.666,0,0,1,5.924-2.655,10.581,10.581,0,0,1,4.377.295,7.683,7.683,0,0,1,1.118.421,1.518,1.518,0,0,1,.368.195c-.02.047-.535-.209-1.53-.454a11.038,11.038,0,0,0-4.288-.156,11.554,11.554,0,0,0-5.708,2.653,11.729,11.729,0,0,0-3.7,6.7,12.916,12.916,0,0,0,.895,7.634,14.643,14.643,0,0,0,3.831,5.059,16.413,16.413,0,0,0,3.637,2.335C246.7,347.532,247.247,347.7,247.233,347.744Z" transform="translate(-236.763 -322.32)" fill="#455a64"/></g><g transform="translate(1.463 13.267)"><path d="M244.978,356.148a2.757,2.757,0,0,1-.515-.236c-.334-.165-.821-.418-1.423-.791a27.549,27.549,0,0,1-4.74-3.655,28.182,28.182,0,0,1-7.343-11.958,18.125,18.125,0,0,1-.847-5.6,12,12,0,0,1,1.439-5.475,14.212,14.212,0,0,1,3.325-4.1,16.313,16.313,0,0,1,8.074-3.6,21.329,21.329,0,0,1,5.985-.072c.7.087,1.242.188,1.606.267a2.757,2.757,0,0,1,.549.144,2.787,2.787,0,0,1-.564-.058c-.367-.051-.909-.126-1.608-.187a22.68,22.68,0,0,0-5.917.206,16.214,16.214,0,0,0-7.866,3.605,12.664,12.664,0,0,0-4.592,9.282,17.88,17.88,0,0,0,.82,5.464,28.361,28.361,0,0,0,1.959,4.8,28.838,28.838,0,0,0,5.193,7.064,29.924,29.924,0,0,0,4.616,3.731C244.3,355.755,245,356.106,244.978,356.148Z" transform="translate(-230.107 -320.488)" fill="#455a64"/></g><g transform="translate(22.839 14.592)"><path d="M269.439,347.565a21.894,21.894,0,0,0,2.2-4.758,16.887,16.887,0,0,0,.675-5.609,15.737,15.737,0,0,0-1.822-6.631,16.007,16.007,0,0,0-9.389-7.91,8.2,8.2,0,0,0-3.773-.191c-.881.2-1.329.446-1.347.406-.007-.013.1-.078.316-.193a5.418,5.418,0,0,1,.994-.376,7.948,7.948,0,0,1,3.886.06,14.166,14.166,0,0,1,5.153,2.6,16.739,16.739,0,0,1,4.542,5.408,15.808,15.808,0,0,1,1.836,6.814,16.612,16.612,0,0,1-.78,5.717,15.81,15.81,0,0,1-1.644,3.523,8.914,8.914,0,0,1-.6.867C269.534,347.479,269.451,347.575,269.439,347.565Z" transform="translate(-255.983 -322.092)" fill="#455a64"/></g></g></g></g><g transform="translate(28.908 165.681)"><g transform="translate(262.259 0)"><g transform="translate(0.215 0.215)"><rect width="77.346" height="30.068" fill="#fafafa"/></g><path d="M423.938,180.132s-.011-.188-.016-.541-.009-.884-.016-1.559c-.008-1.379-.021-3.388-.037-5.976-.019-5.186-.046-12.684-.081-21.992l.15.149-77.341.066h0l.215-.215c0,10.513-.006,20.672-.008,30.068l-.207-.207,55.4.1,16.113.057,4.321.026,1.122.013c.254,0,.39.012.39.012s-.119.009-.364.013l-1.1.012-4.278.026-16.066.058-55.541.1h-.207v-.207c0-9.4-.006-19.555-.009-30.068v-.215h.221l77.341.066h.15v.149c-.034,9.346-.062,16.875-.081,22.082-.016,2.574-.028,4.571-.036,5.942-.007.664-.012,1.174-.017,1.533C423.948,179.964,423.938,180.132,423.938,180.132Z" transform="translate(-346.376 -149.849)" fill="#263238"/><g transform="translate(0.215 0.215)"><rect width="77.346" height="6.443" fill="#263238"/></g><g transform="translate(9.407 11.571)"><rect width="7.596" height="7.596" fill="#263238"/></g><g transform="translate(14.008 16.171)"><rect width="7.596" height="7.596" fill="#263238"/></g><g transform="translate(27.513 11.571)"><rect width="7.596" height="7.596" fill="#263238"/></g><g transform="translate(31.85 15.953)"><g transform="translate(0.263 0.219)"><rect width="7.596" height="7.596" fill="#f5f5f5"/></g><path d="M392.79,176.975a3.668,3.668,0,0,1-.043-.585c-.013-.428-.029-.945-.049-1.564-.035-1.336-.076-3.21-.094-5.447l.186.186-7.6.029.214-.214v1.033l0,1.016q0,1-.006,1.963c-.007,1.271-.015,2.472-.021,3.584l-.186-.186c2.237.018,4.111.059,5.447.094l1.564.049a3.647,3.647,0,0,1,.585.043,2.175,2.175,0,0,1-.508.042l-1.522.049c-1.323.035-3.247.077-5.566.1l-.185,0v-.188c-.007-1.112-.014-2.313-.021-3.584q0-.958-.006-1.963l0-1.016V169.38c-.192.192.261-.263.216-.216l7.6.03h.188l0,.186c-.018,2.319-.06,4.243-.1,5.565-.019.6-.035,1.106-.049,1.522A2.172,2.172,0,0,1,392.79,176.975Z" transform="translate(-384.931 -169.16)" fill="#263238"/></g><g transform="translate(44.143 11.353)"><g transform="translate(0.263 0.218)"><rect width="7.596" height="7.596" fill="#f5f5f5"/></g><path d="M407.671,171.406a3.639,3.639,0,0,1-.043-.585c-.013-.428-.029-.945-.049-1.564-.035-1.336-.076-3.21-.094-5.447l.186.186-7.6.03c-.048.046.406-.407.214-.214v1.033q0,.512,0,1.015c0,.669,0,1.325-.006,1.964-.007,1.27-.015,2.472-.021,3.583l-.186-.186c2.237.018,4.111.06,5.447.095l1.564.048a3.664,3.664,0,0,1,.585.043,2.178,2.178,0,0,1-.508.042l-1.522.049c-1.323.035-3.247.077-5.566.1l-.185,0v-.188c-.007-1.111-.014-2.313-.021-3.583,0-.639,0-1.294-.006-1.964l0-1.015v-1.033c-.192.192.261-.264.216-.216l7.6.029h.188l0,.185c-.018,2.32-.06,4.243-.1,5.566-.019.6-.035,1.105-.049,1.522A2.182,2.182,0,0,1,407.671,171.406Z" transform="translate(-399.812 -163.592)" fill="#263238"/><g transform="translate(4.6 4.6)"><g transform="translate(0.263 0.219)"><rect width="7.596" height="7.596" fill="#f5f5f5"/></g><path d="M413.24,176.975a3.657,3.657,0,0,1-.043-.585c-.013-.428-.03-.945-.049-1.564-.035-1.336-.077-3.21-.095-5.447l.186.186-7.594.029.214-.214v1.033q0,.513,0,1.016,0,1-.006,1.963c-.007,1.271-.015,2.472-.022,3.584l-.186-.186c2.237.018,4.111.059,5.447.094l1.564.049a3.661,3.661,0,0,1,.585.043,2.177,2.177,0,0,1-.508.042l-1.522.049c-1.323.035-3.247.077-5.565.1l-.185,0,0-.188c-.007-1.112-.013-2.313-.021-3.584q0-.958,0-1.963l0-1.016V169.38l.216-.216,7.594.03h.188v.186c-.018,2.319-.06,4.243-.095,5.565-.019.6-.036,1.106-.049,1.522A2.173,2.173,0,0,1,413.24,176.975Z" transform="translate(-405.38 -169.16)" fill="#263238"/></g><g transform="translate(4.863 4.819)"><rect width="2.996" height="2.996" fill="#263238"/></g></g><g transform="translate(59.937 11.571)"><rect width="7.596" height="7.596" fill="#263238"/><g transform="translate(4.6 4.6)"><rect width="7.596" height="7.596" fill="#263238"/></g><g transform="translate(4.6 4.6)"><rect width="2.996" height="2.996" fill="#fafafa"/></g></g></g><g transform="translate(280.683 91.827)"><rect width="74.332" height="28.897" transform="translate(0.103 0.104)" fill="#fafafa"/><path d="M443.218,290.111H368.679v-29.1h74.539Zm-74.333-.206h74.126V261.214H368.885Z" transform="translate(-368.679 -261.007)" fill="#222221"/><g transform="translate(0.103 0.104)"><rect width="74.332" height="6.192" fill="#263238"/></g><g transform="translate(4.03 13.806)"><g transform="translate(0.263 0.218)"><rect width="7.344" height="7.344" fill="#f5f5f5"/></g><path d="M381.164,285.282a3.5,3.5,0,0,1-.042-.566c-.013-.417-.03-.918-.049-1.513-.035-1.291-.077-3.1-.1-5.265l.186.186-7.343.03c-.048.046.406-.407.215-.214v1c0,.33,0,.658,0,.982q0,.97-.006,1.9c-.007,1.228-.015,2.389-.021,3.464l-.186-.186c2.162.018,3.974.06,5.265.1l1.513.049a3.509,3.509,0,0,1,.566.042,17.942,17.942,0,0,1-1.96.092c-1.279.035-3.139.076-5.384.1h-.185v-.188c-.007-1.075-.014-2.236-.021-3.464q0-.927-.006-1.9l0-.982v-1c-.193.192.262-.263.216-.216l7.343.029h.188v.185c-.019,2.244-.06,4.1-.1,5.384A17.95,17.95,0,0,1,381.164,285.282Z" transform="translate(-373.557 -277.72)" fill="#263238"/><g transform="translate(0.259 0.215)"><g transform="translate(0.003 0.003)"><line x1="7.344" y2="7.344" fill="#fafafa"/></g><path d="M373.874,285.327a62.836,62.836,0,0,1,7.344-7.344,62.661,62.661,0,0,1-7.344,7.344Z" transform="translate(-373.871 -277.98)" fill="#e8505b"/></g></g><g transform="translate(13.849 14.025)"><rect width="7.344" height="7.344" fill="#263238"/></g><g transform="translate(23.405 14.025)"><rect width="7.344" height="7.344" fill="#455a64"/></g><g transform="translate(32.961 14.025)"><rect width="7.344" height="7.344" fill="#50b9e8"/></g><g transform="translate(42.518 14.025)"><rect width="7.344" height="7.344" fill="#50b9e8"/></g><g transform="translate(42.518 14.025)" opacity="0.5"><g transform="translate(0)"><rect width="7.344" height="7.344" fill="#fff"/></g></g><g transform="translate(52.074 14.025)"><rect width="7.344" height="7.344" fill="#50b9e8"/></g><g transform="translate(52.074 14.025)" opacity="0.3"><rect width="7.344" height="7.344"/></g><g transform="translate(61.63 14.025)"><rect width="7.344" height="7.344" fill="#50b9e8"/></g><g transform="translate(61.63 14.025)" opacity="0.7"><rect width="7.344" height="7.344"/></g></g><g transform="translate(80.212 24.991)"><g transform="translate(0.215 0.215)"><rect width="45.75" height="78.47" fill="#fafafa"/></g><path d="M171.97,258.786s-.008-.135-.012-.387-.007-.635-.012-1.12c-.006-1-.014-2.446-.025-4.326-.012-3.781-.031-9.28-.054-16.214-.024-13.862-.058-33.453-.1-56.422l.2.2-45.744.015h-.006l.216-.215c-.019,29.934-.036,57.388-.05,78.47l-.166-.166,33.354.088,9.164.042,2.4.018c.543.006.831.017.831.017s-.264.012-.8.018l-2.37.018-9.127.042-33.456.088h-.166v-.167c-.013-21.082-.031-48.536-.049-78.47V180.1h.221l45.744.015h.2v.2c-.04,23.024-.074,42.66-.1,56.554-.023,6.915-.041,12.4-.055,16.168-.01,1.864-.018,3.3-.024,4.286,0,.475-.009.839-.012,1.1S171.97,258.786,171.97,258.786Z" transform="translate(-126.005 -180.101)" fill="#222221"/><g transform="translate(0.215 0.215)"><rect width="45.75" height="6.612" fill="#263238"/></g><g transform="translate(5.228 15.078)"><g transform="translate(5.982 0.001)"><path d="M139.574,198.354l.553,7.326,2.047-2.671,3.421-.142Z" transform="translate(-139.574 -198.354)" fill="#263238"/></g><g transform="translate(25.751)"><path d="M163.508,198.354c-.007-.012.145.093.432.3l1.251.9c1.077.773,2.631,1.889,4.413,3.217l.277.206-.345.015-3.3.144-.119,0,.1-.05c-.721.936-1.412,1.834-2.053,2.667l-.2.254-.023-.319c-.157-2.17-.259-4.035-.33-5.327-.031-.574-.059-1.07-.082-1.5-.018-.344-.026-.523-.02-.511s.028.216.064.578c.042.439.09.948.147,1.537.125,1.3.3,3.1.465,5.2l-.219-.065,2.042-2.676.036-.048.06,0,.119,0,3.3-.131-.069.221c-1.719-1.3-3.176-2.437-4.235-3.264l-1.248-.974C163.679,198.5,163.515,198.366,163.508,198.354Z" transform="translate(-163.505 -198.353)" fill="#263238"/></g><g transform="translate(4.651 21.213)"><path d="M137.964,234.7c-.051-.05,2.227-2.477,5.089-5.422s5.223-5.292,5.274-5.242-2.226,2.477-5.089,5.423S138.015,234.746,137.964,234.7Z" transform="translate(-137.963 -224.032)" fill="#263238"/></g><g transform="translate(23.028 19.549)"><path d="M173.594,228.941a13,13,0,0,0-.251-1.632,6.826,6.826,0,0,0-2.387-3.69,6.48,6.48,0,0,0-2.77-1.27,6.391,6.391,0,0,0-3.465.308,6.475,6.475,0,0,0-3.017,2.362,6.832,6.832,0,0,0,0,7.843,6.468,6.468,0,0,0,3.017,2.362,6.383,6.383,0,0,0,3.465.308,6.456,6.456,0,0,0,2.77-1.27,6.823,6.823,0,0,0,2.387-3.69,13.064,13.064,0,0,0,.25-1.632,5.6,5.6,0,0,1-.153,1.655,6.813,6.813,0,0,1-2.371,3.81,6.608,6.608,0,0,1-9.572-1.4,7.058,7.058,0,0,1,0-8.134,6.681,6.681,0,0,1,3.139-2.439,6.537,6.537,0,0,1,6.432,1.041,6.815,6.815,0,0,1,2.372,3.81A5.6,5.6,0,0,1,173.594,228.941Z" transform="translate(-160.209 -222.017)" fill="#263238"/></g><g transform="translate(22.401 43.9)"><path d="M167.536,251.5a.838.838,0,0,1,.164.121l.474.395,1.8,1.546.059.05-.052.059L162.3,262.5l-.031.036-.047.007-.924.14-1.666.251-.181.027.036-.178c.208-1.051.41-2.065.6-3.027l.007-.032.021-.024c2.083-2.45,3.9-4.538,5.218-5.993a13.741,13.741,0,0,1,2.206-2.209,1.467,1.467,0,0,1-.154.147c-.093.1-.241.245-.419.444-.363.392-.875.98-1.518,1.72-1.285,1.483-3.076,3.59-5.144,6.05l.026-.055-.59,3.029-.145-.152,1.665-.253.924-.14-.077.042,7.76-8.763.007.109-1.722-1.583-.458-.432A1.24,1.24,0,0,1,167.536,251.5Z" transform="translate(-159.45 -251.494)" fill="#263238"/></g><g transform="translate(2.868 43.437)"><path d="M146.69,262.1a1.588,1.588,0,0,1-.012-.216l-.013-.6q-.011-.867-.03-2.257c-.014-1.988-.034-4.716-.057-7.964l.112.112-10.726.016c-.03.027.244-.244.128-.127v1.5q0,.746,0,1.477,0,1.462,0,2.855c0,1.85-.009,3.6-.013,5.2l-.111-.111,7.743.057,2.191.029.584.013a1.508,1.508,0,0,1,.209.012.945.945,0,0,1-.184.012l-.563.012-2.165.029-7.814.057h-.111V262.1c0-1.605-.008-3.351-.013-5.2q0-1.392,0-2.855,0-.731,0-1.477v-1.5c-.116.115.156-.159.13-.131l10.726.017h.113v.112c-.023,3.276-.043,6.03-.057,8.035q-.019,1.374-.03,2.231l-.013.581A1.02,1.02,0,0,1,146.69,262.1Z" transform="translate(-135.805 -250.934)" fill="#263238"/></g><g transform="translate(0 43.44)"><path d="M136.985,251.066a21.055,21.055,0,0,1-4.652,0,21.052,21.052,0,0,1,4.652,0Z" transform="translate(-132.333 -250.937)" fill="#263238"/></g><g transform="translate(2.897 40.455)"><path d="M135.969,252.56a26.654,26.654,0,0,1,0-5.236,26.657,26.657,0,0,1,0,5.236Z" transform="translate(-135.84 -247.324)" fill="#263238"/></g></g></g><g transform="translate(9.679 48.587)"><rect width="60.574" height="60.574" fill="#f5f5f5"/></g><g transform="translate(68.255 114.411)"><g transform="translate(0 2.528)"><circle cx="11.354" cy="11.354" r="11.354" transform="translate(0 16.057) rotate(-45)" fill="#e0e0e0"/></g><g transform="translate(3.129 0)"><g transform="translate(0)"><circle cx="9.926" cy="9.926" r="9.926" transform="translate(0 14.037) rotate(-45)" fill="#fafafa"/></g><g transform="translate(4.467 4.467)"><circle cx="9.57" cy="9.57" r="9.57" fill="#e8505b"/></g><g transform="translate(6.708 6.708)"><path d="M130.768,311.123a7.329,7.329,0,1,1,7.329-7.329A7.337,7.337,0,0,1,130.768,311.123Zm0-14.616a7.287,7.287,0,1,0,7.288,7.287A7.3,7.3,0,0,0,130.768,296.507Z" transform="translate(-123.439 -296.465)" fill="#263238"/></g><g transform="translate(9.013 7.231)" opacity="0.2"><path d="M132.032,297.216a4.74,4.74,0,1,0,3.627,5.09,4.263,4.263,0,0,0-.669-2.8,4.439,4.439,0,0,0-2.958-2.289" transform="translate(-126.229 -297.099)"/></g><g transform="translate(12.245 20.215)"><path d="M130.141,312.816l.543.746,2.919-.091.561-.655Z" transform="translate(-130.141 -312.816)" fill="#263238"/></g></g></g><g transform="translate(273.004 128.267)"><circle cx="6.06" cy="6.06" r="6.06" fill="#263238"/><g transform="translate(3.845 3.846)"><path d="M368.467,311.988a2.214,2.214,0,1,1-2.214-2.214A2.214,2.214,0,0,1,368.467,311.988Z" transform="translate(-364.038 -309.774)" fill="#455a64"/></g></g><g transform="translate(0 57.857)"><g transform="translate(1.919 2.332)"><g transform="translate(55.178 57.322)"><g transform="translate(0)"><path d="M98.025,292.3c0-.112.525-.2,1.173-.2s1.174.092,1.174.2-.525.2-1.174.2S98.025,292.414,98.025,292.3Z" transform="translate(-98.025 -292.098)" fill="#263238"/></g></g><g transform="translate(50.484 57.322)"><g transform="translate(0)"><path d="M92.343,292.3c0-.112.525-.2,1.173-.2s1.174.092,1.174.2-.525.2-1.174.2S92.343,292.414,92.343,292.3Z" transform="translate(-92.343 -292.098)" fill="#263238"/></g></g><g transform="translate(45.79 57.322)"><g transform="translate(0)"><path d="M86.661,292.3c0-.112.525-.2,1.174-.2s1.173.092,1.173.2-.525.2-1.173.2S86.661,292.414,86.661,292.3Z" transform="translate(-86.661 -292.098)" fill="#263238"/></g></g><g transform="translate(41.097 57.322)"><g transform="translate(0)"><path d="M80.98,292.3c0-.112.525-.2,1.173-.2s1.174.092,1.174.2-.525.2-1.174.2S80.98,292.414,80.98,292.3Z" transform="translate(-80.98 -292.098)" fill="#263238"/></g></g><g transform="translate(36.403 57.322)"><path d="M75.3,292.3c0-.112.525-.2,1.173-.2s1.174.092,1.174.2-.525.2-1.174.2S75.3,292.414,75.3,292.3Z" transform="translate(-75.298 -292.098)" fill="#263238"/></g><g transform="translate(31.71 57.322)"><path d="M69.616,292.3c0-.112.525-.2,1.174-.2s1.173.092,1.173.2-.525.2-1.173.2S69.616,292.414,69.616,292.3Z" transform="translate(-69.616 -292.098)" fill="#263238"/></g><g transform="translate(27.016 57.322)"><path d="M63.934,292.3c0-.112.525-.2,1.174-.2s1.173.092,1.173.2-.525.2-1.173.2S63.934,292.414,63.934,292.3Z" transform="translate(-63.934 -292.098)" fill="#263238"/></g><g transform="translate(22.323 57.322)"><path d="M58.253,292.3c0-.112.525-.2,1.173-.2s1.174.092,1.174.2-.525.2-1.174.2S58.253,292.414,58.253,292.3Z" transform="translate(-58.253 -292.098)" fill="#263238"/></g><g transform="translate(17.629 57.322)"><path d="M52.571,292.3c0-.112.525-.2,1.173-.2s1.174.092,1.174.2-.525.2-1.174.2S52.571,292.414,52.571,292.3Z" transform="translate(-52.571 -292.098)" fill="#263238"/></g><g transform="translate(12.935 57.322)"><path d="M46.889,292.3c0-.112.525-.2,1.174-.2s1.173.092,1.173.2-.525.2-1.173.2S46.889,292.414,46.889,292.3Z" transform="translate(-46.889 -292.098)" fill="#263238"/></g><g transform="translate(8.242 57.322)"><path d="M41.208,292.3c0-.112.525-.2,1.173-.2s1.173.092,1.173.2-.525.2-1.173.2S41.208,292.414,41.208,292.3Z" transform="translate(-41.208 -292.098)" fill="#263238"/></g><g transform="translate(3.548 57.322)"><path d="M35.526,292.3c0-.112.525-.2,1.173-.2s1.174.092,1.174.2-.525.2-1.174.2S35.526,292.414,35.526,292.3Z" transform="translate(-35.526 -292.098)" fill="#263238"/></g><g transform="translate(0 56.176)"><path d="M31.434,290.711c.112,0,.2.525.2,1.174l0,.176-.2-.2c.566.015,1,.1,1,.2s-.432.186-1,.2l-.2.006,0-.207,0-.176C31.231,291.236,31.322,290.711,31.434,290.711Z" transform="translate(-31.231 -290.711)" fill="#263238"/></g><g transform="translate(0 51.483)"><path d="M31.434,285.03c.112,0,.2.525.2,1.173s-.092,1.174-.2,1.174-.2-.525-.2-1.174S31.322,285.03,31.434,285.03Z" transform="translate(-31.231 -285.03)" fill="#263238"/></g><g transform="translate(0 46.789)"><path d="M31.434,279.348c.112,0,.2.525.2,1.173s-.092,1.174-.2,1.174-.2-.525-.2-1.174S31.322,279.348,31.434,279.348Z" transform="translate(-31.231 -279.348)" fill="#263238"/></g><g transform="translate(0 42.095)"><path d="M31.434,273.666c.112,0,.2.525.2,1.174s-.092,1.173-.2,1.173-.2-.525-.2-1.173S31.322,273.666,31.434,273.666Z" transform="translate(-31.231 -273.666)" fill="#263238"/></g><g transform="translate(0 37.402)"><path d="M31.434,267.985c.112,0,.2.525.2,1.173s-.092,1.173-.2,1.173-.2-.525-.2-1.173S31.322,267.985,31.434,267.985Z" transform="translate(-31.231 -267.985)" fill="#263238"/></g><g transform="translate(0 32.708)"><path d="M31.434,262.3c.112,0,.2.525.2,1.173s-.092,1.174-.2,1.174-.2-.525-.2-1.174S31.322,262.3,31.434,262.3Z" transform="translate(-31.231 -262.303)" fill="#263238"/></g><g transform="translate(0 28.015)"><path d="M31.434,256.621c.112,0,.2.525.2,1.173s-.092,1.174-.2,1.174-.2-.525-.2-1.174S31.322,256.621,31.434,256.621Z" transform="translate(-31.231 -256.621)" fill="#263238"/></g><g transform="translate(0 23.321)"><path d="M31.434,250.939c.112,0,.2.525.2,1.174s-.092,1.173-.2,1.173-.2-.525-.2-1.173S31.322,250.939,31.434,250.939Z" transform="translate(-31.231 -250.939)" fill="#263238"/></g><g transform="translate(0 18.628)"><path d="M31.434,245.258c.112,0,.2.525.2,1.173s-.092,1.173-.2,1.173-.2-.525-.2-1.173S31.322,245.258,31.434,245.258Z" transform="translate(-31.231 -245.258)" fill="#263238"/></g><g transform="translate(0 13.934)"><path d="M31.434,239.576c.112,0,.2.525.2,1.173s-.092,1.174-.2,1.174-.2-.525-.2-1.174S31.322,239.576,31.434,239.576Z" transform="translate(-31.231 -239.576)" fill="#263238"/></g><g transform="translate(0 9.24)"><path d="M31.434,233.894c.112,0,.2.525.2,1.173s-.092,1.174-.2,1.174-.2-.525-.2-1.174S31.322,233.894,31.434,233.894Z" transform="translate(-31.231 -233.894)" fill="#263238"/></g><g transform="translate(0 4.546)"><path d="M31.434,228.212c.112,0,.2.525.2,1.174s-.092,1.173-.2,1.173-.2-.525-.2-1.173S31.322,228.212,31.434,228.212Z" transform="translate(-31.231 -228.212)" fill="#263238"/></g><g transform="translate(0 0.039)"><path d="M31.786,222.921c0,.057-.135.108-.352.145l.145-.145a5.1,5.1,0,0,1,.059.822c0,.648-.092,1.174-.2,1.174s-.2-.525-.2-1.174a5.212,5.212,0,0,1,.058-.822l.029-.165.116.02C31.651,222.813,31.786,222.864,31.786,222.921Z" transform="translate(-31.231 -222.756)" fill="#263238"/></g><g transform="translate(2.901)"><path d="M37.09,222.913c0,.112-.525.2-1.173.2s-1.174-.092-1.174-.2.525-.2,1.174-.2S37.09,222.8,37.09,222.913Z" transform="translate(-34.743 -222.709)" fill="#263238"/></g><g transform="translate(7.595)"><path d="M42.772,222.913c0,.112-.525.2-1.173.2s-1.174-.092-1.174-.2.525-.2,1.174-.2S42.772,222.8,42.772,222.913Z" transform="translate(-40.425 -222.709)" fill="#263238"/></g><g transform="translate(12.289)"><path d="M48.454,222.913c0,.112-.525.2-1.174.2s-1.173-.092-1.173-.2.525-.2,1.173-.2S48.454,222.8,48.454,222.913Z" transform="translate(-46.107 -222.709)" fill="#263238"/></g><g transform="translate(16.983)"><path d="M54.136,222.913c0,.112-.525.2-1.174.2s-1.173-.092-1.173-.2.525-.2,1.173-.2S54.136,222.8,54.136,222.913Z" transform="translate(-51.789 -222.709)" fill="#263238"/></g><g transform="translate(21.676)"><path d="M59.817,222.913c0,.112-.525.2-1.173.2s-1.174-.092-1.174-.2.525-.2,1.174-.2S59.817,222.8,59.817,222.913Z" transform="translate(-57.47 -222.709)" fill="#263238"/></g><g transform="translate(26.37)"><path d="M65.5,222.913c0,.112-.525.2-1.173.2s-1.174-.092-1.174-.2.525-.2,1.174-.2S65.5,222.8,65.5,222.913Z" transform="translate(-63.152 -222.709)" fill="#263238"/></g><g transform="translate(31.064)"><path d="M71.181,222.913c0,.112-.525.2-1.174.2s-1.173-.092-1.173-.2.525-.2,1.173-.2S71.181,222.8,71.181,222.913Z" transform="translate(-68.834 -222.709)" fill="#263238"/></g><g transform="translate(35.757)"><path d="M76.863,222.913c0,.112-.525.2-1.174.2s-1.173-.092-1.173-.2.525-.2,1.173-.2S76.863,222.8,76.863,222.913Z" transform="translate(-74.516 -222.709)" fill="#263238"/></g><g transform="translate(40.451)"><path d="M82.544,222.913c0,.112-.525.2-1.173.2s-1.174-.092-1.174-.2.525-.2,1.174-.2S82.544,222.8,82.544,222.913Z" transform="translate(-80.197 -222.709)" fill="#263238"/></g><g transform="translate(45.144)"><path d="M88.226,222.913c0,.112-.525.2-1.173.2s-1.174-.092-1.174-.2.525-.2,1.174-.2S88.226,222.8,88.226,222.913Z" transform="translate(-85.879 -222.709)" fill="#263238"/></g><g transform="translate(49.838)"><g transform="translate(0)"><path d="M93.908,222.913c0,.112-.525.2-1.174.2s-1.173-.092-1.173-.2.525-.2,1.173-.2S93.908,222.8,93.908,222.913Z" transform="translate(-91.561 -222.709)" fill="#263238"/></g></g><g transform="translate(54.532)"><g transform="translate(0)"><path d="M99.589,222.913c0,.112-.525.2-1.173.2s-1.173-.092-1.173-.2.525-.2,1.173-.2S99.589,222.8,99.589,222.913Z" transform="translate(-97.243 -222.709)" fill="#263238"/></g></g><g transform="translate(57.321 1.905)"><path d="M100.823,227.362c-.112,0-.2-.525-.2-1.174s.092-1.173.2-1.173.2.525.2,1.173S100.935,227.362,100.823,227.362Z" transform="translate(-100.619 -225.015)" fill="#263238"/></g><g transform="translate(57.321 6.599)"><path d="M100.823,233.043c-.112,0-.2-.525-.2-1.173s.092-1.173.2-1.173.2.525.2,1.173S100.935,233.043,100.823,233.043Z" transform="translate(-100.619 -230.697)" fill="#263238"/></g><g transform="translate(57.321 11.292)"><path d="M100.823,238.725c-.112,0-.2-.525-.2-1.173s.092-1.174.2-1.174.2.525.2,1.174S100.935,238.725,100.823,238.725Z" transform="translate(-100.619 -236.378)" fill="#263238"/></g><g transform="translate(57.321 15.986)"><path d="M100.823,244.407c-.112,0-.2-.525-.2-1.173s.092-1.174.2-1.174.2.525.2,1.174S100.935,244.407,100.823,244.407Z" transform="translate(-100.619 -242.06)" fill="#263238"/></g><g transform="translate(57.321 20.68)"><path d="M100.823,250.089c-.112,0-.2-.525-.2-1.174s.092-1.173.2-1.173.2.525.2,1.173S100.935,250.089,100.823,250.089Z" transform="translate(-100.619 -247.742)" fill="#263238"/></g><g transform="translate(57.321 25.373)"><path d="M100.823,255.77c-.112,0-.2-.525-.2-1.173s.092-1.174.2-1.174.2.525.2,1.174S100.935,255.77,100.823,255.77Z" transform="translate(-100.619 -253.423)" fill="#263238"/></g><g transform="translate(57.321 30.067)"><path d="M100.823,261.452c-.112,0-.2-.525-.2-1.173s.092-1.174.2-1.174.2.525.2,1.174S100.935,261.452,100.823,261.452Z" transform="translate(-100.619 -259.105)" fill="#263238"/></g><g transform="translate(57.321 34.76)"><path d="M100.823,267.134c-.112,0-.2-.525-.2-1.174s.092-1.173.2-1.173.2.525.2,1.173S100.935,267.134,100.823,267.134Z" transform="translate(-100.619 -264.787)" fill="#263238"/></g><g transform="translate(57.321 39.454)"><path d="M100.823,272.815c-.112,0-.2-.525-.2-1.173s.092-1.173.2-1.173.2.525.2,1.173S100.935,272.815,100.823,272.815Z" transform="translate(-100.619 -270.469)" fill="#263238"/></g><g transform="translate(57.321 44.147)"><path d="M100.823,278.5c-.112,0-.2-.525-.2-1.173s.092-1.174.2-1.174.2.525.2,1.174S100.935,278.5,100.823,278.5Z" transform="translate(-100.619 -276.15)" fill="#263238"/></g><g transform="translate(57.321 48.841)"><path d="M100.823,284.179c-.112,0-.2-.525-.2-1.173s.092-1.174.2-1.174.2.525.2,1.174S100.935,284.179,100.823,284.179Z" transform="translate(-100.619 -281.832)" fill="#263238"/></g><g transform="translate(57.321 53.535)"><path d="M100.823,289.861c-.112,0-.2-.525-.2-1.174s.092-1.173.2-1.173.2.525.2,1.173S100.935,289.861,100.823,289.861Z" transform="translate(-100.619 -287.514)" fill="#263238"/></g></g><g transform="translate(57.321 57.154)"><rect width="4.245" height="4.245" fill="#263238"/></g><g transform="translate(0 57.735)"><rect width="4.245" height="4.245" fill="#263238"/></g><g transform="translate(57.321)"><rect width="4.245" height="4.245" fill="#263238"/></g><g transform="translate(0 0.413)"><rect width="4.245" height="4.245" fill="#263238"/></g></g></g></g></svg>