<svg xmlns="http://www.w3.org/2000/svg" width="137.753" height="45.463" viewBox="0 0 137.753 45.463">
  <g id="Group_728" data-name="Group 728" transform="translate(10025.8 -2562.268)">
    <path id="Path_4061" data-name="Path 4061" d="M6.667,74.981H9.093c.89-.016,1.873.217,1.873,1.3a1.16,1.16,0,0,1-.684,1.044,1.234,1.234,0,0,1,.894,1.229c0,1.234-.909,1.613-2.019,1.613H6.667Zm1.35,2.039H9.063a.5.5,0,0,0,.552-.494c0-.377-.268-.5-.552-.5H8.017Zm0,2.065H9.1c.428,0,.726-.155.726-.583,0-.456-.32-.607-.726-.607H8.017Z" transform="translate(-10032.467 2520.203)" fill="#808285"/>
    <path id="Path_4062" data-name="Path 4062" d="M18.6,78.988a1.163,1.163,0,0,1,.589-1.01,2.489,2.489,0,0,1,1.2-.262c.894,0,1.757.194,1.757,1.263v1.65a2.2,2.2,0,0,0,.145.966H21.048a1.474,1.474,0,0,1-.076-.357,1.7,1.7,0,0,1-1.241.467,1.13,1.13,0,0,1-1.285-1.143c0-1.226,1.336-1.132,2.193-1.3.212-.047.327-.119.327-.351,0-.282-.342-.393-.6-.393a.552.552,0,0,0-.616.474H18.6Zm1.6,1.953c.587,0,.783-.335.755-1.112a3.418,3.418,0,0,1-.764.2c-.274.065-.507.18-.507.48s.238.427.516.427" transform="translate(-10038.618 2518.773)" fill="#808285"/>
    <path id="Path_4063" data-name="Path 4063" d="M29.227,77.825h1.2v.515h.014a1.422,1.422,0,0,1,1.185-.623c1.255,0,1.357.914,1.357,1.46V81.6H31.749V79.772c0-.514.057-1.04-.617-1.04-.466,0-.668.394-.668.806V81.6H29.227V77.825Z" transform="translate(-10044.248 2518.773)" fill="#808285"/>
    <path id="Path_4064" data-name="Path 4064" d="M43.557,81.137c0,.618-.115,1.78-1.881,1.78-.879,0-1.708-.2-1.851-1.206h1.234a.4.4,0,0,0,.211.328.983.983,0,0,0,.451.082c.589,0,.646-.414.646-.881v-.355h-.015a1.191,1.191,0,0,1-1,.551c-1.14,0-1.654-.813-1.654-1.874a1.673,1.673,0,0,1,1.654-1.844,1.085,1.085,0,0,1,1.01.581h.015v-.473h1.183v3.311Zm-1.908-2.476c-.548,0-.721.479-.721.945,0,.441.2.885.711.885.524,0,.75-.4.75-.879s-.191-.951-.74-.951" transform="translate(-10049.715 2518.773)" fill="#808285"/>
    <rect id="Rectangle_1256" data-name="Rectangle 1256" width="1.235" height="5.186" transform="translate(-10004.682 2595.184)" fill="#808285"/>
    <path id="Path_4065" data-name="Path 4065" d="M56.347,78.988a1.168,1.168,0,0,1,.588-1.01,2.488,2.488,0,0,1,1.2-.262c.895,0,1.759.194,1.759,1.263v1.65a2.214,2.214,0,0,0,.144.966H58.8a1.519,1.519,0,0,1-.075-.357,1.7,1.7,0,0,1-1.243.467,1.13,1.13,0,0,1-1.284-1.143c0-1.226,1.337-1.132,2.193-1.3.212-.047.328-.119.328-.351,0-.282-.341-.393-.6-.393a.552.552,0,0,0-.615.474H56.347Zm1.6,1.953c.587,0,.785-.335.755-1.112a3.444,3.444,0,0,1-.765.2c-.274.065-.506.18-.506.48s.237.427.516.427" transform="translate(-10058.332 2518.773)" fill="#808285"/>
    <path id="Path_4066" data-name="Path 4066" d="M70.514,80.168H69.336v-.437h-.015a1.206,1.206,0,0,1-1.036.546C67.1,80.277,66.6,79.26,66.6,78.2c0-.982.523-1.911,1.591-1.911a1.257,1.257,0,0,1,1.075.514h.014V74.981h1.236ZM67.833,78.24c0,.517.189,1.092.755,1.092.6,0,.733-.575.733-1.056,0-.543-.2-1.045-.733-1.045-.566,0-.755.532-.755,1.009" transform="translate(-10063.765 2520.202)" fill="#808285"/>
    <path id="Path_4067" data-name="Path 4067" d="M78.752,80.011a.8.8,0,0,0,.842.859.737.737,0,0,0,.7-.413h1.155a1.784,1.784,0,0,1-1.874,1.249A1.9,1.9,0,0,1,77.516,79.7a1.979,1.979,0,0,1,2.034-1.983,1.958,1.958,0,0,1,1.968,2.293H78.752Zm1.533-.687a.765.765,0,0,0-.735-.771.812.812,0,0,0-.8.771Z" transform="translate(-10069.466 2518.773)" fill="#808285"/>
    <path id="Path_4068" data-name="Path 4068" d="M89.247,80.356a.507.507,0,0,0,.2.419.767.767,0,0,0,.457.129c.241,0,.582-.1.582-.4s-.386-.348-.6-.4c-.777-.2-1.751-.218-1.751-1.237,0-.909.98-1.154,1.721-1.154.829,0,1.693.238,1.735,1.22h-1.14a.354.354,0,0,0-.159-.327.739.739,0,0,0-.393-.1c-.2,0-.53.024-.53.284,0,.358.828.422,1.394.545a1.067,1.067,0,0,1,.959,1.017c0,1.01-.959,1.346-1.81,1.346-.89,0-1.806-.3-1.842-1.35h1.175Z" transform="translate(-10074.979 2518.773)" fill="#808285"/>
    <path id="Path_4069" data-name="Path 4069" d="M98.321,74.982h1.236v1.93h.015a1.312,1.312,0,0,1,1.146-.623c1.257,0,1.359.914,1.359,1.46v2.419h-1.236V78.344c0-.514.059-1.04-.616-1.04-.464,0-.668.394-.668.806v2.057H98.321Z" transform="translate(-10080.331 2520.202)" fill="#808285"/>
    <path id="Path_4070" data-name="Path 4070" d="M116.308,74.982h1.375l1.939,5.186h-1.41l-.318-.929h-1.812l-.326.929H114.37Zm.087,3.254h1.177L117,76.418h-.016Z" transform="translate(-10088.712 2520.202)" fill="#808285"/>
    <path id="Path_4071" data-name="Path 4071" d="M128.133,80.356a.511.511,0,0,0,.2.419.777.777,0,0,0,.459.129c.238,0,.58-.1.58-.4s-.384-.348-.6-.4c-.779-.2-1.752-.218-1.752-1.237,0-.909.98-1.154,1.72-1.154.83,0,1.693.238,1.737,1.22h-1.14a.359.359,0,0,0-.161-.327.739.739,0,0,0-.394-.1c-.2,0-.528.024-.528.284,0,.358.826.422,1.394.545a1.068,1.068,0,0,1,.958,1.017c0,1.01-.958,1.346-1.81,1.346-.891,0-1.806-.3-1.843-1.35h1.175Z" transform="translate(-10095.286 2518.773)" fill="#808285"/>
    <path id="Path_4072" data-name="Path 4072" d="M137.93,80.356a.506.506,0,0,0,.2.419.768.768,0,0,0,.457.129c.241,0,.583-.1.583-.4s-.386-.348-.6-.4c-.779-.2-1.752-.218-1.752-1.237,0-.909.98-1.154,1.721-1.154.827,0,1.692.238,1.735,1.22h-1.14a.356.356,0,0,0-.159-.327.74.74,0,0,0-.394-.1c-.2,0-.53.024-.53.284,0,.358.829.422,1.4.545a1.07,1.07,0,0,1,.96,1.017c0,1.01-.96,1.346-1.809,1.346-.893,0-1.809-.3-1.844-1.35h1.175Z" transform="translate(-10100.401 2518.773)" fill="#808285"/>
    <path id="Path_4073" data-name="Path 4073" d="M148.607,77.717a1.995,1.995,0,1,1-1.985,2,1.933,1.933,0,0,1,1.985-2m0,3.044c.573,0,.755-.569.755-1.047s-.182-1.053-.755-1.053-.749.575-.749,1.053.172,1.047.749,1.047" transform="translate(-10105.555 2518.773)" fill="#808285"/>
    <path id="Path_4074" data-name="Path 4074" d="M159.891,79.206a.583.583,0,0,0-.6-.545c-.688,0-.8.591-.8,1.112,0,.486.214.989.734.989a.659.659,0,0,0,.7-.647h1.2a1.769,1.769,0,0,1-1.9,1.591,1.875,1.875,0,0,1-1.975-1.934,1.909,1.909,0,0,1,1.975-2.055,1.7,1.7,0,0,1,1.863,1.488h-1.2Z" transform="translate(-10111.107 2518.773)" fill="#808285"/>
    <path id="Path_4075" data-name="Path 4075" d="M169.314,75.924h-1.235v-.942h1.235Zm-1.235.473h1.235v3.772h-1.235Z" transform="translate(-10116.76 2520.202)" fill="#808285"/>
    <path id="Path_4076" data-name="Path 4076" d="M173.563,78.988a1.156,1.156,0,0,1,.59-1.01,2.476,2.476,0,0,1,1.2-.262c.891,0,1.758.194,1.758,1.263v1.65a2.248,2.248,0,0,0,.142.966h-1.24a1.366,1.366,0,0,1-.073-.357,1.7,1.7,0,0,1-1.24.467c-.723,0-1.288-.366-1.288-1.143,0-1.226,1.336-1.132,2.194-1.3.212-.047.325-.119.325-.351,0-.282-.338-.393-.595-.393a.549.549,0,0,0-.613.474h-1.158Zm1.6,1.953c.588,0,.783-.335.755-1.112a3.388,3.388,0,0,1-.765.2c-.276.065-.505.18-.505.48s.24.427.515.427" transform="translate(-10119.544 2518.773)" fill="#808285"/>
    <path id="Path_4077" data-name="Path 4077" d="M186.084,77.5h-.765v1.712c0,.3.174.362.444.362.1,0,.21-.011.321-.011v.907c-.227.005-.452.035-.678.035-1.05,0-1.319-.3-1.319-1.329V77.5h-.626v-.8h.626V75.562h1.233V76.7h.765Z" transform="translate(-10124.793 2519.899)" fill="#808285"/>
    <path id="Path_4078" data-name="Path 4078" d="M192.778,75.924h-1.232v-.942h1.232Zm-1.232.473h1.232v3.772h-1.232Z" transform="translate(-10129.015 2520.202)" fill="#808285"/>
    <path id="Path_4079" data-name="Path 4079" d="M198.9,77.717a1.995,1.995,0,1,1-1.984,2,1.933,1.933,0,0,1,1.984-2m0,3.044c.571,0,.755-.569.755-1.047s-.184-1.053-.755-1.053-.749.575-.749,1.053.174,1.047.749,1.047" transform="translate(-10131.819 2518.773)" fill="#808285"/>
    <path id="Path_4080" data-name="Path 4080" d="M207.922,77.825h1.2v.515h.017a1.417,1.417,0,0,1,1.182-.623c1.257,0,1.36.914,1.36,1.46V81.6h-1.234V79.772c0-.514.057-1.04-.62-1.04-.464,0-.668.394-.668.806V81.6h-1.235V77.825Z" transform="translate(-10137.566 2518.773)" fill="#808285"/>
    <path id="Path_4081" data-name="Path 4081" d="M226.581,77.717a1.995,1.995,0,1,1-1.989,2,1.933,1.933,0,0,1,1.989-2m0,3.044c.572,0,.753-.569.753-1.047s-.18-1.053-.753-1.053-.75.575-.75,1.053.174,1.047.75,1.047" transform="translate(-10146.272 2518.773)" fill="#808285"/>
    <path id="Path_4082" data-name="Path 4082" d="M235.521,77.2h-.593v-.8h.593c0-1.082.377-1.415,1.432-1.415.194,0,.4.013.6.021v.87a2.662,2.662,0,0,0-.333-.02c-.285,0-.459.034-.459.376V76.4h.742v.8h-.742v2.971h-1.235V77.2Z" transform="translate(-10151.67 2520.202)" fill="#808285"/>
    <path id="Path_4083" data-name="Path 4083" d="M8.019,93.488c.03.61.408.806.979.806.408,0,.828-.146.828-.53,0-.456-.741-.545-1.487-.754s-1.518-.545-1.518-1.5c0-1.132,1.139-1.575,2.112-1.575,1.032,0,2.072.5,2.079,1.67H9.662c.02-.471-.423-.624-.836-.624-.291,0-.656.1-.656.444,0,.4.751.473,1.506.682s1.5.559,1.5,1.5c0,1.314-1.117,1.733-2.256,1.733-1.192,0-2.247-.521-2.254-1.851H8.019Z" transform="translate(-10032.467 2512.392)" fill="#808285"/>
    <path id="Path_4084" data-name="Path 4084" d="M18.52,92.9a1.994,1.994,0,1,1-1.984,2,1.936,1.936,0,0,1,1.984-2m0,3.044c.573,0,.754-.567.754-1.046s-.181-1.052-.754-1.052-.75.575-.75,1.052.175,1.046.75,1.046" transform="translate(-10037.621 2510.846)" fill="#808285"/>
    <path id="Path_4085" data-name="Path 4085" d="M25.712,92.38h-.6v-.8h.6c0-1.083.376-1.416,1.43-1.416.2,0,.4.013.6.021v.872a2.564,2.564,0,0,0-.333-.023c-.285,0-.46.036-.46.377v.168h.742v.8h-.742v2.972H25.712Z" transform="translate(-10042.101 2512.273)" fill="#808285"/>
    <path id="Path_4086" data-name="Path 4086" d="M33.848,92.681h-.76V94.4c0,.294.171.361.441.361.1,0,.212-.014.319-.014v.91c-.226,0-.452.033-.675.033-1.054,0-1.322-.305-1.322-1.328V92.681h-.624v-.8h.624V90.74h1.237v1.141h.76Z" transform="translate(-10045.292 2511.973)" fill="#808285"/>
    <path id="Path_4087" data-name="Path 4087" d="M42.251,96.9H41l-.6-2.506h-.014L39.8,96.9H38.552l-1.177-3.773h1.252l.633,2.441h.014l.537-2.441h1.177l.551,2.435h.016l.616-2.435h1.258Z" transform="translate(-10048.503 2510.726)" fill="#808285"/>
    <path id="Path_4088" data-name="Path 4088" d="M50.224,94.17a1.169,1.169,0,0,1,.59-1.011,2.494,2.494,0,0,1,1.2-.261c.894,0,1.759.2,1.759,1.265v1.647a2.23,2.23,0,0,0,.144.969H52.673a1.628,1.628,0,0,1-.074-.357,1.7,1.7,0,0,1-1.241.462c-.72,0-1.286-.361-1.286-1.138,0-1.228,1.338-1.133,2.193-1.305.212-.047.328-.119.328-.351,0-.283-.341-.394-.6-.394a.55.55,0,0,0-.615.473H50.224Zm1.6,1.954c.59,0,.786-.335.756-1.111a3.5,3.5,0,0,1-.763.2c-.277.065-.507.181-.507.478s.24.43.514.43" transform="translate(-10055.134 2510.846)" fill="#808285"/>
    <path id="Path_4089" data-name="Path 4089" d="M59.2,93.048h1.2v.66h.014a1.137,1.137,0,0,1,1.132-.733,1.342,1.342,0,0,1,.291.03v1.126a1.741,1.741,0,0,0-.472-.072.868.868,0,0,0-.93.892V96.82H59.2V93.048Z" transform="translate(-10059.902 2510.805)" fill="#808285"/>
    <path id="Path_4090" data-name="Path 4090" d="M66.411,95.2a.806.806,0,0,0,.843.856.734.734,0,0,0,.7-.413h1.154a1.781,1.781,0,0,1-1.872,1.247,1.894,1.894,0,0,1-2.064-2,2.012,2.012,0,1,1,4,.312H66.411Zm1.534-.692a.764.764,0,0,0-.735-.771.817.817,0,0,0-.8.771Z" transform="translate(-10063.021 2510.845)" fill="#808285"/>
    <path id="Path_4091" data-name="Path 4091" d="M80.873,94.793a2.2,2.2,0,0,1-1.487.545,1.621,1.621,0,0,1-1.729-1.582,1.734,1.734,0,0,1,1.177-1.512,1.481,1.481,0,0,1-.459-.994,1.4,1.4,0,0,1,1.482-1.314,1.376,1.376,0,0,1,1.468,1.344,1.428,1.428,0,0,1-.887,1.285l.537.646a1.172,1.172,0,0,0,.189-.508h1.059a2.163,2.163,0,0,1-.572,1.263l1.092,1.267H81.238ZM79.45,93.057c-.251.118-.6.371-.6.684a.648.648,0,0,0,.683.6,1.19,1.19,0,0,0,.691-.371Zm.866-1.851a.422.422,0,0,0-.842-.014c0,.283.2.451.363.654.253-.155.479-.327.479-.64" transform="translate(-10069.54 2512.393)" fill="#808285"/>
    <rect id="Rectangle_1285" data-name="Rectangle 1285" width="1.354" height="5.188" transform="translate(-9984.935 2602.438)" fill="#808285"/>
    <path id="Path_4092" data-name="Path 4092" d="M96.485,93.007h1.2v.516H97.7a1.422,1.422,0,0,1,1.184-.626c1.256,0,1.358.917,1.358,1.462v2.42H99V94.954c0-.514.058-1.04-.616-1.04-.463,0-.669.394-.669.806v2.058H96.485Z" transform="translate(-10079.372 2510.846)" fill="#808285"/>
    <path id="Path_4093" data-name="Path 4093" d="M105.57,92.38h-.6v-.8h.6c0-1.083.379-1.416,1.428-1.416.2,0,.4.013.6.021v.872a2.535,2.535,0,0,0-.333-.023c-.285,0-.459.036-.459.377v.168h.741v.8H106.8v2.972H105.57Z" transform="translate(-10083.806 2512.273)" fill="#808285"/>
    <path id="Path_4094" data-name="Path 4094" d="M112.484,92.9a1.994,1.994,0,1,1-1.981,2,1.935,1.935,0,0,1,1.981-2m0,3.044c.574,0,.755-.567.755-1.046s-.181-1.052-.755-1.052-.749.575-.749,1.052.175,1.046.749,1.046" transform="translate(-10086.692 2510.846)" fill="#808285"/>
    <path id="Path_4095" data-name="Path 4095" d="M119.856,93.048h1.2v.66h.014a1.141,1.141,0,0,1,1.134-.733,1.3,1.3,0,0,1,.288.03v1.126a1.709,1.709,0,0,0-.469-.072.866.866,0,0,0-.929.892V96.82h-1.236Z" transform="translate(-10091.577 2510.805)" fill="#808285"/>
    <path id="Path_4096" data-name="Path 4096" d="M125.833,93.007h1.2v.516h.013a1.26,1.26,0,0,1,1.083-.626,1.086,1.086,0,0,1,1.1.612A1.38,1.38,0,0,1,130.4,92.9c1.2,0,1.329.91,1.329,1.63v2.252H130.5V94.56c0-.406-.2-.646-.517-.646-.528,0-.58.407-.58,1.017v1.848h-1.235V94.632c0-.442-.129-.718-.466-.718-.443,0-.634.255-.634,1.025v1.839h-1.235V93.007Z" transform="translate(-10094.698 2510.846)" fill="#808285"/>
    <path id="Path_4097" data-name="Path 4097" d="M139.234,94.17a1.163,1.163,0,0,1,.59-1.011,2.5,2.5,0,0,1,1.2-.261c.894,0,1.759.2,1.759,1.265v1.647a2.223,2.223,0,0,0,.144.969h-1.243a1.43,1.43,0,0,1-.072-.357,1.7,1.7,0,0,1-1.243.462c-.72,0-1.283-.361-1.283-1.138,0-1.228,1.336-1.133,2.192-1.305.211-.047.326-.119.326-.351,0-.283-.341-.394-.595-.394a.551.551,0,0,0-.616.473h-1.156Zm1.6,1.954c.59,0,.786-.335.757-1.111a3.478,3.478,0,0,1-.763.2c-.275.065-.507.181-.507.478s.239.43.514.43" transform="translate(-10101.618 2510.846)" fill="#808285"/>
    <path id="Path_4098" data-name="Path 4098" d="M150.006,92.681h-.763V94.4c0,.294.173.361.444.361.1,0,.209-.014.319-.014v.91c-.226,0-.452.033-.677.033-1.052,0-1.322-.305-1.322-1.328V92.681h-.625v-.8h.625V90.74h1.236v1.141h.763v.8Z" transform="translate(-10105.952 2511.973)" fill="#808285"/>
    <path id="Path_4099" data-name="Path 4099" d="M154.951,91.107h-1.234v-.943h1.234Zm-1.234.473h1.234v3.773h-1.234Z" transform="translate(-10109.26 2512.273)" fill="#808285"/>
    <path id="Path_4100" data-name="Path 4100" d="M159.331,92.9a1.994,1.994,0,1,1-1.984,2,1.934,1.934,0,0,1,1.984-2m0,3.044c.571,0,.755-.567.755-1.046s-.183-1.052-.755-1.052-.749.575-.749,1.052.173,1.046.749,1.046" transform="translate(-10111.155 2510.846)" fill="#808285"/>
    <path id="Path_4101" data-name="Path 4101" d="M166.609,93.007h1.2v.516h.013a1.426,1.426,0,0,1,1.188-.626c1.251,0,1.359.917,1.359,1.462v2.42h-1.237V94.954c0-.514.059-1.04-.618-1.04-.467,0-.668.394-.668.806v2.058h-1.235V93.007Z" transform="translate(-10115.992 2510.846)" fill="#808285"/>
    <path id="Path_4102" data-name="Path 4102" d="M179.993,93.488c.032.61.41.806.985.806.407,0,.826-.146.826-.53,0-.456-.739-.545-1.49-.754s-1.517-.545-1.517-1.5c0-1.132,1.14-1.575,2.115-1.575,1.032,0,2.068.5,2.078,1.67h-1.353c.023-.471-.421-.624-.835-.624-.29,0-.655.1-.655.444,0,.4.75.473,1.5.682s1.506.559,1.506,1.5c0,1.314-1.121,1.733-2.261,1.733-1.192,0-2.245-.521-2.251-1.851h1.346Z" transform="translate(-10122.278 2512.392)" fill="#808285"/>
    <path id="Path_4103" data-name="Path 4103" d="M189.748,95.2a.8.8,0,0,0,.844.856.741.741,0,0,0,.706-.413h1.155a1.787,1.787,0,0,1-1.876,1.247,1.894,1.894,0,0,1-2.064-2,1.982,1.982,0,0,1,2.036-1.985,1.957,1.957,0,0,1,1.967,2.3h-2.767Zm1.533-.692a.763.763,0,0,0-.732-.771.817.817,0,0,0-.8.771Z" transform="translate(-10127.431 2510.845)" fill="#808285"/>
    <path id="Path_4104" data-name="Path 4104" d="M197.866,93.048h1.2v.66h.014a1.14,1.14,0,0,1,1.132-.733,1.386,1.386,0,0,1,.3.03v1.126a1.771,1.771,0,0,0-.475-.072.866.866,0,0,0-.929.892V96.82h-1.236Z" transform="translate(-10132.315 2510.805)" fill="#808285"/>
    <path id="Path_4105" data-name="Path 4105" d="M206.236,96.9h-1.425l-1.255-3.773h1.285l.688,2.493h.019l.69-2.493H207.5Z" transform="translate(-10135.287 2510.726)" fill="#808285"/>
    <path id="Path_4106" data-name="Path 4106" d="M213.553,91.107h-1.235v-.943h1.235Zm-1.235.473h1.235v3.773h-1.235Z" transform="translate(-10139.862 2512.273)" fill="#808285"/>
    <path id="Path_4107" data-name="Path 4107" d="M218.584,94.388a.579.579,0,0,0-.6-.545c-.691,0-.8.586-.8,1.112,0,.487.214.986.735.986a.662.662,0,0,0,.7-.646h1.2a1.766,1.766,0,0,1-1.894,1.589,1.873,1.873,0,0,1-1.977-1.93,1.91,1.91,0,0,1,1.977-2.058,1.7,1.7,0,0,1,1.86,1.491h-1.2Z" transform="translate(-10141.758 2510.847)" fill="#808285"/>
    <path id="Path_4108" data-name="Path 4108" d="M225.79,95.2a.805.805,0,0,0,.844.856.741.741,0,0,0,.705-.413h1.153a1.785,1.785,0,0,1-1.876,1.247,1.894,1.894,0,0,1-2.062-2,1.981,1.981,0,0,1,2.035-1.985,1.96,1.96,0,0,1,1.968,2.3H225.79Zm1.53-.692a.759.759,0,0,0-.732-.771.815.815,0,0,0-.8.771Z" transform="translate(-10146.252 2510.845)" fill="#808285"/>
    <path id="Path_4109" data-name="Path 4109" d="M234.544,95.535a.506.506,0,0,0,.2.42.752.752,0,0,0,.457.132c.235,0,.579-.1.579-.4s-.382-.348-.6-.4c-.78-.2-1.752-.218-1.752-1.235,0-.907.98-1.156,1.72-1.156.833,0,1.69.239,1.739,1.222h-1.143a.36.36,0,0,0-.16-.329.735.735,0,0,0-.391-.094c-.2,0-.533.021-.533.285,0,.354.83.421,1.394.546a1.065,1.065,0,0,1,.96,1.016c0,1.008-.96,1.342-1.808,1.342-.894,0-1.808-.3-1.843-1.349h1.175Z" transform="translate(-10150.855 2510.846)" fill="#808285"/>
    <path id="Path_4110" data-name="Path 4110" d="M6.667,7.2H17.953c5.166,0,10.434,1.228,10.434,7.333a5.352,5.352,0,0,1-3.5,5.336v.207c2.9,1.023,4.737,3.124,4.737,6.281,0,5.44-5.092,7.3-9.761,7.3H6.667Zm9.87,10.175c1.415,0,3.008-.14,3.008-1.961,0-1.969-1.806-1.828-3.222-1.828h-.672v3.789Zm-.886,9.966h1.1c1.592,0,3.894-.034,3.894-2.212,0-2.209-2.48-2.177-4.037-2.177h-.955v4.388Z" transform="translate(-10032.467 2555.6)" fill="#808285"/>
    <path id="Path_4111" data-name="Path 4111" d="M66.536,33.66H56.277L65.546,7.2H76.262L85.78,33.66H75.52l-.886-3.3H67.316Zm6.4-9.583L71.8,19.409c-.281-1.122-.455-2.281-.633-3.4h-.355l-1.77,8.07Z" transform="translate(-10058.374 2555.599)" fill="#808285"/>
    <path id="Path_4112" data-name="Path 4112" d="M122.334,23.722l.495.387a10.213,10.213,0,0,0,6.049,2.42c.954,0,2.473-.386,2.473-1.579s-1.274-1.3-2.155-1.474l-1.948-.35c-3.784-.666-6.968-2.877-6.968-7.019,0-6.282,5.764-9.788,11.565-9.788A15.97,15.97,0,0,1,140.3,8.634l-2.62,6.771a10.117,10.117,0,0,0-5.625-2c-.847,0-2.085.318-2.085,1.405,0,.982,1.205,1.124,1.946,1.3l2.194.494c4.1.912,7.072,3.087,7.072,7.579,0,6.317-5.8,9.441-11.563,9.441a24.185,24.185,0,0,1-10.26-2.421Z" transform="translate(-10091.318 2556.06)" fill="#808285"/>
    <g id="Group_842" data-name="Group 842">
      <g id="Group_841" data-name="Group 841">
        <rect id="Rectangle_1308" data-name="Rectangle 1308" width="9.69" height="26.46" transform="translate(-9947.049 2562.799)" fill="#808285"/>
      </g>
    </g>
    <path id="Path_4113" data-name="Path 4113" d="M201.261,23.722l.5.387a10.212,10.212,0,0,0,6.051,2.42c.952,0,2.472-.386,2.472-1.579s-1.27-1.3-2.156-1.474l-1.943-.35c-3.791-.666-6.972-2.877-6.972-7.019,0-6.282,5.766-9.788,11.567-9.788a15.944,15.944,0,0,1,8.453,2.316L216.615,15.4a10.136,10.136,0,0,0-5.623-2c-.849,0-2.088.318-2.088,1.405,0,.982,1.2,1.124,1.947,1.3l2.192.494c4.1.912,7.071,3.087,7.071,7.579,0,6.317-5.8,9.441-11.563,9.441A24.186,24.186,0,0,1,198.292,31.2Z" transform="translate(-10132.538 2556.06)" fill="#808285"/>
    <path id="Path_4114" data-name="Path 4114" d="M256.053,41.821V34.956l5.834,3.434,5.889,3.431-5.863,3.431-5.86,3.432Z" transform="translate(-10162.702 2541.104)" fill="#6ec8bf"/>
    <path id="Path_4115" data-name="Path 4115" d="M256.053,12.953V6.089l5.834,3.434,5.889,3.43-5.863,3.434-5.86,3.431Z" transform="translate(-10162.702 2556.179)" fill="#007f3e"/>
    <path id="Path_4116" data-name="Path 4116" d="M270.389,27.221V20.357l5.752,3.43,5.847,3.434-5.8,3.432-5.8,3.433Z" transform="translate(-10170.188 2548.728)" fill="#ed1c24"/>
    <path id="Path_4117" data-name="Path 4117" d="M284.02,6.09a3.506,3.506,0,0,1,1.338.256A3.375,3.375,0,0,1,287.211,8.2a3.551,3.551,0,0,1,0,2.648,3.21,3.21,0,0,1-.739,1.087,3.654,3.654,0,0,1-1.144.762,3.347,3.347,0,0,1-1.312.268,3.3,3.3,0,0,1-1.3-.261,3.5,3.5,0,0,1-1.117-.76,3.425,3.425,0,0,1-.754-1.112,3.34,3.34,0,0,1-.261-1.3,3.415,3.415,0,0,1,.263-1.322,3.515,3.515,0,0,1,.761-1.135,3.2,3.2,0,0,1,1.089-.732,3.452,3.452,0,0,1,1.317-.252m2.744,3.44a2.719,2.719,0,0,0-2.735-2.735,2.759,2.759,0,0,0-1.051.2,2.54,2.54,0,0,0-.87.588,2.806,2.806,0,0,0-.6.9,2.707,2.707,0,0,0,0,2.087,2.735,2.735,0,0,0,.6.885,2.775,2.775,0,0,0,.888.6,2.71,2.71,0,0,0,2.087,0,2.857,2.857,0,0,0,.9-.608,2.555,2.555,0,0,0,.587-.867,2.748,2.748,0,0,0,.2-1.049m-2.128-.648a.672.672,0,0,0-.172-.453.565.565,0,0,0-.425-.165.583.583,0,0,0-.523.327,1.857,1.857,0,0,0-.189.922,1.727,1.727,0,0,0,.186.9.62.62,0,0,0,.562.3.525.525,0,0,0,.419-.167.771.771,0,0,0,.161-.488l1.135,0a1.441,1.441,0,0,1-.5,1.087,2.113,2.113,0,0,1-2.645-.126,2.028,2.028,0,0,1-.509-1.465,2.136,2.136,0,0,1,.507-1.481,1.694,1.694,0,0,1,1.322-.565,2.025,2.025,0,0,1,1.274.364,1.311,1.311,0,0,1,.505,1.014Z" transform="translate(-10175.516 2556.179)" fill="#808285"/>
  </g>
</svg>
