<svg xmlns="http://www.w3.org/2000/svg" width="168.082" height="51.115" viewBox="0 0 168.082 51.115"><rect width="168.082" height="51.115" rx="1.742"/><g transform="translate(17.97 8.313)"><path d="M130.832,427.7c-2.727,4.734-1,11.914,2.022,16.268,1.5,2.175,3.029,4.129,5.114,4.129l.119,0a6.275,6.275,0,0,0,2.372-.63,6.515,6.515,0,0,1,2.816-.668,6.1,6.1,0,0,1,2.675.645,5.692,5.692,0,0,0,2.566.616c2.35-.045,3.794-2.152,5.066-4.014a17.788,17.788,0,0,0,2.223-4.547l.007-.03a.269.269,0,0,0-.142-.324l-.019-.007a6.739,6.739,0,0,1-4.085-6.17,6.945,6.945,0,0,1,3.279-5.8l.026-.015a.275.275,0,0,0,.116-.172.261.261,0,0,0-.041-.2,7.617,7.617,0,0,0-6-3.256,4.876,4.876,0,0,0-.526-.026,10.48,10.48,0,0,0-3.764.94,6.037,6.037,0,0,1-1.805.541,5.887,5.887,0,0,1-1.865-.548,9.041,9.041,0,0,0-3.29-.836l-.082,0A8.054,8.054,0,0,0,130.832,427.7Z" transform="translate(-129.471 -415.846)" fill="#fff"/><path d="M139.559,421.443a7.363,7.363,0,0,0-4.86,2.492,6.914,6.914,0,0,0-1.746,5.118.259.259,0,0,0,.243.228c.112.011.224.015.339.015a6.231,6.231,0,0,0,4.588-2.354,7.273,7.273,0,0,0,1.712-5.263A.265.265,0,0,0,139.559,421.443Z" transform="translate(-120.081 -421.443)" fill="#fff"/></g><g transform="translate(59.509 8.313)"><text transform="translate(39 9)" fill="#fff" font-size="9" font-family="Montserrat-Light, Montserrat" font-weight="300"><tspan x="-38.61" y="0">Download on the</tspan></text><text transform="translate(41.015 28.358)" fill="#fff" font-size="16" font-family="Montserrat-SemiBold, Montserrat" font-weight="600"><tspan x="-40.872" y="0">App Store</tspan></text></g></svg>