<svg xmlns="http://www.w3.org/2000/svg" width="168.082" height="51.115" viewBox="0 0 168.082 51.115"><rect width="168.082" height="51.115" rx="1.742"/><g transform="translate(54.377 6.962)"><text transform="translate(38.238 9)" fill="#fff" font-size="9" font-family="Montserrat-Light, Montserrat" font-weight="300"><tspan x="-35.496" y="0">Available on the</tspan></text><text transform="translate(49 28.358)" fill="#fff" font-size="16" font-family="Montserrat-SemiBold, Montserrat" font-weight="600"><tspan x="-49.064" y="0">Google Play</tspan></text></g><g transform="translate(13.227 7.982)"><path d="M193.959,428.4l-6.4-3.7-5.267,5.092,4.812,4.652,6.86-3.958a1.208,1.208,0,0,0,0-2.089Z" transform="translate(-162.929 -412.098)" fill="#fff"/><path d="M199.869,433.31l-7.048-4.068-15.444-7.914,17.444,16.862Z" transform="translate(-176.331 -421.328)" fill="#fff"/><path d="M177.447,442.912l15.214-8.381,6.567-3.791-4.594-4.442Z" transform="translate(-176.143 -407.757)" fill="#fff"/><path d="M177.114,421.51l-.016,34.054,17.622-17.035Z" transform="translate(-177.097 -420.828)" fill="#fff"/></g></svg>