<svg xmlns="http://www.w3.org/2000/svg" width="70" height="70" viewBox="0 0 70 70"><g transform="translate(-738.2 -9508.407)"><g transform="translate(992.2 -4230.485)"><circle cx="35" cy="35" r="35" transform="translate(-254 13738.893)" fill="#edf8f8"/><g transform="translate(-234 13756.449)"><path d="M1553.715-217.087l1.625-2.709a.651.651,0,0,0-.223-.893.649.649,0,0,0-.893.223l-1.716,2.859a9.694,9.694,0,0,0-3.259-.571,9.693,9.693,0,0,0-3.259.571l-1.716-2.859a.65.65,0,0,0-.893-.223.651.651,0,0,0-.223.893l1.625,2.709a9.767,9.767,0,0,0-5.3,8.673.651.651,0,0,0,.651.651h18.226a.651.651,0,0,0,.651-.651A9.767,9.767,0,0,0,1553.715-217.087Zm-12.9,8.022a8.473,8.473,0,0,1,8.437-7.811,8.473,8.473,0,0,1,8.437,7.811Z" transform="translate(-1534.278 220.782)"/><path d="M1620.344-175.571h-.858a.429.429,0,0,0-.429.429v.858a.429.429,0,0,0,.429.429h.858a.429.429,0,0,0,.429-.429v-.858A.429.429,0,0,0,1620.344-175.571Z" transform="translate(-1600.831 182.968)"/><path d="M1570.066-175.571h-.858a.429.429,0,0,0-.429.429v.858a.429.429,0,0,0,.429.429h.858a.429.429,0,0,0,.429-.429v-.858A.429.429,0,0,0,1570.066-175.571Z" transform="translate(-1558.779 182.968)"/><path d="M1558.362-137.229h-18.226a.651.651,0,0,0-.651.651v13.13a3.149,3.149,0,0,0,3.147,3.143h.759v3.909a2.6,2.6,0,0,0,2.6,2.6,2.6,2.6,0,0,0,2.6-2.6v-3.909h1.3v3.909a2.6,2.6,0,0,0,2.6,2.6,2.6,2.6,0,0,0,2.6-2.6v-3.909h.759a3.149,3.149,0,0,0,3.147-3.143v-13.13A.651.651,0,0,0,1558.362-137.229Zm-.651,13.781a1.845,1.845,0,0,1-1.845,1.842h-1.409a.651.651,0,0,0-.651.651v4.56a1.3,1.3,0,0,1-1.3,1.3,1.3,1.3,0,0,1-1.3-1.3v-4.56a.651.651,0,0,0-.651-.651h-2.6a.651.651,0,0,0-.651.651v4.56a1.3,1.3,0,0,1-1.3,1.3,1.3,1.3,0,0,1-1.3-1.3v-4.56a.651.651,0,0,0-.651-.651h-1.409a1.846,1.846,0,0,1-1.845-1.842v-12.479h16.924Z" transform="translate(-1534.278 150.899)"/><path d="M1665.1-137.229a2.282,2.282,0,0,0-2.278,2.281v9.108a2.282,2.282,0,0,0,2.278,2.281,2.282,2.282,0,0,0,2.278-2.281v-9.108A2.282,2.282,0,0,0,1665.1-137.229Zm.976,11.389a.979.979,0,0,1-.976.979.979.979,0,0,1-.976-.979v-9.108a.979.979,0,0,1,.976-.979.979.979,0,0,1,.976.979Z" transform="translate(-1637.435 150.899)"/><path d="M1509.935-137.229a2.282,2.282,0,0,0-2.278,2.281v9.108a2.282,2.282,0,0,0,2.278,2.281,2.282,2.282,0,0,0,2.278-2.281v-9.108A2.282,2.282,0,0,0,1509.935-137.229Zm.976,11.389a.979.979,0,0,1-.976.979.979.979,0,0,1-.976-.979v-9.108a.979.979,0,0,1,.976-.979.979.979,0,0,1,.976.979Z" transform="translate(-1507.657 150.899)"/></g></g></g></svg>