<svg xmlns="http://www.w3.org/2000/svg" width="70" height="70" viewBox="0 0 70 70"><g transform="translate(53 -13740)"><circle cx="35" cy="35" r="35" transform="translate(-53 13740)" fill="#edf8f8"/><g transform="translate(-32 13758)"><g transform="translate(13.639)"><path d="M1878.591-202.351l-1.122.229a7.769,7.769,0,0,0-6.218,7.773l.022,1.145,1.122-.229a7.772,7.772,0,0,0,6.22-7.774Zm-5.769,7.211a6.234,6.234,0,0,1,4.22-5.274A6.232,6.232,0,0,1,1872.822-195.14Z" transform="translate(-1871.25 202.351)"/></g><g transform="translate(0 8.393)"><path d="M1818.279-138.608a5.578,5.578,0,0,1-3.5-5.245,5.888,5.888,0,0,1,2.934-5.02l1.039-.6-.821-.878a8.381,8.381,0,0,0-6.1-2.649h-.05a8.59,8.59,0,0,0-3.295.727,7.4,7.4,0,0,1-2.844.637,7.389,7.389,0,0,1-2.843-.637,8.591,8.591,0,0,0-3.295-.727c-3.9,0-8.456,2.573-8.456,9.82a20.94,20.94,0,0,0,2.991,10.463c1.771,2.969,3.866,4.813,5.465,4.813a9.277,9.277,0,0,0,3.932-.83,5.323,5.323,0,0,1,2.205-.534,5.323,5.323,0,0,1,2.207.534,9.277,9.277,0,0,0,3.932.83c2.565,0,5.544-4.907,7.045-9.525l.275-.846Zm-6.5,9.162a7.853,7.853,0,0,1-3.352-.716,6.8,6.8,0,0,0-2.787-.647,6.8,6.8,0,0,0-2.785.647,7.853,7.853,0,0,1-3.352.716c-.833,0-2.567-1.423-4.142-4.061a19.5,19.5,0,0,1-2.772-9.673c0-7.879,5.76-8.278,6.914-8.278a7.217,7.217,0,0,1,2.747.625,8.746,8.746,0,0,0,3.39.738,8.772,8.772,0,0,0,3.392-.738,7.222,7.222,0,0,1,2.75-.625,6.865,6.865,0,0,1,4.513,1.669,7.458,7.458,0,0,0-2.226,2.593,7.41,7.41,0,0,0-.832,3.329,7.108,7.108,0,0,0,3.954,6.46C1815.487-132.46,1812.926-129.446,1811.782-129.446Z" transform="translate(-1791.05 153)"/></g></g></g></svg>