<svg xmlns="http://www.w3.org/2000/svg" width="70" height="70" viewBox="0 0 70 70"><g transform="translate(53 -13910)"><circle cx="35" cy="35" r="35" transform="translate(-53 13910)" fill="#edf8f8"/><g transform="translate(-31 13926.65)"><path d="M2693.5-22.77l-.074.985c-.2,2.582-6.8,3.415-12.521,3.415-1.246,0-2.448-.039-3.535-.107-3.585-.231-4.653-.761-4.9-.922l-.522-.085.611-.307.056.041A50.174,50.174,0,0,0,2688.111-20c4.416-.831,4.957-1.866,4.962-1.875Z" transform="translate(-2667.803 53.403)"/><path d="M2673.636-29.22c-.287.951-3.026,1.873-6.981,2.351a49.664,49.664,0,0,1-5.906.335,58.522,58.522,0,0,1-9.328-.757c-1.155-.187-1.764-.5-1.86-.946-.076-.352.17-.716.729-1.088,1.253-.827,4.124-1.634,5.036-.992l.544.381-.663-.044a4.46,4.46,0,0,0-1.129.128c-.852.183-1.971.65-2,.9,0,.019.039.091.241.178,3.467,1.508,15.671,1.068,19.375-.054.937-.285,1.127-.577,1.158-.726a.442.442,0,0,0-.159-.37l-1.005-.851,1.2.54C2673.657-29.9,2673.718-29.5,2673.636-29.22Z" transform="translate(-2649.547 59.931)"/><path d="M2696.83-42.793l-.416.18a15.734,15.734,0,0,1-6.117,1.2c-2.466,0-4.5-.546-5.277-1.179a.863.863,0,0,1-.4-.853c.1-.466.692-.855,1.768-1.155l1.39-.389-1.248.726c-.145.085-.3.242-.287.315,0,.009.063.237,1.148.361a19.37,19.37,0,0,0,7.033-.3l.07-.013.063.039a12.37,12.37,0,0,0,1.853.905Z" transform="translate(-2678.116 71.511)"/><path d="M2693.066-62.789l-.55.161a26.9,26.9,0,0,1-7.383,1.036c-3.249,0-5.729-.629-6-1.5-.185-.59.468-1.138,1.94-1.627l1.088-.361-.92.685c-.15.111-.442.4-.391.59.019.068.152.3,1.073.4a27.684,27.684,0,0,0,9.1-.437l.1-.02.07.07a3.91,3.91,0,0,0,1.338.816Z" transform="translate(-2673.634 87.882)"/><path d="M2762.249-82.733c-.239.975-1.27,2.778-5.506,3.89l-.233.061V-79.1l.063-.061a.35.35,0,0,0,.078-.091l.026-.065.063-.037c2.817-1.464,4.2-3.167,3.707-4.555a2,2,0,0,0-2.2-1.214,4.572,4.572,0,0,0-.705.189l-.531.209.308-.481a1.348,1.348,0,0,1,.642-.5,3.51,3.51,0,0,1,3.537.548A2.419,2.419,0,0,1,2762.249-82.733Z" transform="translate(-2736.713 104.884)"/><path d="M2676.886-137.826c-5.527-6.369,5.832-9.3,6.119-9.374-7.463,4.329-6.083,5.584-4.285,8.112,1.879,2.643-2.058,4.766-2.26,4.873C2676.589-134.326,2678.484-135.988,2676.886-137.826Zm4.17,4.559c-6.319,1.662-18.527.89-15.012-.811a11.783,11.783,0,0,1,5.388-1.272s-6.224,1.477-2.2,2.014a46.789,46.789,0,0,0,8.231-.087c2.48-.211,4.968-.646,5.151-.677A10.732,10.732,0,0,0,2681.056-133.267Z" transform="translate(-2662.483 154.803)"/><path d="M2682.611-81.945a10.731,10.731,0,0,0-1.555.833c-6.319,1.662-18.527.89-15.012-.811a11.783,11.783,0,0,1,5.388-1.272s-6.224,1.477-2.2,2.014a46.79,46.79,0,0,0,8.231-.087C2679.94-81.479,2682.428-81.914,2682.611-81.945Z" transform="translate(-2662.483 102.649)"/><path d="M2722.537-139.088c1.879,2.643-2.058,4.766-2.26,4.873.127-.111,2.023-1.773.425-3.611-5.526-6.369,5.832-9.3,6.119-9.374C2719.359-142.871,2720.738-141.616,2722.537-139.088Z" transform="translate(-2706.3 154.803)"/><path d="M2702.707-184.882c-.12,2.053-1.584,4.2-4.349,6.385-4.161,3.287-2.695,5.375-1.142,7.587a11.984,11.984,0,0,1,1.2,1.945l.352.8-.646-.583c-3.121-2.817-5.779-5.56-4.059-8.142a14.966,14.966,0,0,1,3.314-3.169c2.456-1.923,4.994-3.911,4.065-7.564l-.165-.653.476.476A3.954,3.954,0,0,1,2702.707-184.882Z" transform="translate(-2685.379 188.28)"/></g></g></svg>