<svg xmlns="http://www.w3.org/2000/svg" width="70" height="70" viewBox="0 0 70 70"><g transform="translate(254 -14067)"><circle cx="35" cy="35" r="35" transform="translate(-254 14067)" fill="#edf8f8"/><g transform="translate(-235 14088)"><g transform="translate(0 0)"><path d="M2895.122-179.832c13.823,9.249,9.34,19.413,9.34,19.413s3.926,4.357,2.348,8.173c0,0-1.629-2.666-4.333-2.666-2.614,0-4.161,2.666-9.437,2.666-11.736,0-17.3-9.643-17.3-9.643,10.576,6.857,17.8,2,17.8,2-4.775-2.715-14.9-15.719-14.9-15.719,8.83,7.392,12.64,9.333,12.64,9.333-2.291-1.844-8.676-10.883-8.676-10.883,5.109,5.082,15.265,12.168,15.265,12.168,2.912-7.831-2.747-14.84-2.747-14.84Z" transform="translate(-2875.741 179.832)"/></g></g></g></svg>