<svg xmlns="http://www.w3.org/2000/svg" width="70" height="70" viewBox="0 0 70 70"><g transform="translate(-3744.377 -9654.33)"><circle cx="35" cy="35" r="35" transform="translate(3744.377 9654.33)" fill="#edf8f8"/><path d="M5739.022,1260.851a1.321,1.321,0,0,0-.688.194,14.97,14.97,0,0,0-2.979,3l-.266.327c-.337.419-.687.873-1.046,1.352q-1.834,2.45-3.435,5.063l-.038.061-.075.123q-1.568,2.561-2.912,5.25a43.784,43.784,0,0,0-1.875,4.357q-.232.641-.426,1.237c-.105.339-.208.678-.3,1.015-.227.8-.423,1.592-.583,2.383v0l-.022.1a23.8,23.8,0,0,0-.4,2.883l-.009.1a6.024,6.024,0,0,0-1.751-1.5,8.485,8.485,0,0,1,1.711,3.933,3.858,3.858,0,0,1-1.936-.331,3.867,3.867,0,0,0,1.651,1,4.744,4.744,0,0,0-2.294,1.144,4.9,4.9,0,0,1,2.718-.5q-1.679,4.81-3.141,9.693a.912.912,0,0,0,.621-.6c.188-.629,1.426-4.748,3.369-10.163l.167-.465.047-.13q.308-.851.638-1.738l.152-.4,0-.009-1.029-2.033,1.029,2.031q.3-.81.622-1.641l.089-.232.09-.234.07-.177-.07.179-.09.232-.089.232q-.319.831-.622,1.641l.181.354.16-.017.017-.048q.39-1.066.773-2.079l.008-.024q-.4,1.049-.78,2.1l-.017.048-.114.312c-.2.554-.4,1.116-.607,1.692l-.008.025-.087.244c-.137.388-.256.738-.527,1.532a3.082,3.082,0,0,1,1.149,1.353,2.455,2.455,0,0,0-.794-1.685c2.208.1,4.112-.458,5.1-2.074a3.786,3.786,0,0,0,.24-.457,2.116,2.116,0,0,1-2.045.748,5.931,5.931,0,0,0,2.989-2.442q.258-.418.479-.857a4.813,4.813,0,0,1-4.542,1.474h0l-.069-.012a8.769,8.769,0,0,0,4.689-2.638,11.694,11.694,0,0,0,1.6-2.226,19.012,19.012,0,0,0,1.031-2.144c.285-.688.558-1.435.821-2.244a4.512,4.512,0,0,1-1.38.445c-.079.014-.157.026-.235.037h0l0,0c.077-.012.152-.022.227-.036s.153-.027.229-.044l-.227.041-.225.039a5.356,5.356,0,0,0,2.856-2.79,4.9,4.9,0,0,1-1.649.722c-.1.02-.194.038-.292.053l-.073.01v0l.016,0,.054-.009c.089-.014.179-.03.268-.049l.024-.005-.027.005-.331.056a5.6,5.6,0,0,0,1.223-.683,4.872,4.872,0,0,0,.7-.666,4.544,4.544,0,0,0,.383-.528l.109-.177.131-.259a15.5,15.5,0,0,0,.627-1.45l.053-.15c.048-.145.088-.274.119-.387a3.78,3.78,0,0,0,.09-.4,1.215,1.215,0,0,1-.161.109,5.8,5.8,0,0,1-1.7.578l-.168.019,0,0-3.863.424-.021.041-.131.269-.4.831-.075.158.075-.158q.2-.424.4-.831l.131-.269a.462.462,0,0,0,.021-.044l-.144.015-.114-.225q-.327.648-.644,1.3l-.348.723q-.968,2.033-1.861,4.1-.951,2.2-1.842,4.436l.146-.368q.822-2.045,1.7-4.068.894-2.067,1.861-4.1l.348-.722c.2-.416.4-.826.61-1.234l.034-.065q.489-.966.987-1.9.532-1,1.078-1.945.554-.964,1.146-1.907l.068-.109q.573-.9,1.153-1.74a28.6,28.6,0,0,1,2.594-3.236l-.1.106a25.952,25.952,0,0,0-2.343,3.175,43.886,43.886,0,0,0,4.545-.562c.447-2.505-.438-3.65-.438-3.65s-.757-1.225-1.759-1.235Zm-2.809,12.793a4.7,4.7,0,0,0,2.117-1.663c.129-.187.26-.382.39-.584.4-.619.786-1.3,1.134-1.98a20.191,20.191,0,0,0,.858-1.89,9.643,9.643,0,0,0,.341-1.022c.07-.268.126-.523.169-.765a43.955,43.955,0,0,1-4.546.561q-.615.943-1.186,1.912c-.348.588-.719,1.232-1.108,1.938q-1.067,1.932-2.033,3.918l3.863-.424Zm6.183-9.047v.112h.266v.748h.123v-.748h.268v-.112h-.656Zm.789,0v.862h.113v-.683l.292.593h.079l.293-.593v.683h.112v-.862h-.148l-.3.6-.3-.6h-.147Zm-6.83,9.033-.174.027,0,0,.17-.027Zm-.153.02-.008,0Zm-4.669,2.117-.181.387-.227.489q-.812,1.765-1.57,3.553-.88,2.072-1.7,4.168-.378.966-.765,1.982l-.009.024q1.829-4.943,4.046-9.729l.227-.489Z" transform="translate(-1953.125 8408.031)"/></g></svg>