<svg xmlns="http://www.w3.org/2000/svg" width="70" height="70" viewBox="0 0 70 70"><g transform="translate(-3744.377 -9508.407)"><circle cx="35" cy="35" r="35" transform="translate(3744.377 9508.407)" fill="#edf8f8"/><g transform="translate(3760.804 9527.494)"><g transform="translate(0)"><g style="isolation:isolate"><g transform="translate(10.871 7.697)"><rect width="2.85" height="1.613" fill="#111"/></g><g transform="translate(23.31 7.697)"><rect width="2.848" height="1.613" fill="#111"/></g><g transform="translate(19.453 12.863)"><path d="M5778.617,1625.012v1.613l-3.856,3.977v-1.614Z" transform="translate(-5774.761 -1625.012)" fill="#111"/></g><g transform="translate(13.721 12.73)"><path d="M5757.326,1628.622v1.614l-4.022-4.109v-1.614Z" transform="translate(-5753.303 -1624.512)" fill="#111"/></g><g transform="translate(30.543 20.575)"><rect width="6.604" height="1.614" fill="#111"/></g><g transform="translate(0 20.575)"><rect width="6.604" height="1.614" fill="#111"/></g><g transform="translate(22.789 16.798)"><path d="M5795,1647.379v1.615l-7.753-7.638v-1.614Z" transform="translate(-5787.251 -1639.742)" fill="#111"/></g><g transform="translate(0 9.252)"><path d="M5708.541,1611.493l7.753,7.63-7.753,7.552v-3.859h-6.6v-7.472h6.6Z" transform="translate(-5701.936 -1611.493)"/></g><g transform="translate(6.604 16.882)"><path d="M5734.414,1640.058v1.613l-7.753,7.555v-1.615Z" transform="translate(-5726.66 -1640.058)" fill="#111"/></g><g transform="translate(22.789 9.252)"><path d="M5795,1611.493v3.86h6.6v7.463H5795v3.859l-7.753-7.637Z" transform="translate(-5787.251 -1611.493)"/></g><g transform="translate(18.109 26.515)"><path d="M5777.777,1676.119v1.614l-7.685,7.7-.364-1.971Z" transform="translate(-5769.729 -1676.119)" fill="#111"/></g><g transform="translate(10.871 26.515)"><path d="M5750.235,1683.814v1.615l-7.6-7.7v-1.614Z" transform="translate(-5742.633 -1676.119)" fill="#111"/></g><g transform="translate(10.871)"><path d="M5750.319,1576.857l7.6,7.7h-2.848v5.166l-3.857,3.976,3.857,4.085v5.59h2.848l-7.685,7.695-7.6-7.695h2.851v-5.532l4.022-4.144-4.022-4.109v-5.032h-2.851Z" transform="translate(-5742.633 -1576.857)"/></g></g></g></g></g></svg>