<svg xmlns="http://www.w3.org/2000/svg" width="70" height="70" viewBox="0 0 70 70"><g transform="translate(-3546.377 -9508.407)"><circle cx="35" cy="35" r="35" transform="translate(3546.377 9508.407)" fill="#edf8f8"/><g transform="translate(3561.039 9533.223)"><path d="M5681.934,1046.716a10.413,10.413,0,0,1-.436-.973,4.484,4.484,0,0,1-.146-1.206h0v-4.359a4.489,4.489,0,0,0-1.147-3.4,4.955,4.955,0,0,0-3.545-1.1,8.207,8.207,0,0,0-2.106.262,7.563,7.563,0,0,0-1.759.654,1.06,1.06,0,0,0-.378.291.9.9,0,0,0-.087.465v.668c0,.276.087.421.276.421h.218l.523-.2a12.14,12.14,0,0,1,1.453-.465,6.519,6.519,0,0,1,1.453-.174,3.111,3.111,0,0,1,2.209.625,3,3,0,0,1,.625,2.165v.988c-.538-.131-1.046-.233-1.555-.3a12.337,12.337,0,0,0-1.453-.1,4.851,4.851,0,0,0-3.284,1.046,3.8,3.8,0,0,0-.232,5.376,3.676,3.676,0,0,0,2.717,1.017,5.027,5.027,0,0,0,3.981-1.86,8.189,8.189,0,0,0,.421.8,3.811,3.811,0,0,0,.479.625.582.582,0,0,0,.407.189.553.553,0,0,0,.349-.116l.857-.567a.465.465,0,0,0,.218-.62.454.454,0,0,0-.058-.092Zm-2.8-3.283a4.549,4.549,0,0,1-.131,1.177,2.2,2.2,0,0,1-.393.886,3.147,3.147,0,0,1-1.278.872,4.452,4.452,0,0,1-1.453.232,2,2,0,0,1-1.264-3.487,3.167,3.167,0,0,1,2-.523,7.623,7.623,0,0,1,1.278.073c.436.073.843.145,1.235.232Zm6.741,3.952a1.14,1.14,0,0,0,.276.537.842.842,0,0,0,.523.131h1.163a.859.859,0,0,0,.538-.131,1.078,1.078,0,0,0,.261-.552l2.078-8.718,2.106,8.718a.883.883,0,0,0,.247.538.812.812,0,0,0,.552.146h1.163a.811.811,0,0,0,.508-.146,1.044,1.044,0,0,0,.291-.523l3.371-10.447a.946.946,0,0,0,.087-.334,1.353,1.353,0,0,0,0-.218.29.29,0,0,0-.239-.334.28.28,0,0,0-.095,0h-1.265a.984.984,0,0,0-.522.131,1.224,1.224,0,0,0-.262.523l-2.354,9.066-2.165-8.994a.931.931,0,0,0-.247-.523.9.9,0,0,0-.553-.131h-1.1a.683.683,0,0,0-.79.556.721.721,0,0,0-.01.1l-2.107,8.892-2.252-8.892a1.156,1.156,0,0,0-.262-.523.827.827,0,0,0-.538-.131h-1.307c-.218,0-.32.116-.32.334a1.879,1.879,0,0,0,.117.538Zm14.529.247a5.923,5.923,0,0,0,1.555.537,9.108,9.108,0,0,0,2.078.247,6.511,6.511,0,0,0,1.947-.29,4.154,4.154,0,0,0,1.453-.756,3.559,3.559,0,0,0,.988-1.191,3.417,3.417,0,0,0,.349-1.569,3.036,3.036,0,0,0-.625-1.889,4.085,4.085,0,0,0-1.933-1.293l-1.917-.61a4.013,4.013,0,0,1-1.453-.756,1.291,1.291,0,0,1-.407-.959,1.323,1.323,0,0,1,.64-1.206,3.612,3.612,0,0,1,1.686-.378,6.031,6.031,0,0,1,2.6.537,1.573,1.573,0,0,0,.508.16c.2,0,.32-.145.32-.436v-.639a.653.653,0,0,0-.131-.436,1.106,1.106,0,0,0-.407-.349,3.8,3.8,0,0,0-.566-.247,4.343,4.343,0,0,1-.77-.2l-.872-.16h-.916a5.94,5.94,0,0,0-1.7.218,4.437,4.437,0,0,0-1.453.712,3.394,3.394,0,0,0-.974,1.1,2.988,2.988,0,0,0-.363,1.453,3.3,3.3,0,0,0,.668,1.961,4.185,4.185,0,0,0,2.165,1.38l1.961.61a3.076,3.076,0,0,1,1.366.7,1.324,1.324,0,0,1,.378.944,1.454,1.454,0,0,1-.712,1.293,3.721,3.721,0,0,1-1.976.436,7.684,7.684,0,0,1-1.612-.16,7.041,7.041,0,0,1-1.453-.465l-.334-.146h-.247c-.2,0-.32.146-.32.422v.741a.911.911,0,0,0,.087.378,1,1,0,0,0,.465.305Zm5.551,6.335a40.261,40.261,0,0,1-15.285,3.153,40.685,40.685,0,0,1-20.138-5.361c-.494-.291-.872.218-.465.6a29.814,29.814,0,0,0,20.167,7.672,29.174,29.174,0,0,0,16.476-5.027c.7-.552.059-1.366-.682-1.031Zm4.358-2.543c-.479-.6-4.664-1.119-7.265.668-.392.291-.319.668.1.61,1.453-.174,4.649-.552,5.216.174s-.639,3.734-1.177,5.085c-.159.392.189.567.553.247,2.542-2,3.167-6.175,2.673-6.785Z" transform="translate(-5669.891 -1035.657)"/></g></g></svg>