<svg xmlns="http://www.w3.org/2000/svg" width="70" height="70" viewBox="0 0 70 70"><g transform="translate(-3546.377 -9654.33)"><circle cx="35" cy="35" r="35" transform="translate(3546.377 9654.33)" fill="#edf8f8"/><path d="M6133.355,999.587c-.426.045-.279.437-.516.445S6132.654,999.534,6133.355,999.587Zm1.282.064c.414-.106.416.311.643.235S6135.276,999.357,6134.638,999.652Zm14.27,27.305a18.764,18.764,0,0,0-3.57,2.664,4.074,4.074,0,0,1-3.449.107c-1.266-.652-.594-1.668-2.548-1.716-.971-.023-1.916-.031-2.862-.02-.837.011-1.674.037-2.527.081-2.934.026-3.221,1.944-5.09,1.874-1.279-.047-2.894-1.056-5.666-1.637-1.948-.406-3.818-.5-4.219-1.364s.494-1.823.553-2.679c.073-1.117-.846-2.635-.167-3.224.561-.487,1.79-.13,2.582-.572a1.818,1.818,0,0,0,1.181-1.882,1.949,1.949,0,0,1-.711,2.342,3.309,3.309,0,0,1-1.816.318c-.5-.047-.812.034-.965.225-.194.248-.132.682.113,1.26a3.247,3.247,0,0,1,.5,1.651c-.04.708-.817,1.547-.693,2.142.048.228.272.419.812.571.894.251,2.488.479,4.061.862,1.75.429,3.555,1.237,4.677,1.082,3.355-.467,1.442-4.066.9-4.922-2.833-4.459-4.706-7.378-6.206-6.219-.391.3-.406-.759-.389-1.167.064-1.465.809-1.978,1.251-3.119.828-2.136,1.474-4.583,2.755-5.848a18.007,18.007,0,0,0,2.726-4.289c-.239-2.3-.313-4.731-.35-6.856-.037-2.26.321-4.243,2.874-5.63a4.973,4.973,0,0,1,2.288-.471,7.483,7.483,0,0,1,4.3,1.212,7.589,7.589,0,0,1,2.677,5.945,13.422,13.422,0,0,0,.65,4.7,11.383,11.383,0,0,0,2.941,4.815c1.748,1.854,3.108,5.507,3.492,7.82.361,2.161-.11,3.5-.584,3.564-.706.1-1.146,2.347-3.358,2.243-1.412-.068-1.55-.9-1.941-1.612-.629-1.136-1.269-.781-1.525.4a4.871,4.871,0,0,0,.158,2.15,9.822,9.822,0,0,1,.023,4.289c-.451,3.055,2.135,3.633,3.88,2.181a9.847,9.847,0,0,1,4.269-2.406c3.285-1.125,2.182-2.12.415-2.714-1.584-.533-1.649-3.209-1.082-3.714.126,2.874,1.622,3.291,2.257,3.683C6154.246,1024.77,6150.5,1026.154,6148.907,1026.957Zm-7.316-8.419a1.3,1.3,0,0,1,1.116-.4c.071-1.752,2.8-1.623,3.692-.89,0-.406-.857-.77-1.2-.942.595-1.978.315-2.773-.079-4.641a7.271,7.271,0,0,0-2.615-3.945,7.734,7.734,0,0,1,1.26,1.839c.888,1.653,1.764,4.1,1.18,6.146a1.133,1.133,0,0,1-1.09.922c-1.564.163-.645-1.848-1.294-4.619-.723-3.08-1.465-3.311-1.651-3.553-.9-4.007-1.893-3.607-2.175-5.12-.253-1.339,1.167-2.446-.764-2.82-.588-.115-1.431-.713-1.767-.755s-.5-2.209.725-2.3,1.453,1.378,1.214,1.956c-.347.572.025.786.628.6.494-.152.175-1.437.293-1.628-.318-1.841-1.087-2.106-1.887-2.26-3.038.233-1.674,3.6-1.981,3.274-.431-.457-1.725-.026-1.718-.318.028-1.716-.547-2.71-1.339-2.731-.882-.026-1.245,1.21-1.3,1.9-.051.668.4,2.06.724,1.953.214-.071.581-.5.189-.5-.2,0-.509-.473-.541-1.052s.181-1.158.93-1.127c.879.034.871,1.751.775,1.818a3.944,3.944,0,0,0-.681.637c-.279.468-.84.583-1.046.789-.392.391-.471.834-.177,1,1.005.577.678,1.219,2.085,1.279a6.4,6.4,0,0,0,2.249-.336c.489-.148,2.063-.484,2.4-1.061.144-.245.325-.254.445-.184.211.122.257.53-.287.676a21.116,21.116,0,0,0-2.252.9,6.379,6.379,0,0,1-1.555.5c-1.461.262-2.539-.527-1.559.42a1.677,1.677,0,0,0,1.478.479c1.84-.073,3.9-2.282,4.1-1.293.042.2-.583.478-1.07.721-1.725.849-2.939,2.525-4.044,1.945-.988-.521-1.972-2.973-1.955-1.874.028,1.694-2.232,3.2-1.192,5.129-.674.183-2.209,3.424-2.43,5.111a21.593,21.593,0,0,1-.138,2.827c-.333.969-1.843-.924-1.36-3.244.087-.408.014-.495-.1-.3a4.286,4.286,0,0,0,.208,3.66c.212.459.708.662,1.074,1.071.792.885,3.819,3.13,4.368,3.668a1.361,1.361,0,0,1-.936,2.3c.725,1.367,1.431,1.5,1.42,3.731.819-.44.49-1.4.147-2.038-.24-.434-.554-.631-.485-.732.051-.077.473-.439.727-.155.747.837,2.156.986,3.672.8s3.136-.721,3.886-1.927c.352-.567.606-.767.769-.668s.231.5.214,1.144a7.773,7.773,0,0,1-.5,2.046c-.209.671-.273,1.146.38,1.172.194-1.24.536-2.46.634-3.694C6141.513,1022.452,6140.5,1019.839,6141.591,1018.538Zm-9.273-19.926c-.051.277-.031.449.161.449.031,0,.064-.006.077-.076a.979.979,0,0,0-.308-.981c-.27-.068-.236.318-.1.288C6132.237,998.274,6132.352,998.415,6132.318,998.612Zm4.994-.755c-.277.026-.2.163-.061.2.181.054.35.36.389.693,0,.03.231-.048.231-.121A.745.745,0,0,0,6137.313,997.857Z" transform="translate(-2554.304 8679.042)"/></g></svg>