<svg xmlns="http://www.w3.org/2000/svg" width="70" height="70" viewBox="0 0 70 70"><g transform="translate(-3744.377 -9802.241)"><circle cx="35" cy="35" r="35" transform="translate(3744.377 9802.241)" fill="#edf8f8"/><g transform="translate(3766.376 9821.742)"><g transform="translate(0)"><path d="M6152.347,1571.715c-.432-.438-.862-.879-1.3-1.314-.352-.351-.726-.378-1.014-.081a.668.668,0,0,0,.091.995q1.2,1.21,2.414,2.414a.675.675,0,0,0,1.105,0c.548-.544,1.093-1.092,1.639-1.638.28-.28.565-.556.838-.843a.654.654,0,0,0,.022-.952.641.641,0,0,0-.928.025c-.156.145-.3.3-.454.451l-1,1c-.127-.792-.207-1.559-.379-2.305a5.844,5.844,0,0,0-3.422-4.382,15.764,15.764,0,0,0-2.024-.646c-.878-.243-1.774-.426-2.648-.684a1.683,1.683,0,0,1-1.143-1.062,4.5,4.5,0,0,1-.143-1.7c.208-.011.388-.021.569-.029a20.717,20.717,0,0,0,4.188-.563,7.341,7.341,0,0,0,2.934-1.281,1.558,1.558,0,0,0,.685-1.011c.057-.637.015-1.283.015-1.947-.152.1-.292.2-.435.29a12.993,12.993,0,0,1-5.135,1.7,24.074,24.074,0,0,1-6.08.114,15.779,15.779,0,0,1-4.8-1.169c-.579-.257-1.123-.591-1.708-.9,0,.454.017.918,0,1.379a1.669,1.669,0,0,0,.712,1.5,7.391,7.391,0,0,0,1.471.841,15.684,15.684,0,0,0,4.688.983c.514.044,1.03.066,1.537.1a11.263,11.263,0,0,1-.009,1.261,1.721,1.721,0,0,1-1.141,1.459,5.929,5.929,0,0,1-.833.285c-.867.212-1.742.394-2.608.608a6.036,6.036,0,0,0-4.768,4.894c-.163.737-.247,1.491-.372,2.276-.469-.472-.928-.941-1.394-1.4a.648.648,0,0,0-.992-.062.657.657,0,0,0,.068.972q1.225,1.233,2.458,2.458a.66.66,0,0,0,1.062,0q1.233-1.224,2.457-2.458a.664.664,0,0,0,.072-.974.651.651,0,0,0-.993.058c-.4.392-.79.791-1.186,1.185a1.821,1.821,0,0,1-.166.132l-.087-.04c.142-.756.237-1.524.436-2.265a4.459,4.459,0,0,1,2.842-3.225,11.294,11.294,0,0,1,1.784-.5,10.341,10.341,0,0,0,3.34-1.086c.011-.006.036.01.047.014v7.2c-.509-.518-.958-.984-1.419-1.439a.633.633,0,0,0-.947-.04.643.643,0,0,0,.025.95q1.255,1.268,2.523,2.522a.64.64,0,0,0,1,0q1.269-1.253,2.522-2.522a.649.649,0,0,0,.029-.951.638.638,0,0,0-.949.039c-.408.4-.806.8-1.209,1.205-.06.059-.127.11-.213.183v-7.223a12.115,12.115,0,0,0,3.979,1.284,7.7,7.7,0,0,1,1.976.763C6151.9,1567.713,6152.23,1569.664,6152.347,1571.715Zm-8.7-28.871a23.563,23.563,0,0,0-6.173.685,6.7,6.7,0,0,0-2.426,1.093,1.628,1.628,0,0,0-.053,2.791,5.585,5.585,0,0,0,1.254.735,15.181,15.181,0,0,0,4.673,1.038,25.871,25.871,0,0,0,5.384-.056,15.217,15.217,0,0,0,3.962-.906,4.216,4.216,0,0,0,1.79-1.17,1.493,1.493,0,0,0-.013-2.029,2.549,2.549,0,0,0-.715-.606,11.11,11.11,0,0,0-1.747-.769A20.448,20.448,0,0,0,6143.643,1542.844Zm8.776,9.4a11.741,11.741,0,0,1-4.917,1.9,23.9,23.9,0,0,1-6.8.222,15.454,15.454,0,0,1-4.852-1.206c-.548-.25-1.064-.568-1.619-.868a11.105,11.105,0,0,1-.007,1.148,1.7,1.7,0,0,0,.9,1.734,12.1,12.1,0,0,0,2.063,1.02,17.3,17.3,0,0,0,5.5.9,19.471,19.471,0,0,0,6.931-.94,5.715,5.715,0,0,0,2.219-1.229,1.794,1.794,0,0,0,.549-.879A12.173,12.173,0,0,0,6152.419,1552.242Zm-18.184-3.9c0,.429.032.817-.007,1.2a1.69,1.69,0,0,0,.881,1.714,12.087,12.087,0,0,0,2.089,1.035,17.31,17.31,0,0,0,5.5.9,20.013,20.013,0,0,0,6.557-.816,7.59,7.59,0,0,0,2.32-1.115,1.686,1.686,0,0,0,.813-1.063,16.059,16.059,0,0,0,.017-1.823.457.457,0,0,0-.091.037,10.224,10.224,0,0,1-3.634,1.577,22.437,22.437,0,0,1-6.985.553A14.575,14.575,0,0,1,6134.236,1548.343Z" transform="translate(-6130.338 -1542.844)"/></g></g></g></svg>