<svg xmlns="http://www.w3.org/2000/svg" width="70" height="70" viewBox="0 0 70 70"><g transform="translate(-3546.377 -9802.33)"><circle cx="35" cy="35" r="35" transform="translate(3546.377 9802.33)" fill="#edf8f8"/><path d="M6144.226,1281.489l-14.585,8.418v16.836l14.585,8.418,14.584-8.418v-16.836Zm8.417,23.277a1.972,1.972,0,0,1-2.145,1.81,3.292,3.292,0,0,1-2.527-1.136l-8.419-10.019v9.344a1.791,1.791,0,0,1-1.787,1.81h-.107a1.822,1.822,0,0,1-1.809-1.81v-12.878a1.944,1.944,0,0,1,2.1-1.81,3.346,3.346,0,0,1,2.568,1.136l8.376,10.019v-9.345a1.823,1.823,0,0,1,1.81-1.81h.1a1.823,1.823,0,0,1,1.81,1.81v12.88Z" transform="translate(-2562.848 8538.916)"/></g></svg>