<svg xmlns="http://www.w3.org/2000/svg" width="58.478" height="58.478" viewBox="0 0 58.478 58.478"><path d="M29.239,58.478a28.682,28.682,0,0,1-11.364-2.313A28.61,28.61,0,0,1,2.313,40.6a29.072,29.072,0,0,1,0-22.728A28.61,28.61,0,0,1,17.875,2.313a29.072,29.072,0,0,1,22.728,0A28.61,28.61,0,0,1,56.165,17.875a29.072,29.072,0,0,1,0,22.728A28.61,28.61,0,0,1,40.6,56.165a28.682,28.682,0,0,1-11.364,2.313ZM46.428,14.619a10.557,10.557,0,0,0-1.028.629l-1.114.742-1.056.572-1.2.4a6.729,6.729,0,0,0-5.2-2.341q-6.681,0-6.681,5.6v3.369q-9.194-.456-14.106-6.738A4.611,4.611,0,0,0,14.619,20.1a6.507,6.507,0,0,0,2.8,5.711q-.343,0-.971.057a4.33,4.33,0,0,1-1,0,2.862,2.862,0,0,1-.828-.286,6.753,6.753,0,0,0,1.4,4.368,6.449,6.449,0,0,0,3.855,2.255,1.967,1.967,0,0,1-1.6.685,2.589,2.589,0,0,1-1.6-.513,3.811,3.811,0,0,0,2.141,3.455,9.96,9.96,0,0,0,4.826,1.285,6.192,6.192,0,0,1-3,2.313,11.385,11.385,0,0,1-4.2.77,8.59,8.59,0,0,1-2.2-.4q-1.4-.4-1.455-.4a7.463,7.463,0,0,0,3.741,3.142A17.013,17.013,0,0,0,23.7,43.858a18.841,18.841,0,0,0,7.139-1.342,17.757,17.757,0,0,0,5.653-3.569,23.448,23.448,0,0,0,4.027-5.083,23.763,23.763,0,0,0,2.513-5.911,23.087,23.087,0,0,0,.827-6.025q0-.114.685-.486a18.427,18.427,0,0,0,1.6-1,5.052,5.052,0,0,0,1.371-1.314q-3.083,0-4.111.114,2-1.2,3.026-4.626Z" fill="#fff"/></svg>