<svg xmlns="http://www.w3.org/2000/svg" width="58.05" height="58.05" viewBox="0 0 58.05 58.05"><path d="M29.025,58.05A29.025,29.025,0,0,1,8.5,8.5,29.025,29.025,0,0,1,49.549,49.549,28.835,28.835,0,0,1,29.025,58.05Zm6.236-30.756c2.5,0,3.826,1.776,3.826,5.136V44.584h7.551V31.557c0-6.4-3.25-10.224-8.693-10.224a7.539,7.539,0,0,0-6.8,3.749V21.866H23.589c.1,2.1,0,22.51,0,22.716h7.549V31.9a4.986,4.986,0,0,1,.25-1.842A4.207,4.207,0,0,1,35.261,27.294Zm-23.4-5.428V44.584h7.551V21.866Zm3.826-10.953c-2.515,0-4.271,1.614-4.271,3.924a3.921,3.921,0,0,0,4.172,3.924h.049c2.516,0,4.272-1.614,4.272-3.924A3.919,3.919,0,0,0,15.684,10.913Z" fill="#fff"/></svg>