<svg id="arrow-left" xmlns="http://www.w3.org/2000/svg" width="42.756" height="24.945" viewBox="0 0 42.756 24.945">
  <path id="Path_3422" data-name="Path 3422" d="M5.022,10.647a1.781,1.781,0,0,0,0,2.522l9.43,9.426L5.021,32.024a1.784,1.784,0,0,0,2.522,2.522L18.232,23.858a1.781,1.781,0,0,0,0-2.522L7.543,10.647a1.781,1.781,0,0,0-2.522,0Z" transform="translate(24.001 -10.123)" fill="#231f20" fill-rule="evenodd"/>
  <path id="Path_3423" data-name="Path 3423" d="M46.6,18.656a1.781,1.781,0,0,0-1.781-1.781H7.406a1.781,1.781,0,0,0,0,3.563h37.41A1.781,1.781,0,0,0,46.6,18.656Z" transform="translate(-5.625 -6.184)" fill="#231f20" fill-rule="evenodd"/>
</svg>
