<svg id="arrow-left" xmlns="http://www.w3.org/2000/svg" width="42.756" height="24.945" viewBox="0 0 42.756 24.945">
  <path id="Path_3422" data-name="Path 3422" d="M18.231,10.647a1.781,1.781,0,0,1,0,2.522L8.8,22.6l9.431,9.428a1.784,1.784,0,1,1-2.522,2.522L5.022,23.858a1.781,1.781,0,0,1,0-2.522L15.71,10.647a1.781,1.781,0,0,1,2.522,0Z" transform="translate(-4.498 -10.123)" fill="#231f20" fill-rule="evenodd"/>
  <path id="Path_3423" data-name="Path 3423" d="M5.625,18.656a1.781,1.781,0,0,1,1.781-1.781h37.41a1.781,1.781,0,0,1,0,3.563H7.406A1.781,1.781,0,0,1,5.625,18.656Z" transform="translate(-3.841 -6.184)" fill="#231f20" fill-rule="evenodd"/>
</svg>
