<svg xmlns="http://www.w3.org/2000/svg" width="70" height="70" viewBox="0 0 70 70"><g transform="translate(-3282.838 -9508.407)"><circle cx="35" cy="35" r="35" transform="translate(3282.838 9508.407)" fill="#edf8f8"/><path d="M5087.133,1015.058c-2.016-8.871-6.768-11.786-7.279-12.9a14.343,14.343,0,0,1-1.169-2.285c0,.03-.006.049-.008.078v.021h0c0,.024,0,.04-.006.062v.024h0c0,.016,0,.029,0,.042v.041h0c0,.013,0,.029,0,.04v.033h0a.122.122,0,0,1,0,.033v.032h0c0,.016,0,.035,0,.051v0c0,.027-.01.054-.015.08v.013h0a.069.069,0,0,0,0,.019v.027h0v.035h-.008v.029h-.008v.033h-.006v.03h-.006v.027h-.01v.022h-.006v.029h-.006v.022h-.008v.021h0v.024h-.006a.01.01,0,0,0,0,.006v.016h0a.021.021,0,0,0,0,.009v.01h0a.073.073,0,0,0,0,.016c0,.011-.011.022-.016.034v0a.055.055,0,0,0-.008.011v.013h-.006v.013h-.007v.013h0v.016h-.01v.022h-.006v.006h-.006v.013h-.006v.018h-.006v.013h-.01v.018h-.006v.013h-.008v.013h0v.016h-.008v.013h-.006v.009h-.006v.013h-.01v.014h-.006v.01h-.008v.013h-.006v.018h-.008v.006h0v.013h-.01v.006h-.006v.016h-.006v.006h-.006v.013h-.008v.01h0l0,.006v.006h0s0,0,0,.006v0h0a.022.022,0,0,1-.006.011v0h0a.314.314,0,0,0-.019.029v0a.067.067,0,0,0-.015.016v0h0s0,0,0,0v0h0l0,0v0h0s0,0,0,.006v.006h0l0,0v0h0s0,0,0,0v0h-.006s0,0,0,0v.009h0v.006h-.006v.01h-.006v.013h-.008v-.013h-.008v.006h-.006v.009h-.008v.013h-.008v.006h-.006v.01h-.006v.006h-.007v.013h-.009v.006h-.006v.01h-.008v.006h-.006v.008h-.008v.016h0v.006h-.01v.008h-.006v0h-.006v.006h-.008v.016h-.006v.006h-.008v.006h-.006v.009h-.008v.006h-.008v.006h-.006v.006h-.006v.016h-.006v.008h-.009v.006H5078v.006h-.008v.01h-.006v.006h-.008v.011h-.007v.006h-.009v.009h0v.006h-.006v.006h-.008v.006h-.006v.01h-.008v.006h0a0,0,0,0,0,0,0v0h0l-.006.006-.006,0v.009h-.006v.008h-.006v.006h-.007v.006h0l0,0v0h0l0,0v0h0a.161.161,0,0,1-.022.026l-.02.016a.616.616,0,0,0-.062.051.416.416,0,0,0-.035.027v0h0l-.078.062v0l-.118.1v0h0c-.091.075-.187.16-.3.254h0c-.27.236-.59.539-.949.906l-.023.024-.007.006a21.966,21.966,0,0,0-5.95,14.482,16.567,16.567,0,0,0,.01,1.825v.014a17.382,17.382,0,0,0,2.278,7.588v0a19.938,19.938,0,0,0,1.478,2.241v0a20.433,20.433,0,0,0,4.011,4.03,13.336,13.336,0,0,1,.639,4.434l1.027.343a19.107,19.107,0,0,1,.084-4.024,2.484,2.484,0,0,1,.557-1.056,13.394,13.394,0,0,0,1.272-1.029c.029-.03.044-.057.07-.086A18.227,18.227,0,0,0,5087.133,1015.058Z" transform="translate(-1761.028 8524.389)"/></g></svg>