<svg xmlns="http://www.w3.org/2000/svg" width="70" height="70" viewBox="0 0 70 70"><g transform="translate(-3084.838 -9508.407)"><circle cx="35" cy="35" r="35" transform="translate(3084.838 9508.407)" fill="#edf8f8"/><g transform="translate(3104.745 9526.775)"><g transform="translate(0 0)"><path d="M4721.056,1020.6c0,1.9.02,3.8-.006,5.7a5.006,5.006,0,0,1-2.581,4.471q-4.87,2.879-9.8,5.662a5.184,5.184,0,0,1-5.422,0q-4.848-2.774-9.673-5.59a5.1,5.1,0,0,1-2.7-4.657c-.007-3.716,0-7.432,0-11.148a5.161,5.161,0,0,1,2.763-4.79c3.221-1.846,6.421-3.729,9.65-5.561a5.156,5.156,0,0,1,5.362,0c3.27,1.855,6.52,3.746,9.77,5.636a5.035,5.035,0,0,1,2.628,4.581C4721.07,1016.806,4721.056,1018.706,4721.056,1020.6Zm-1.486-.016h.072c0-1.9.008-3.8,0-5.7a3.552,3.552,0,0,0-1.817-3.2q-4.98-2.937-10.014-5.782a3.526,3.526,0,0,0-3.621,0c-3.348,1.911-6.69,3.831-10.011,5.79a3.5,3.5,0,0,0-1.8,3.134q-.024,5.752,0,11.5a3.451,3.451,0,0,0,1.743,3.062q4.98,2.973,10.025,5.835a3.417,3.417,0,0,0,3.463.064q5.148-2.893,10.227-5.908a3.479,3.479,0,0,0,1.734-3.1C4719.582,1024.389,4719.57,1022.489,4719.57,1020.589Z" transform="translate(-4690.878 -1003.936)"/><path d="M4722.607,1053.164a4.052,4.052,0,0,1,.324.528.911.911,0,0,1-.84,1.251,3.013,3.013,0,0,1-2.423-1.029.4.4,0,0,0-.542-.1c-1,.47-2.01.929-3.019,1.386a4.032,4.032,0,0,1-.66.244.932.932,0,0,1-1.116-.376,1.279,1.279,0,0,1,.174-1.3,1.2,1.2,0,0,0,.4-.948,4.073,4.073,0,0,1,1.371-2.751,11.051,11.051,0,0,1,4.826-2.7c.5-.147,1.006-.252,1.5-.4a.935.935,0,0,0,.324-.232c.512-.464.995-.965,1.538-1.391a1.905,1.905,0,0,1,1.381-.327,1.05,1.05,0,0,1,.937,1.517,2.418,2.418,0,0,1-.3.519c-.385.527-.347.823.193,1.159a11.066,11.066,0,0,1,4.715,5.607,15.787,15.787,0,0,1,.593,2.25.468.468,0,0,0,.408.428,4.782,4.782,0,0,1,2.417,1.39,2.657,2.657,0,0,1,.363.477.728.728,0,0,1-.611,1.165,1.984,1.984,0,0,1-.9-.12,2.066,2.066,0,0,0-1.207-.1,2.809,2.809,0,0,0-1.914.944,1.18,1.18,0,0,1-.419.316.89.89,0,0,1-1.342-.98,3.1,3.1,0,0,1,.787-1.593c.673-.786.673-.791.011-1.594a7.573,7.573,0,0,0-3.56-2.691,21.383,21.383,0,0,0-2.707-.48C4723.093,1053.206,4722.871,1053.193,4722.607,1053.164Zm-1.267-.657a7.1,7.1,0,0,1,.737,0c.738.075,1.476.164,2.212.258a7.649,7.649,0,0,1,2.361.565,10.31,10.31,0,0,1,4.057,3.591.724.724,0,0,1,.011.615,6.4,6.4,0,0,1-.659,1,2.152,2.152,0,0,0-.675,1.468,1.586,1.586,0,0,0,.094.317,1.318,1.318,0,0,0,.327-.163,4.928,4.928,0,0,1,.675-.662,4.079,4.079,0,0,1,3.458-.648,1.512,1.512,0,0,0,.465,0c-.057-.17-.064-.394-.179-.5a4.556,4.556,0,0,0-1.079-.842,15.776,15.776,0,0,0-1.821-.62c-.013-.2-.017-.486-.052-.765a9.549,9.549,0,0,0-2.358-5.05,12.134,12.134,0,0,0-2.644-2.279,1.485,1.485,0,0,1-.531-1.983c.088-.165.225-.3.328-.459.2-.3.133-.564-.215-.6a1.9,1.9,0,0,0-.972.168,4.186,4.186,0,0,0-1.453,1.417,1.035,1.035,0,0,1-.483.35c-.72.222-1.465.366-2.173.617a9.948,9.948,0,0,0-3.978,2.363,3.593,3.593,0,0,0-1.2,2.484,1.458,1.458,0,0,1-.455,1.069.992.992,0,0,0-.239.339c-.091.263.04.4.3.318a5.343,5.343,0,0,0,.583-.25q1.774-.789,3.547-1.58c.229-.1.368-.058.516.171a2.422,2.422,0,0,0,1.746,1.085,2.05,2.05,0,0,0,.583-.081l.032-.113C4721.811,1053.655,4721.194,1053.334,4721.341,1052.507Z" transform="translate(-4709.491 -1036.682)"/><path d="M4727.706,1080.085c-.1-.142-.272-.289-.263-.425s.2-.3.34-.335a.292.292,0,0,1,.357.353c-.02.145-.172.271-.265.405Z" transform="translate(-4720.022 -1064.019)"/></g></g></g></svg>