<svg xmlns="http://www.w3.org/2000/svg" width="70" height="70" viewBox="0 0 70 70"><g transform="translate(-3282.838 -9654.33)"><circle cx="35" cy="35" r="35" transform="translate(3282.838 9654.33)" fill="#edf8f8"/><path d="M5055.487,1322.382c-.014.328-.448.694-1.337,1.159-1.833.954-11.322,4.857-13.342,5.91s-3.142,1.042-4.738.279-11.693-4.843-13.513-5.711c-.908-.435-1.372-.8-1.388-1.147v3.47c0,.346.478.714,1.388,1.149,1.819.87,11.918,4.948,13.513,5.711s2.718.774,4.738-.28,11.509-4.954,13.342-5.91c.931-.485,1.343-.862,1.343-1.2,0-.323,0-3.421,0-3.421Zm0-5.656c-.016.327-.448.692-1.336,1.157-1.833.954-11.322,4.857-13.342,5.91s-3.142,1.043-4.738.28-11.693-4.843-13.513-5.713c-.908-.433-1.372-.8-1.388-1.146v3.47c0,.346.478.712,1.388,1.147,1.819.87,11.917,4.949,13.513,5.711s2.718.774,4.738-.279,11.509-4.956,13.342-5.91c.931-.486,1.343-.864,1.343-1.206,0-.323,0-3.421,0-3.421S5055.489,1316.727,5055.486,1316.726Zm0-5.867c.017-.349-.439-.655-1.358-.993-1.785-.653-11.217-4.408-13.024-5.07s-2.541-.634-4.664.127-12.166,4.7-13.952,5.4c-.894.352-1.332.677-1.316,1.023v3.47c0,.346.478.712,1.388,1.147,1.819.87,11.917,4.95,13.513,5.712s2.717.772,4.738-.28,11.51-4.956,13.342-5.91c.931-.486,1.343-.864,1.343-1.206,0-.322,0-3.421,0-3.421Zm-22.024,3.284,7.953-1.221-2.4,3.523Zm17.59-3.172-4.7,1.858-.511.2-4.7-1.858,5.209-2.059Zm-13.809-3.408-.77-1.419,2.4.938,2.262-.741-.612,1.466,2.306.864-2.974.309-.667,1.6-1.075-1.786-3.434-.309Zm-5.926,2c2.349,0,4.251.738,4.251,1.648s-1.9,1.647-4.251,1.647-4.252-.739-4.252-1.647S5028.969,1309.563,5031.317,1309.563Z" transform="translate(-1720.496 8370.295)"/></g></svg>